SplineFontDB: 3.0
FontName: Kinnari-BoldOblique
FullName: Kinnari Bold Oblique
FamilyName: Kinnari
Weight: Bold
Copyright: Copyright (C) 1999 Db Type. All Rights Reserved.\nCopyright (C) 2007 National Electronics and Computer Technology Center. All Rights Reserved.
Version: 002.005
ItalicAngle: -12
UnderlinePosition: -70
UnderlineWidth: 25
Ascent: 800
Descent: 200
LayerCount: 2
Layer: 0 0 "Back"  1
Layer: 1 0 "Fore"  0
FSType: 0
OS2Version: 4
OS2_WeightWidthSlopeOnly: 0
OS2_UseTypoMetrics: 0
CreationTime: 1136287438
ModificationTime: 1437300741
PfmFamily: 17
TTFWeight: 700
TTFWidth: 5
LineGap: 0
VLineGap: 0
Panose: 0 0 0 0 0 0 0 0 0 0
OS2TypoAscent: 0
OS2TypoAOffset: 1
OS2TypoDescent: 0
OS2TypoDOffset: 1
OS2TypoLinegap: 0
OS2WinAscent: 1286
OS2WinAOffset: 0
OS2WinDescent: 496
OS2WinDOffset: 0
HheadAscent: 1286
HheadAOffset: 0
HheadDescent: -496
HheadDOffset: 0
OS2Vendor: 'PfEd'
Lookup: 4 0 1 "'liga' Standard Ligatures in Latin lookup 0"  {"'liga' Standard Ligatures in Latin lookup 0 subtable"  } ['liga' ('latn' <'dflt' > ) ]
Lookup: 6 0 0 "'ccmp' Thai Tone Tilde Reordering"  {"'ccmp' Thai Tone Tilde Reordering"  } ['ccmp' ('DFLT' <'dflt' > 'latn' <'dflt' > 'thai' <'KUY ' 'MLY ' 'PAL ' 'SAN ' 'THA ' 'dflt' > ) ]
Lookup: 6 0 0 "'ccmp' Thai Conditional Descender Removal"  {"'ccmp' Thai Conditional Descender Removal"  } ['ccmp' ('DFLT' <'dflt' > 'thai' <'KUY ' 'MLY ' 'THA ' 'dflt' > ) ]
Lookup: 1 0 0 "'ccmp' Pali-Sanskrit Descender Removal"  {"'ccmp' Pali-Sanskrit Descender Removal" ("descless" ) } ['ccmp' ('thai' <'PAL ' 'SAN ' > ) ]
Lookup: 6 0 0 "'ccmp' Thai Below Vowel Phinthu Reordering"  {"'ccmp' Thai Below Vowel Phinthu Reordering"  } ['ccmp' ('DFLT' <'dflt' > 'latn' <'dflt' > 'thai' <'KUY ' 'MLY ' 'PAL ' 'SAN ' 'THA ' 'dflt' > ) ]
Lookup: 6 0 0 "'ccmp' Thai General Composition"  {"'ccmp' Thai Below Vowel Tone Reordering"  "'ccmp' Thai General Composition"  } ['ccmp' ('DFLT' <'dflt' > 'thai' <'KUY ' 'MLY ' 'PAL ' 'SAN ' 'THA ' 'dflt' > ) ]

StartChar: .notdef
Encoding: 0 0 0
Width: 384
Flags: W
HStem: 0 23<28 366> 568 23<144 482>
DStem2: 0 0 23.1112 0 0.207912 0.978148<28.3189 585.527> 361.111 0 384 0 0.207912 0.978148<23.5138 580.722>
LayerCount: 2
Fore
SplineSet
144 568 m 1
 28 23 l 1
 366 23 l 1
 482 568 l 1
 144 568 l 1
384 0 m 1
 0 0 l 1
 126 591 l 1
 510 591 l 1
 384 0 l 1
EndSplineSet
Validated: 1
EndChar

StartChar: exclam
Encoding: 33 33 2
Width: 333
Flags: W
HStem: -14 140<139.462 219.181> 680 20G<291 335>
VStem: 107 143<16.8218 93.077> 230 135<547.062 659.804>
LayerCount: 2
Fore
SplineSet
365 644 m 0xd0
 365 612 353 575 348 558 c 2
 222 177 l 1
 187 177 l 1
 223 559 l 1
 226 574 227 591 230 608 c 0
 239 647 266 700 316 700 c 0
 354 700 365 673 365 644 c 0xd0
250 70 m 0xe0
 250 24 207 -14 163 -14 c 0
 133 -14 107 11 107 43 c 0
 107 76 144 126 194 126 c 0
 227 126 250 101 250 70 c 0xe0
EndSplineSet
Validated: 1
EndChar

StartChar: numbersign
Encoding: 35 35 4
Width: 499
Flags: W
HStem: 0 21G<65 154.281 258 348.097> 217 78<55 143 255 335 447 528> 404 80<121 213 324 404 515 593>
DStem2: 65 0 147 0 0.34317 0.939273<28.1399 230.59 342.288 430.256 543.489 731.073> 258 0 341 0 0.338331 0.941027<28.0815 230.254 341.548 429.571 542.408 730.053>
LayerCount: 2
Fore
SplineSet
593 404 m 1
 487 404 l 1
 447 295 l 1
 545 295 l 1
 528 217 l 1
 418 217 l 1
 341 0 l 1
 258 0 l 1
 335 217 l 1
 226 217 l 1
 147 0 l 1
 65 0 l 1
 143 217 l 1
 38 217 l 1
 55 295 l 1
 172 295 l 1
 213 404 l 1
 104 404 l 1
 121 484 l 1
 241 484 l 1
 315 687 l 1
 398 687 l 1
 324 484 l 1
 432 484 l 1
 505 687 l 1
 587 687 l 1
 515 484 l 1
 610 484 l 1
 593 404 l 1
404 404 m 1
 296 404 l 1
 255 295 l 1
 364 295 l 1
 404 404 l 1
EndSplineSet
Validated: 1
EndChar

StartChar: dollar
Encoding: 36 36 5
Width: 499
Flags: W
HStem: -12 52<161.378 215 285 331.801> 622 52<308.652 350 419 461.495>
VStem: 73 39<160.969 194> 145 106<463.927 558.371> 401 109<127.486 231.299> 503 37<487 520.444>
DStem2: 197 -100 255 -100 0.207912 0.978148<12.0589 89.8194 156.215 392.355 541.704 738.033 803.243 857.674>
LayerCount: 2
Fore
SplineSet
510 217 m 0xf8
 510 126 440 6 274 -11 c 1
 255 -100 l 1
 197 -100 l 1
 215 -12 l 1
 153 -11 94 8 41 43 c 1
 73 194 l 1
 112 194 l 1
 112 178 l 2
 112 94 150 46 227 40 c 1
 282 303 l 1
 221 342 145 394 145 477 c 0
 145 556 211 663 361 674 c 1
 375 739 l 1
 433 739 l 1
 419 674 l 1
 474 670 528 653 567 616 c 1
 540 487 l 1
 503 487 l 1
 503 499 l 2xf4
 503 569 470 613 408 622 c 1
 361 398 l 1
 431 355 510 310 510 217 c 0xf8
350 622 m 1
 321 615 251 579 251 514 c 0
 251 475 281 453 309 430 c 1
 350 622 l 1
285 41 m 1
 375 61 401 135 401 175 c 0xf8
 401 220 369 248 334 272 c 1
 285 41 l 1
EndSplineSet
Validated: 1
EndChar

StartChar: percent
Encoding: 37 37 6
Width: 832
Flags: W
HStem: -11 56<557.928 649.482> 290 60<237.372 317.511> 327 57<693.011 782.58> 588 46<516.461 651.105> 636 54<373.26 449.242> 683 20G<706.5 803>
VStem: 137 97<353.289 468.132> 459 96<48.6264 152.135> 469 47<508.257 591> 790 52<203.491 320.408>
DStem2: 178 -11 255 -11 0.608851 0.793284<46.8815 776.465 823.3 901.273>
LayerCount: 2
Fore
SplineSet
137 393 m 0xd6c0
 137 535 301 690 423 690 c 0xdac0
 513 690 476 634 571 634 c 0
 627 634 685 659 728 703 c 1
 803 703 l 1
 255 -11 l 1
 178 -11 l 1
 652 604 l 1
 617 593 582 588 553 588 c 0
 539 588 527 589 516 591 c 1
 516 579 516 565 514 554 c 0
 484 412 334 290 242 290 c 0
 172 290 137 328 137 393 c 0xd6c0
459 86 m 0xb340
 459 238 627 384 747 384 c 0
 811 384 842 338 842 288 c 0
 842 280 841 271 839 263 c 0
 804 98 665 -11 574 -11 c 0
 487 -11 459 29 459 86 c 0xb340
272 350 m 1xdac0
 379 360 469 514 469 590 c 0
 469 595 468 600 468 605 c 1
 440 616 431 636 416 636 c 0
 381 636 264 541 237 412 c 0
 235 403 234 394 234 387 c 0
 234 364 244 350 272 350 c 1xdac0
597 45 m 0
 692 45 790 211 790 276 c 0
 790 302 777 327 746 327 c 0
 659 327 555 140 555 83 c 0xb340
 555 59 568 45 597 45 c 0
EndSplineSet
Validated: 1
EndChar

StartChar: ampersand
Encoding: 38 38 7
Width: 777
Flags: W
HStem: -11 97<594.144 676.484> -11 79<167 327.566> 412 41<578 624.833 743.093 810> 647 56<443.254 538.778>
VStem: 60 124<103.004 206.94> 297 113<449.778 577.454> 549 77<530.607 637.455>
LayerCount: 2
Fore
SplineSet
512 214 m 1x7e
 577 276 627 348 627 382 c 0
 627 399 613 408 570 412 c 1
 578 453 l 1
 818 453 l 1
 810 412 l 1
 703 397 726 363 543 164 c 1
 571 123 603 86 662 86 c 0
 697 86 728 106 762 146 c 1
 794 120 l 1
 717 31 669 -11 597 -11 c 0xbe
 529 -11 483 31 445 75 c 1
 377 25 294 -11 218 -11 c 0
 116 -11 60 34 60 115 c 0
 60 268 233 363 306 398 c 1
 301 424 297 450 297 477 c 0
 297 617 406 703 504 703 c 0
 574 703 626 667 626 601 c 0
 626 518 559 444 437 393 c 1
 457 330 482 270 512 214 c 1x7e
422 449 m 1
 489 479 549 534 549 591 c 0
 549 622 530 647 497 647 c 0
 428 647 410 575 410 534 c 0
 410 505 416 472 422 449 c 1
319 341 m 1
 306 334 184 270 184 165 c 0
 184 113 223 68 277 68 c 0x7e
 312 68 368 91 413 121 c 1
 373 189 345 264 319 341 c 1
EndSplineSet
Validated: 1
EndChar

StartChar: quotesingle
Encoding: 39 39 8
Width: 179
Flags: W
HStem: 442 265<189.999 205>
VStem: 173 114<601.25 688.976>
LayerCount: 2
Fore
SplineSet
284 650 m 2
 205 442 l 1
 163 442 l 1
 173 650 l 1
 173 679 208 707 241 707 c 0
 266 707 287 686 287 664 c 0
 287 659 286 655 284 650 c 2
EndSplineSet
Validated: 1
EndChar

StartChar: parenleft
Encoding: 40 40 9
Width: 333
Flags: W
VStem: 82 101<26.2125 271.733>
LayerCount: 2
Fore
SplineSet
290 -147 m 1
 257 -181 l 1
 158 -104 82 4 82 159 c 0
 82 374 209 574 450 707 c 1
 463 667 l 1
 302 571 238 432 206 281 c 0
 193 219 183 161 183 104 c 0
 183 14 209 -70 290 -147 c 1
EndSplineSet
Validated: 1
EndChar

StartChar: parenright
Encoding: 41 41 10
Width: 333
Flags: W
VStem: 261 100<248.913 499.909>
LayerCount: 2
Fore
SplineSet
361 360 m 0
 361 89 165 -92 -3 -181 c 1
 -19 -146 l 1
 144 -48 206 91 238 241 c 0
 251 303 261 364 261 422 c 0
 261 516 235 602 154 668 c 1
 188 705 l 1
 226 683 361 573 361 360 c 0
EndSplineSet
Validated: 1
EndChar

StartChar: asterisk
Encoding: 42 42 11
Width: 499
Flags: W
HStem: 346 107<155.164 215.92 440.659 522.625> 518 103<181.75 267.598 482.422 549.375> 690 20G<378.5 417>
VStem: 268 96<269.939 353.952> 346 94<605.479 698.8>
LayerCount: 2
Fore
SplineSet
539 405 m 0xe8
 539 382 513 346 482 346 c 0
 461 346 443 361 433 379 c 1
 418 402 402 418 367 447 c 1
 365 430 364 416 364 403 c 0
 364 374 368 354 368 335 c 0
 368 299 350 257 307 257 c 0
 278 257 268 273 268 294 c 0xf0
 268 339 293 333 324 447 c 1
 275 421 252 404 230 379 c 1
 211 362 187 347 166 347 c 0
 141 347 128 370 128 389 c 0
 128 415 161 443 203 455 c 1
 230 459 265 468 304 485 c 1
 268 507 244 515 218 518 c 1
 193 523 166 538 166 563 c 0
 166 582 189 621 223 621 c 0
 271 621 283 566 340 521 c 1
 345 552 346 573 346 588 c 0
 346 615 342 625 342 640 c 0
 342 665 354 710 403 710 c 0
 431 710 440 693 440 673 c 0
 440 633 415 612 383 521 c 1
 453 564 486 623 538 623 c 0
 562 623 576 603 576 583 c 0
 576 545 530 526 501 522 c 1
 471 516 443 504 393 484 c 1
 429 467 464 459 489 453 c 0
 512 447 539 430 539 405 c 0xe8
EndSplineSet
Validated: 1
EndChar

StartChar: plus
Encoding: 43 43 12
Width: 563
Flags: W
HStem: 241 89<88 289 396 596>
DStem2: 242 20 330 20 0.207912 0.978148<18.2962 225.942 335.244 539.748>
LayerCount: 2
Fore
SplineSet
596 241 m 1
 377 241 l 1
 330 20 l 1
 242 20 l 1
 289 241 l 1
 69 241 l 1
 88 330 l 1
 308 330 l 1
 354 548 l 1
 442 548 l 1
 396 330 l 1
 615 330 l 1
 596 241 l 1
EndSplineSet
Validated: 1
EndChar

StartChar: comma
Encoding: 44 44 13
Width: 250
Flags: W
HStem: -2 131<90.6387 149.999>
VStem: 150 72<-21.0691 70.5>
LayerCount: 2
Fore
SplineSet
61 44 m 0
 61 67 79 129 150 129 c 0
 203 129 222 91 222 50 c 0
 222 -50 97 -128 54 -143 c 1
 43 -103 l 1
 85 -84 144 -35 150 -5 c 0
 150 -3 149 -2 147 -2 c 0
 138 -2 123 -5 114 -5 c 0
 84 -2 61 15 61 44 c 0
EndSplineSet
Validated: 1
EndChar

StartChar: hyphen
Encoding: 45 45 14
Width: 333
Flags: W
HStem: 241 88<101 352>
VStem: 82 289
LayerCount: 2
Fore
SplineSet
352 241 m 1
 82 241 l 1
 101 329 l 1
 371 329 l 1
 352 241 l 1
EndSplineSet
Validated: 1
EndChar

StartChar: period
Encoding: 46 46 15
Width: 250
Flags: W
HStem: -11 140<98.5701 178.102>
VStem: 66 143<18.3511 95.9553>
LayerCount: 2
Fore
SplineSet
209 74 m 0
 209 27 168 -11 122 -11 c 0
 90 -11 66 16 66 46 c 0
 66 85 108 129 151 129 c 0
 185 129 209 107 209 74 c 0
EndSplineSet
Validated: 1
EndChar

StartChar: slash
Encoding: 47 47 16
Width: 278
Flags: W
HStem: 690 20G<370.386 470>
DStem2: -51 -104 38 -104 0.468785 0.883312<41.7219 921.531>
LayerCount: 2
Fore
SplineSet
470 710 m 1
 38 -104 l 1
 -51 -104 l 1
 381 710 l 1
 470 710 l 1
EndSplineSet
Validated: 1
EndChar

StartChar: zero
Encoding: 48 48 17
Width: 537
Flags: W
HStem: -14 52<225.751 336.636> 650 50<351.563 456.862>
VStem: 88 109<90.5247 318.763> 481 111<354.936 595.826>
LayerCount: 2
Fore
SplineSet
592 472 m 0
 592 278 476 -14 258 -14 c 0
 145 -14 88 79 88 215 c 0
 88 396 194 700 415 700 c 0
 535 700 592 608 592 472 c 0
456 338 m 0
 471 410 481 476 481 529 c 0
 481 602 462 650 410 650 c 0
 302 650 254 485 220 326 c 0
 207 267 197 207 197 157 c 0
 197 88 217 38 277 38 c 0
 384 38 425 192 456 338 c 0
EndSplineSet
Validated: 1
EndChar

StartChar: one
Encoding: 49 49 18
Width: 537
Flags: W
HStem: 0 37<137 221.464 358.832 427>
DStem2: 223.445 0 333.445 0 0.207912 0.978148<100.111 576.818>
LayerCount: 2
Fore
SplineSet
427 0 m 1
 129 0 l 1
 137 37 l 1
 218 43 235 55 243 92 c 2
 338 541 l 2
 340 551 341 559 341 565 c 0
 341 580 335 585 324 585 c 0
 307 585 280 574 239 561 c 1
 247 599 l 1
 483 708 l 1
 353 92 l 2
 352 86 351 80 351 75 c 0
 351 51 370 42 435 37 c 1
 427 0 l 1
EndSplineSet
Validated: 1
EndChar

StartChar: two
Encoding: 50 50 19
Width: 537
Flags: W
HStem: 0 101<201 450> 604 96<313.213 464.322>
VStem: 453 119<457.481 569.224>
DStem2: 259 214 201 101 0.752354 0.658759<-118.076 206.046>
LayerCount: 2
Fore
SplineSet
546 155 m 1
 450 0 l 1
 40 0 l 1
 50 31 l 1
 259 214 l 2
 320 267 453 389 453 506 c 0
 453 566 414 604 346 604 c 0
 274 604 224 542 183 470 c 1
 143 484 l 1
 193 613 290 700 418 700 c 0
 509 700 572 637 572 552 c 0
 572 430 461 324 372 247 c 2
 201 101 l 1
 385 101 l 2
 453 101 460 104 519 172 c 1
 546 155 l 1
EndSplineSet
Validated: 1
EndChar

StartChar: three
Encoding: 51 51 20
Width: 537
Flags: W
HStem: -11 60<161 308.502> 333 36<241 289.213> 619 84<315.699 423.467>
VStem: 414 107<179.278 290.233> 444 111<512.034 599.517>
LayerCount: 2
Fore
SplineSet
521 287 m 0xf0
 521 108 357 -11 181 -11 c 0
 141 -11 66 -4 66 46 c 0
 66 75 88 104 126 104 c 0
 176 104 197 49 257 49 c 0
 347 49 414 133 414 227 c 0xf0
 414 300 361 333 235 333 c 1
 241 369 l 1
 428 421 444 512 444 548 c 0
 444 592 413 619 364 619 c 0
 302 619 251 584 198 513 c 1
 163 524 l 1
 227 641 312 703 413 703 c 0
 511 703 555 658 555 593 c 0xe8
 555 488 458 430 441 419 c 1
 493 390 521 350 521 287 c 0xf0
EndSplineSet
Validated: 1
EndChar

StartChar: four
Encoding: 52 52 21
Width: 537
Flags: W
HStem: 0 21G<303 408.204> 157 87<150 336 456 538> 670 20G<466.766 551>
DStem2: 72 237 150 244 0.673728 0.73898<57.7236 449.022> 303 0 404 0 0.207912 0.978148<20.9991 160.43 270.479 542.89>
LayerCount: 2
Fore
SplineSet
538 157 m 1
 437 157 l 1
 404 0 l 1
 303 0 l 1
 336 157 l 1
 55 157 l 1
 72 237 l 1
 485 690 l 1
 551 690 l 1
 456 244 l 1
 557 244 l 1
 538 157 l 1
355 244 m 1
 416 531 l 1
 150 244 l 1
 355 244 l 1
EndSplineSet
Validated: 1
EndChar

StartChar: five
Encoding: 53 53 22
Width: 537
Flags: W
HStem: -11 60<149 301.855> 585 105<336 545>
VStem: 416 106<200.079 325.676>
LayerCount: 2
Fore
SplineSet
522 320 m 0
 522 122 361 -11 178 -11 c 0
 120 -11 54 2 54 50 c 0
 54 87 84 112 124 112 c 0
 187 112 196 49 250 49 c 0
 350 49 416 164 416 251 c 0
 416 368 293 408 186 415 c 1
 173 418 167 426 167 435 c 0
 167 441 169 440 169 444 c 1
 336 690 l 1
 540 690 l 2
 566 690 572 690 603 719 c 1
 625 700 l 1
 545 585 l 1
 336 585 l 1
 292 522 l 1
 421 499 522 457 522 320 c 0
EndSplineSet
Validated: 1
EndChar

StartChar: six
Encoding: 54 54 23
Width: 537
Flags: W
HStem: -11 52<248.434 362.268> 386 69<305.647 407.644> 670 40<544.721 626>
VStem: 97 112<90.2007 305.531> 439 120<182.866 354.126>
LayerCount: 2
Fore
SplineSet
559 298 m 0
 559 141 440 -11 284 -11 c 0
 174 -11 97 64 97 199 c 0
 97 415 273 661 558 702 c 1
 574 703 593 710 630 710 c 1
 626 670 l 1
 582 659 552 657 515 641 c 0
 428 604 332 538 282 422 c 1
 321 442 360 455 401 455 c 0
 504 455 559 397 559 298 c 0
310 41 m 0
 397 41 439 181 439 270 c 0
 439 332 418 386 349 386 c 0
 322 386 275 374 249 352 c 1
 222 310 209 216 209 176 c 0
 209 95 241 41 310 41 c 0
EndSplineSet
Validated: 1
EndChar

StartChar: seven
Encoding: 55 55 24
Width: 537
Flags: W
HStem: -11 21G<173 275.7> 590 100<242 500>
DStem2: 173 -11 265 -11 0.471747 0.881734<43.4007 684.183>
LayerCount: 2
Fore
SplineSet
624 660 m 1
 265 -11 l 1
 173 -11 l 1
 500 590 l 1
 312 590 l 2
 245 590 228 573 174 507 c 1
 141 525 l 1
 242 690 l 1
 631 690 l 1
 624 660 l 1
EndSplineSet
Validated: 1
EndChar

StartChar: eight
Encoding: 56 56 25
Width: 537
Flags: W
HStem: -11 49<225.497 351.557> 653 50<336.147 461.944>
VStem: 96 101<66.0599 212.476> 181 106<480.889 583.105> 408 110<121.078 227.941> 482 95<504.092 632.517>
LayerCount: 2
Fore
SplineSet
518 207 m 0xc8
 518 87 400 -11 264 -11 c 0
 171 -11 96 38 96 129 c 0xe8
 96 244 205 312 260 347 c 1
 220 396 181 429 181 497 c 0
 181 621 298 703 422 703 c 0
 499 703 577 663 577 583 c 0xd4
 577 465 446 401 415 386 c 1
 464 338 518 284 518 207 c 0xc8
370 419 m 1
 465 472 482 546 482 578 c 0
 482 623 453 653 403 653 c 0
 342 653 287 606 287 544 c 0xd4
 287 490 333 448 370 419 c 1
289 38 m 0
 361 38 408 106 408 164 c 0
 408 231 344 274 298 312 c 1
 298 312 197 248 197 134 c 0xe8
 197 78 225 38 289 38 c 0
EndSplineSet
Validated: 1
EndChar

StartChar: nine
Encoding: 57 57 26
Width: 537
Flags: W
HStem: -20 43<71 148.874> 240 67<279.683 382.707> 653 50<338.097 447.139>
VStem: 132 122<334.26 505.524> 477 113<389.941 604.12>
LayerCount: 2
Fore
SplineSet
132 398 m 0
 132 538 244 703 416 703 c 0
 527 703 590 615 590 491 c 0
 590 223 312 -20 68 -20 c 1
 71 23 l 1
 144 35 239 61 321 147 c 0
 359 186 395 232 421 280 c 1
 372 253 326 240 284 240 c 0
 190 240 132 298 132 398 c 0
392 653 m 0
 295 653 254 498 254 413 c 0
 254 357 273 307 338 307 c 0
 366 307 419 326 444 350 c 1
 457 385 477 474 477 535 c 0
 477 597 459 653 392 653 c 0
EndSplineSet
Validated: 1
EndChar

StartChar: colon
Encoding: 58 58 27
Width: 278
Flags: W
HStem: -8 140<113.378 193.32> 392 139<198.423 279.178>
VStem: 83 142<22.9773 100.762> 167 143<422.814 499.602>
LayerCount: 2
Fore
SplineSet
310 476 m 0xd0
 310 434 272 392 223 392 c 0
 188 392 167 417 167 446 c 0
 167 484 202 531 253 531 c 0
 285 531 310 509 310 476 c 0xd0
225 77 m 0xe0
 225 34 186 -8 138 -8 c 0
 103 -8 83 18 83 48 c 0
 83 86 119 132 168 132 c 0
 200 132 225 110 225 77 c 0xe0
EndSplineSet
Validated: 1
EndChar

StartChar: semicolon
Encoding: 59 59 28
Width: 278
Flags: W
HStem: -2 131<105.955 164.999> 392 139<197.6 273.563>
VStem: 165 72<-22.1061 69.5> 166 143<427.419 500.526>
LayerCount: 2
Fore
SplineSet
309 475 m 0xd0
 309 434 258 392 223 392 c 0
 187 392 166 419 166 449 c 0
 166 497 216 531 253 531 c 0
 284 531 309 506 309 475 c 0xd0
77 44 m 0
 77 67 94 129 165 129 c 0
 216 129 237 91 237 48 c 0
 237 -49 113 -128 70 -143 c 1
 58 -103 l 1
 100 -84 159 -35 165 -5 c 0xe0
 165 -3 164 -2 163 -2 c 0
 154 -2 139 -5 130 -5 c 0
 99 -2 77 15 77 44 c 0
EndSplineSet
Validated: 1
EndChar

StartChar: less
Encoding: 60 60 29
Width: 563
Flags: W
DStem2: 190 261 63 226 0.891816 -0.452397<0 418.603> 78 295 190 261 0.921813 0.387634<90.0635 582.605>
LayerCount: 2
Fore
SplineSet
544 -18 m 1
 63 226 l 1
 78 295 l 1
 663 541 l 1
 644 452 l 1
 190 261 l 1
 563 71 l 1
 544 -18 l 1
EndSplineSet
Validated: 1
EndChar

StartChar: equal
Encoding: 61 61 30
Width: 563
Flags: W
HStem: 120 89<62 571> 313 89<103 612>
LayerCount: 2
Fore
SplineSet
612 313 m 1
 85 313 l 1
 103 402 l 1
 630 402 l 1
 612 313 l 1
571 120 m 1
 44 120 l 1
 62 209 l 1
 589 209 l 1
 571 120 l 1
EndSplineSet
Validated: 1
EndChar

StartChar: greater
Encoding: 62 62 31
Width: 563
Flags: W
HStem: -3 21G<18.2697 61.9508>
DStem2: 33 86 14 -3 0.922937 0.384951<0 491.231> 133 556 114 467 0.890318 -0.455339<23.6092 441.777>
LayerCount: 2
Fore
SplineSet
599 241 m 1
 14 -3 l 1
 33 86 l 1
 486 276 l 1
 114 467 l 1
 133 556 l 1
 614 310 l 1
 599 241 l 1
EndSplineSet
Validated: 1
EndChar

StartChar: question
Encoding: 63 63 32
Width: 443
Flags: W
HStem: -14 140<190.337 266.396> 647 53<267.927 385.899>
VStem: 150 91<499.818 596.486> 157 142<17.6903 92.2849> 230 40<164 204.517> 406 118<481.48 627.389>
LayerCount: 2
Fore
SplineSet
333 647 m 0xcc
 302 647 241 624 241 590 c 0
 241 571 264 564 264 536 c 0
 264 496 231 470 194 470 c 0
 161 470 150 496 150 524 c 0xe4
 150 613 250 700 366 700 c 0
 471 700 524 635 524 563 c 0
 524 491 469 417 401 355 c 1
 335 293 295 230 270 164 c 1
 230 164 l 1
 268 344 406 429 406 564 c 0
 406 610 385 647 333 647 c 0xcc
299 68 m 0xd4
 299 25 253 -14 214 -14 c 0
 182 -14 157 11 157 42 c 0
 157 85 204 126 244 126 c 0
 273 126 299 101 299 68 c 0xd4
EndSplineSet
Validated: 1
EndChar

StartChar: at
Encoding: 64 64 33
Width: 920
Flags: W
HStem: -155 64<346.718 611.773> -22 20G<720.5 771> 41 68<378.5 490.691 660.72 747.563> 427 71<561.596 647.289> 636 63<524.094 742.891>
VStem: 89 117<43.784 293.143> 303 116<112.179 243.48> 894 68<301.105 495.393>
LayerCount: 2
Fore
SplineSet
962 423 m 0
 962 221 790 40 668 40 c 0
 634 40 575 49 561 109 c 1
 513 66 450 41 410 41 c 0
 347 41 303 72 303 144 c 0
 303 306 481 498 616 498 c 0
 657 498 683 478 696 455 c 1
 710 484 l 1
 822 484 l 1
 666 154 l 2
 663 147 660 142 660 133 c 0
 660 116 674 108 690 108 c 0
 763 108 894 253 894 399 c 0
 894 543 771 636 636 636 c 0
 430 636 254 427 218 261 c 0
 211 228 206 193 206 157 c 0
 206 33 263 -91 476 -91 c 0
 569 -91 688 -55 753 -2 c 1
 771 -14 l 1
 736 -81 l 1
 736 -81 621 -155 460 -155 c 0
 277 -155 89 -63 89 166 c 0
 89 197 92 232 100 269 c 0
 137 441 335 699 650 699 c 0
 766 699 962 629 962 423 c 0
546 166 m 0
 547 167 650 301 650 386 c 0
 650 417 636 427 616 427 c 0
 566 427 457 344 424 187 c 0
 421 172 419 159 419 148 c 0
 419 122 430 109 456 109 c 0
 487 109 533 147 546 166 c 0
EndSplineSet
Validated: 1
EndChar

StartChar: A
Encoding: 65 65 34
Width: 721
Flags: W
HStem: 0 45<12 70.0688 172.081 226 448 518.628 671.2 717> 217 64<295 489> 670 20G<469.375 530.424>
DStem2: 179 210 255 217 0.533794 0.845614<-122.574 46.4877 121.959 395.008> 526 690 439 513 0.216001 -0.976393<154.03 391.353 456.002 590.447>
LayerCount: 2
Fore
SplineSet
255 217 m 1
 231 174 172 98 172 68 c 0
 172 48 200 45 236 45 c 1
 226 0 l 1
 3 0 l 1
 12 43 l 1
 82 49 121 120 179 210 c 1
 482 690 l 1
 526 690 l 1
 649 134 l 2
 662 78 664 45 727 45 c 1
 717 0 l 1
 438 0 l 1
 448 45 l 1
 496 47 523 53 523 84 c 0
 523 97 519 115 514 138 c 2
 499 217 l 1
 255 217 l 1
489 281 m 1
 439 513 l 1
 295 281 l 1
 489 281 l 1
EndSplineSet
Validated: 1
EndChar

StartChar: B
Encoding: 66 66 35
Width: 666
Flags: W
HStem: 0 61<250.697 425.566> 0 45<18 109.182> 326 64<313 463.799> 625 65<358.501 521.622> 645 45<155 227.165>
VStem: 513 140<145.134 283.119> 558 128<461.077 591.39>
DStem2: 104.445 0 229.707 0 0.207912 0.978148<117.502 359.326 424.839 620.118>
LayerCount: 2
Fore
SplineSet
653 231 m 0x34
 653 138 574 0 335 0 c 2xb4
 8 0 l 1
 18 45 l 1
 99 45 118 68 124 92 c 2
 231 598 l 2
 232 601 232 604 232 607 c 0
 232 627 215 645 145 645 c 1
 155 690 l 1x6c
 434 690 l 2
 580 690 686 651 686 547 c 0x32
 686 490 658 401 550 361 c 1
 608 339 653 296 653 231 c 0x34
383 390 m 2
 520 390 558 478 558 537 c 0x32
 558 606 495 625 419 625 c 0
 379 625 361 618 357 598 c 2
 313 390 l 1
 383 390 l 2
510 197 m 0
 512 208 513 218 513 227 c 0
 513 312 417 326 336 326 c 2
 299 326 l 1
 252 103 l 2
 251 98 250 93 250 89 c 0
 250 70 264 61 313 61 c 0xa4
 409 61 487 89 510 197 c 0
EndSplineSet
Validated: 1
EndChar

StartChar: C
Encoding: 67 67 36
Width: 666
Flags: W
HStem: -14 69<310.582 491.718> 634 66<418.883 605.82>
VStem: 84 140<149.487 381.73> 687 45<450 488.733> 736 41<673.251 699>
LayerCount: 2
Fore
SplineSet
519 634 m 0
 293 634 224 367 224 256 c 0
 224 149 273 55 398 55 c 0
 493 55 562 86 656 163 c 1
 677 123 l 1
 592 38 473 -14 373 -14 c 0
 201 -14 84 80 84 250 c 0
 84 484 272 700 524 700 c 0
 610 700 652 661 686 661 c 0
 704 661 719 671 736 699 c 1
 777 699 l 1
 732 450 l 1
 687 450 l 1
 680 562 628 634 519 634 c 0
EndSplineSet
Validated: 1
EndChar

StartChar: D
Encoding: 68 68 37
Width: 721
Flags: W
HStem: 0 65<244.446 420.338> 0 45<18 100.92> 627 63<352.599 524.241> 645 45<155 218.706>
VStem: 649 134<298.281 513.979>
DStem2: 94.8912 0 223.017 0 0.207912 0.978148<121.129 621.211>
LayerCount: 2
Fore
SplineSet
783 432 m 0x28
 783 274 684 0 286 0 c 2xa8
 8 0 l 1
 18 45 l 1
 91 45 109 68 115 92 c 2
 222 598 l 2
 223 601 223 605 223 608 c 0
 223 627 208 645 145 645 c 1
 155 690 l 1x58
 425 690 l 2
 652 690 783 605 783 432 c 0x28
294 65 m 0
 546 65 649 265 649 419 c 0
 649 557 551 627 400 627 c 0
 363 627 356 627 348 588 c 2
 245 103 l 2
 244 99 244 95 244 92 c 0
 244 66 269 65 294 65 c 0
EndSplineSet
Validated: 1
EndChar

StartChar: E
Encoding: 69 69 38
Width: 609
Flags: W
HStem: 0 66<232.001 496.631> 0 45<10 93.3398> 326 66<298 489.264> 624 66<343.432 596.889> 645 45<147 211.513>
VStem: 504 44<229 257.624> 559 44<454.164 487> 621 44<522 554.667>
DStem2: 88.4448 0 215.445 0 0.207912 0.978148<105.349 359.534 427.003 620.118>
LayerCount: 2
Fore
SplineSet
654 194 m 1xb7
 561 0 l 1
 0 0 l 1
 10 45 l 1
 82 45 102 68 108 92 c 2
 215 598 l 2
 216 601 216 604 216 607 c 0
 216 627 200 645 137 645 c 1
 147 690 l 1
 701 690 l 1x6f
 665 522 l 1
 621 522 l 1
 621 581 601 624 540 624 c 2
 379 624 l 2
 362 624 346 614 342 598 c 2
 298 392 l 1
 426 392 l 2
 485 392 541 406 559 487 c 1
 603 487 l 1
 548 229 l 1
 504 229 l 1
 506 240 507 250 507 258 c 0
 507 314 463 326 412 326 c 2
 284 326 l 1
 235 92 l 2
 234 87 232 81 232 77 c 0
 232 71 234 66 241 66 c 2
 373 66 l 2
 449 66 522 68 602 194 c 1
 654 194 l 1xb7
EndSplineSet
Validated: 1
EndChar

StartChar: F
Encoding: 70 70 39
Width: 556
Flags: W
HStem: 0 45<10 93.3398 237.986 304> 326 66<298 479.703> 624 66<343.009 607.623> 645 45<147 211.513>
VStem: 494 47<229 258.577> 549 47<454.164 487> 619 48<522 548.624>
DStem2: 88.4448 0 215.445 0 0.207912 0.978148<109.675 359.534 427.003 620.118>
LayerCount: 2
Fore
SplineSet
667 522 m 1xde
 619 522 l 1
 620 532 621 541 621 549 c 0
 621 619 583 624 536 624 c 2
 377 624 l 2xee
 354 624 345 613 342 598 c 2
 298 392 l 1
 416 392 l 2
 476 392 531 406 549 487 c 1
 596 487 l 1
 541 229 l 1
 494 229 l 1
 496 240 497 250 497 259 c 0
 497 314 454 326 402 326 c 2
 284 326 l 1
 235 92 l 2
 234 88 234 85 234 81 c 0
 234 62 250 45 314 45 c 1
 304 0 l 1
 0 0 l 1
 10 45 l 1
 82 45 102 68 108 92 c 2
 215 598 l 2
 216 601 216 604 216 607 c 0
 216 627 200 645 137 645 c 1
 147 690 l 1
 703 690 l 1
 667 522 l 1xde
EndSplineSet
Validated: 1
EndChar

StartChar: G
Encoding: 71 71 40
Width: 721
Flags: W
HStem: -14 66<311.536 513.609> 336 45<517 579.011 720.646 787> 636 64<414.463 608.77>
VStem: 78 139<148.905 382.681> 692 43<464 503.333>
DStem2: 520.76 -14 642.058 -14 0.207912 0.978148<87.7423 314.003>
LayerCount: 2
Fore
SplineSet
514 636 m 0
 291 636 217 368 217 254 c 0
 217 141 275 52 406 52 c 0
 441 52 482 58 517 72 c 0
 542 83 543 88 548 111 c 2
 579 260 l 2
 582 273 584 285 584 294 c 0
 584 321 568 336 507 336 c 1
 517 381 l 1
 797 381 l 1
 787 336 l 1
 719 336 710 307 700 260 c 2
 658 61 l 1
 587 26 462 -14 379 -14 c 0
 225 -14 78 72 78 256 c 0
 78 480 268 700 519 700 c 0
 596 700 646 665 684 665 c 0
 703 665 719 674 734 700 c 1
 777 700 l 1
 735 464 l 1
 692 464 l 1
 676 573 627 636 514 636 c 0
EndSplineSet
Validated: 1
EndChar

StartChar: H
Encoding: 72 72 41
Width: 721
Flags: W
HStem: 0 45<18 100.92 245.469 310 422 506.287 650.104 714> 321 66<305 569> 645 45<150 218.595 364.652 447 559 624.321 768.931 851>
DStem2: 95.4448 0 223.445 0 0.207912 0.978148<109.883 354.644 422.112 621.096> 500.769 0 627.445 0 0.207912 0.978148<109.608 328.171 395.64 620.259>
LayerCount: 2
Fore
SplineSet
714 0 m 1
 412 0 l 1
 422 45 l 1
 495 45 515 68 521 92 c 2
 569 321 l 1
 291 321 l 1
 243 92 l 2
 242 88 242 85 242 81 c 0
 242 61 258 45 320 45 c 1
 310 0 l 1
 8 0 l 1
 18 45 l 1
 91 45 109 68 115 92 c 2
 222 598 l 2
 223 601 223 605 223 608 c 0
 223 627 208 645 140 645 c 1
 150 690 l 1
 457 690 l 1
 447 645 l 1
 374 645 355 621 350 598 c 2
 305 387 l 1
 583 387 l 1
 628 598 l 2
 629 601 629 604 629 607 c 0
 629 627 612 645 549 645 c 1
 559 690 l 1
 861 690 l 1
 851 645 l 1
 779 645 759 621 754 598 c 2
 647 92 l 2
 646 88 646 85 646 81 c 0
 646 62 663 45 724 45 c 1
 714 0 l 1
EndSplineSet
Validated: 1
EndChar

StartChar: I
Encoding: 73 73 42
Width: 333
Flags: W
HStem: 0 45<16 109.076 253.485 329> 645 45<153 227.12 372.925 466>
DStem2: 103.891 0 229.891 0 0.207912 0.978148<110.516 620.233>
LayerCount: 2
Fore
SplineSet
329 0 m 1
 6 0 l 1
 16 45 l 1
 99 45 118 68 124 92 c 2
 231 598 l 2
 232 601 232 604 232 607 c 0
 232 627 215 645 143 645 c 1
 153 690 l 1
 476 690 l 1
 466 645 l 1
 383 645 362 621 357 598 c 2
 250 92 l 2
 249 89 249 85 249 82 c 0
 249 62 267 45 339 45 c 1
 329 0 l 1
EndSplineSet
Validated: 1
EndChar

StartChar: J
Encoding: 74 74 43
Width: 388
Flags: W
HStem: -14 63<66 172.31> 645 45<213 287.12 432.925 526>
VStem: 12 124<49.4901 107.861>
DStem2: 160.915 -14 286.915 -14 0.207912 0.978148<129.724 634.546>
LayerCount: 2
Fore
SplineSet
136 93 m 0
 136 84 132 82 132 71 c 0
 132 59 136 49 145 49 c 0
 170 49 183 91 191 126 c 2
 291 598 l 2
 292 601 292 604 292 607 c 0
 292 627 275 645 203 645 c 1
 213 690 l 1
 536 690 l 1
 526 645 l 1
 443 645 422 621 417 598 c 2
 335 210 l 2
 303 60 207 -14 109 -14 c 0
 23 -14 12 37 12 61 c 0
 12 98 51 132 86 132 c 0
 121 132 136 108 136 93 c 0
EndSplineSet
Validated: 1
EndChar

StartChar: K
Encoding: 75 75 44
Width: 721
Flags: W
HStem: 0 45<18 103.498 247.335 315 402 472.988 659.477 720> 645 45<155 221.469 366.508 453 534 588.974 713.736 810>
DStem2: 98.4448 0 224.445 0 0.207912 0.978148<110.401 338.932 424.839 620.118> 419 390 304 315 0.582557 -0.81279<0 299.023>
LayerCount: 2
Fore
SplineSet
307 390 m 1
 407 464 589 590 589 630 c 0
 589 652 553 644 525 647 c 1
 534 690 l 1
 820 690 l 1
 810 645 l 1
 727 645 683 608 627 562 c 2
 419 390 l 1
 586 157 l 1
 623 101 651 45 730 45 c 1
 720 0 l 1
 392 0 l 1
 402 45 l 1
 457 45 473 48 473 60 c 0
 473 76 438 144 374 224 c 1
 304 315 l 1
 289 306 l 1
 244 92 l 2
 243 89 243 85 243 82 c 0
 243 62 261 45 325 45 c 1
 315 0 l 1
 8 0 l 1
 18 45 l 1
 93 45 112 68 118 92 c 2
 225 598 l 2
 226 601 226 604 226 607 c 0
 226 627 210 645 145 645 c 1
 155 690 l 1
 463 690 l 1
 453 645 l 1
 377 645 356 621 351 598 c 2
 307 390 l 1
EndSplineSet
Validated: 1
EndChar

StartChar: L
Encoding: 76 76 45
Width: 609
Flags: W
HStem: 0 66<235 493.682> 0 45<10 93.3398> 645 45<147 211.513 356.712 440>
DStem2: 88.4448 0 215.445 0 0.207912 0.978148<116.548 620.118>
LayerCount: 2
Fore
SplineSet
656 198 m 1xa0
 559 0 l 1
 0 0 l 1
 10 45 l 1x60
 82 45 102 68 108 92 c 2
 215 598 l 2
 216 601 216 604 216 607 c 0
 216 627 200 645 137 645 c 1
 147 690 l 1
 450 690 l 1
 440 645 l 1
 366 645 347 621 342 598 c 2
 235 92 l 2
 235 90 235 89 235 88 c 0
 235 69 267 66 317 66 c 2
 345 66 l 2
 450 66 528 71 607 198 c 1
 656 198 l 1xa0
EndSplineSet
Validated: 1
EndChar

StartChar: M
Encoding: 77 77 46
Width: 887
Flags: W
HStem: 0 45<18 109.182 195.447 269 591 673.656 817.123 882> 645 45<156 227.187 935.712 1019>
DStem2: 104.445 0 172.445 0 0.207912 0.978148<98.3422 530.257> 374 690 279 505 0.236646 -0.971596<157.264 505.949> 492 198 432 0 0.550313 0.834958<0 434.026> 667.77 0 793.891 0 0.207912 0.978148<110.541 539.796>
LayerCount: 2
Fore
SplineSet
882 0 m 1
 581 0 l 1
 591 45 l 1
 663 45 682 68 688 92 c 2
 780 528 l 1
 432 0 l 1
 402 0 l 1
 279 505 l 1
 192 92 l 2
 191 89 191 85 191 82 c 0
 191 62 209 45 279 45 c 1
 269 0 l 1
 8 0 l 1
 18 45 l 1
 99 45 118 68 124 92 c 2
 231 598 l 2
 232 601 232 604 232 607 c 0
 232 627 215 645 146 645 c 1
 156 690 l 1
 374 690 l 1
 492 198 l 1
 809 690 l 1
 1029 690 l 1
 1019 645 l 1
 945 645 926 621 921 598 c 2
 814 92 l 2
 813 88 813 85 813 82 c 0
 813 62 830 45 892 45 c 1
 882 0 l 1
EndSplineSet
Validated: 1
EndChar

StartChar: N
Encoding: 78 78 47
Width: 721
Flags: W
HStem: -14 21G<575.308 625.248> 0 45<10 101.865 189.292 263> 645 45<147 206.583 605 677.335 766.468 857>
DStem2: 94.469 -14 163.469 -14 0.207912 0.978148<111.929 558.117> 336 690 276 518 0.504678 -0.863308<118.208 532.734> 551.349 -14 621 -14 0.207912 0.978148<248.429 635.433>
LayerCount: 2
Fore
SplineSet
857 645 m 1x60
 776 645 756 621 751 598 c 2
 621 -14 l 1
 587 -14 l 1xa0
 276 518 l 1
 186 92 l 2
 185 88 185 85 185 81 c 0
 185 62 202 45 273 45 c 1
 263 0 l 1
 0 0 l 1
 10 45 l 1
 91 45 111 68 117 92 c 2
 224 596 l 1
 220 605 l 1
 198 636 194 645 137 645 c 1
 147 690 l 1
 336 690 l 1
 603 229 l 1
 681 598 l 2
 682 601 682 605 682 608 c 0
 682 627 666 645 595 645 c 1
 605 690 l 1
 867 690 l 1
 857 645 l 1x60
EndSplineSet
Validated: 1
EndChar

StartChar: O
Encoding: 79 79 48
Width: 721
Flags: W
HStem: -14 62<287.843 461.477> 639 61<404.04 581.667>
VStem: 85 135<141.938 375.728> 648 134<315.307 547.285>
LayerCount: 2
Fore
SplineSet
782 434 m 0
 782 221 614 -14 358 -14 c 0
 201 -14 85 88 85 255 c 0
 85 458 241 700 510 700 c 0
 670 700 782 601 782 434 c 0
371 48 m 0
 568 48 648 316 648 458 c 0
 648 559 610 639 497 639 c 0
 275 639 220 336 220 229 c 0
 220 108 277 48 371 48 c 0
EndSplineSet
Validated: 1
EndChar

StartChar: P
Encoding: 80 80 49
Width: 556
Flags: W
HStem: 0 45<8 93.2344 237.104 301> 289 63<289 432.358> 627 63<342.692 485.676> 645 45<152 211.795>
VStem: 530 135<448.154 586.58>
DStem2: 88.4448 0 214.445 0 0.207912 0.978148<109.467 327.613 388.94 621.096>
LayerCount: 2
Fore
SplineSet
661 502 m 0xe8
 628 347 483 289 348 289 c 0
 325 289 300 290 276 292 c 1
 234 92 l 2
 233 88 233 85 233 81 c 0
 233 62 250 45 311 45 c 1
 301 0 l 1
 -2 0 l 1
 8 45 l 1
 82 45 102 68 108 92 c 2
 215 598 l 2
 216 601 216 605 216 608 c 0
 216 627 201 645 142 645 c 1
 152 690 l 1xd8
 414 690 l 2
 561 690 665 639 665 537 c 0
 665 526 664 514 661 502 c 0xe8
325 352 m 0
 508 352 530 481 530 528 c 0
 530 607 456 627 377 627 c 0xe8
 348 627 347 624 340 594 c 2
 289 355 l 1
 301 353 313 352 325 352 c 0
EndSplineSet
Validated: 1
EndChar

StartChar: Q
Encoding: 81 81 50
Width: 721
Flags: W
HStem: -177 42<581.249 675> 639 61<404.535 578.611>
VStem: 86 134<129.166 380.969> 648 134<305.197 548.292>
LayerCount: 2
Fore
SplineSet
782 434 m 0
 782 216 612 19 448 -6 c 1
 497 -84 566 -132 684 -135 c 1
 675 -177 l 1
 309 -177 304 -44 257 -5 c 1
 251 5 239 8 232 9 c 0
 132 38 86 141 86 253 c 0
 86 461 244 700 510 700 c 0
 686 700 782 589 782 434 c 0
371 48 m 0
 570 48 648 312 648 454 c 0
 648 573 593 639 497 639 c 0
 275 639 220 336 220 231 c 0
 220 113 274 48 371 48 c 0
EndSplineSet
Validated: 1
EndChar

StartChar: R
Encoding: 82 82 51
Width: 666
Flags: W
HStem: 0 45<10 90.3418 234.968 300 611.157 665> 306 61<290 314> 627 63<341.678 490.603> 645 45<147 208.263>
VStem: 531 134<454.231 591.59>
DStem2: 84.4448 0 212.445 0 0.207912 0.978148<109.883 339.348 401.717 621.096> 453 323 314 307 0.490935 -0.871196<0 298.088>
LayerCount: 2
Fore
SplineSet
665 542 m 0xe8
 665 505 649 361 453 323 c 1
 588 95 l 1
 607 66 623 48 674 43 c 1
 665 0 l 1
 487 0 l 1
 314 307 l 1
 277 306 l 1
 232 92 l 2
 231 88 231 85 231 81 c 0
 231 62 247 45 310 45 c 1
 300 0 l 1
 0 0 l 1
 10 45 l 1
 81 45 98 68 104 92 c 2
 211 598 l 2
 212 601 212 605 212 608 c 0
 212 628 197 645 137 645 c 1
 147 690 l 1xd8
 423 690 l 2
 578 690 665 639 665 542 c 0xe8
527 499 m 0
 529 511 531 522 531 532 c 0
 531 599 477 627 406 627 c 2
 387 627 l 2xe8
 351 627 345 625 338 591 c 2
 290 367 l 1
 418 373 506 401 527 499 c 0
EndSplineSet
Validated: 1
EndChar

StartChar: S
Encoding: 83 83 52
Width: 556
Flags: W
HStem: -14 63<203.139 352.794> 634 66<326.207 466.901>
VStem: 77 45<141.966 226> 165 120<404.5 569.492> 412 133<135.249 233.749> 531 49<462 523.704>
LayerCount: 2
Fore
SplineSet
282 49 m 0xf8
 351 49 412 106 412 174 c 0xf8
 412 308 165 325 165 484 c 0
 165 594 269 700 396 700 c 0
 463 700 497 665 525 665 c 0
 539 665 551 674 565 700 c 1
 607 700 l 1
 580 462 l 1
 531 462 l 1xf4
 529 559 484 634 398 634 c 0
 313 634 285 570 285 537 c 0
 285 426 545 387 545 226 c 0
 545 102 430 -14 277 -14 c 0
 212 -14 169 22 138 22 c 0
 123 22 111 13 101 -14 c 1
 58 -14 l 1
 77 226 l 1
 122 226 l 1
 133 129 182 49 282 49 c 0xf8
EndSplineSet
Validated: 1
EndChar

StartChar: T
Encoding: 84 84 53
Width: 609
Flags: W
HStem: 0 45<164 246.92 390.625 456> 622 68<221.997 373 501 643.28>
VStem: 111 48<495 523.438> 664 46<495 532.917>
DStem2: 241.445 0 369.445 0 0.207912 0.978148<109.631 635.76>
LayerCount: 2
Fore
SplineSet
710 495 m 1
 664 495 l 1
 664 514 l 2
 664 619 625 622 567 622 c 2
 501 622 l 1
 389 92 l 2
 388 88 387 84 387 81 c 0
 387 61 404 45 466 45 c 1
 456 0 l 1
 154 0 l 1
 164 45 l 1
 237 45 255 68 261 92 c 2
 373 622 l 1
 307 622 l 2
 246 622 208 619 159 495 c 1
 111 495 l 1
 159 690 l 1
 746 690 l 1
 710 495 l 1
EndSplineSet
Validated: 1
EndChar

StartChar: U
Encoding: 85 85 54
Width: 721
Flags: W
HStem: -14 69<300.952 477.55> 645 45<152 215.536 359.991 443 608 677.232 764.348 853>
VStem: 137 125<91.8122 306.656>
DStem2: 89.4842 -14 215.185 -14 0.207912 0.978148<215.041 634.428> 551.508 -14 619.508 -14 0.207912 0.978148<149.884 634.423>
LayerCount: 2
Fore
SplineSet
853 645 m 1
 774 645 754 621 749 598 c 2
 682 280 l 2
 656 161 626 69 495 14 c 1
 458 -3 401 -14 356 -14 c 0
 204 -14 137 42 137 163 c 0
 137 193 141 228 149 266 c 2
 219 598 l 2
 220 601 220 604 220 607 c 0
 220 627 204 645 142 645 c 1
 152 690 l 1
 453 690 l 1
 443 645 l 1
 370 645 350 621 345 598 c 2
 273 258 l 2
 266 223 262 193 262 168 c 0
 262 88 301 55 391 55 c 0
 566 55 594 190 614 280 c 1
 681 598 l 2
 682 601 682 604 682 607 c 0
 682 627 665 645 598 645 c 1
 608 690 l 1
 863 690 l 1
 853 645 l 1
EndSplineSet
Validated: 1
EndChar

StartChar: V
Encoding: 86 86 55
Width: 721
Flags: W
HStem: -14 21G<358.326 402.134> 645 45<155 200.226 354.809 435 631 687.773 785.687 850>
DStem2: 375 507 234 538 0.227564 -0.973763<-108.729 310.98> 445 204 390 -14 0.518716 0.854947<0 480.959>
LayerCount: 2
Fore
SplineSet
435 645 m 1
 376 645 354 642 354 615 c 0
 354 589 372 525 375 507 c 1
 445 204 l 1
 647 536 l 2
 661 559 688 602 688 620 c 0
 688 645 653 645 621 645 c 1
 631 690 l 1
 860 690 l 1
 850 645 l 1
 796 645 773 616 751 581 c 2
 390 -14 l 1
 363 -14 l 1
 234 538 l 2
 221 593 211 645 145 645 c 1
 155 690 l 1
 445 690 l 1
 435 645 l 1
EndSplineSet
Validated: 1
EndChar

StartChar: W
Encoding: 87 87 56
Width: 943
Flags: W
HStem: -14 21G<290.188 337.514 620.725 664.275> 645 45<144 188.43 333.606 403 451 509.712 651.732 733 872 924.786 1014.36 1086>
DStem2: 337 573 231 427 0.13922 -0.990261<-37.8087 344.624> 394 233 558 389 0.498915 0.866651<0 217.02> 652 590 558 389 0.161619 -0.986853<183.165 362.327> 714 233 653 -14 0.491094 0.871107<0 439.986>
LayerCount: 2
Fore
SplineSet
697 645 m 2
 660 645 651 639 651 613 c 0
 651 603 652 594 652 590 c 2
 714 233 l 1
 887 533 l 2
 906 566 925 602 925 620 c 0
 925 645 892 644 863 647 c 1
 872 690 l 1
 1095 690 l 1
 1086 647 l 1
 1028 642 1009 631 989 582 c 1
 653 -14 l 1
 624 -14 l 1
 558 389 l 1
 326 -14 l 1
 293 -14 l 1
 231 427 l 1
 199 610 213 635 135 647 c 1
 144 690 l 1
 413 690 l 1
 403 645 l 1
 378 645 l 1
 361 643 332 644 332 611 c 0
 332 600 335 580 337 573 c 2
 394 233 l 1
 538 481 l 1
 535 522 530 570 518 607 c 0
 508 637 487 645 441 645 c 1
 451 690 l 1
 743 690 l 1
 733 645 l 1
 697 645 l 2
EndSplineSet
Validated: 1
EndChar

StartChar: X
Encoding: 88 88 57
Width: 721
Flags: W
HStem: 0 45<10 79.082 197.259 257 406 484.777 658.571 717> 645 45<159 219.664 396.012 475 594 651.986 764.066 847>
DStem2: 190 163 271 154 0.714195 0.699947<-60.2526 230.446 393.874 655.316> 453 476 304 485 0.431817 -0.901961<-154.77 41.1453 153.034 378.123>
LayerCount: 2
Fore
SplineSet
475 645 m 1
 453 645 l 2
 412 645 396 644 396 622 c 0
 396 587 442 498 453 476 c 2
 471 439 l 1
 591 556 l 2
 605 570 652 605 652 629 c 0
 652 643 633 645 614 645 c 2
 584 645 l 1
 594 690 l 1
 857 690 l 1
 847 645 l 1
 767 645 702 582 666 547 c 2
 499 381 l 1
 622 123 l 2
 650 64 672 45 727 45 c 1
 717 0 l 1
 396 0 l 1
 406 45 l 1
 474 45 485 50 485 71 c 0
 485 94 465 133 451 164 c 2
 398 280 l 1
 271 154 l 2
 256 139 197 84 197 69 c 0
 197 55 219 45 267 45 c 1
 257 0 l 1
 0 0 l 1
 10 45 l 1
 76 45 126 101 190 163 c 2
 370 339 l 1
 304 485 l 2
 251 602 230 642 149 645 c 1
 159 690 l 1
 485 690 l 1
 475 645 l 1
EndSplineSet
Validated: 1
EndChar

StartChar: Y
Encoding: 89 89 58
Width: 721
Flags: W
HStem: 0 45<211 307.602 452.522 530> 645 45<158 207.85 376.133 452 619 674.99 787.177 852>
DStem2: 388 582 283 484 0.417293 -0.908772<-38.0352 215.676> 303.445 0 429.445 0 0.207912 0.978148<110.401 309.593> 478 386 496 315 0.653712 0.756743<0 312.777>
LayerCount: 2
Fore
SplineSet
425 645 m 2
 387 645 376 644 376 619 c 0
 376 605 382 593 388 582 c 2
 478 386 l 1
 646 584 l 2
 653 592 675 612 675 630 c 0
 675 643 662 645 639 645 c 2
 609 645 l 1
 619 690 l 1
 861 690 l 1
 852 647 l 1
 772 636 717 570 680 528 c 2
 496 315 l 1
 449 92 l 2
 448 89 448 85 448 82 c 0
 448 62 466 45 540 45 c 1
 530 0 l 1
 201 0 l 1
 211 45 l 1
 297 45 317 68 323 92 c 2
 367 303 l 1
 283 484 l 2
 238 579 228 644 148 645 c 1
 158 690 l 1
 462 690 l 1
 452 645 l 1
 425 645 l 2
EndSplineSet
Validated: 1
EndChar

StartChar: Z
Encoding: 90 90 59
Width: 609
Flags: W
HStem: 0 63<182 514.313> 627 63<254.633 554>
DStem2: 1 29 182 63 0.678943 0.734191<147.851 814.502>
LayerCount: 2
Fore
SplineSet
653 201 m 1
 584 0 l 1
 -5 0 l 1
 1 29 l 1
 554 627 l 1
 370 627 l 2
 274 627 216 610 173 493 c 1
 122 493 l 1
 187 690 l 1
 740 690 l 1
 731 662 l 1
 182 63 l 1
 403 63 l 2
 505 63 554 89 607 201 c 1
 653 201 l 1
EndSplineSet
Validated: 1
EndChar

StartChar: bracketleft
Encoding: 91 91 60
Width: 333
Flags: W
HStem: -157 51<161.142 279> 639 51<310.312 448>
DStem2: 42 -157 143.319 -157 0.207912 0.978148<99.4027 837.273>
LayerCount: 2
Fore
SplineSet
279 -157 m 1
 42 -157 l 1
 222 690 l 1
 459 690 l 1
 448 639 l 1
 357 639 l 2
 322 639 311 631 304 596 c 2
 165 -55 l 2
 163 -66 161 -74 161 -81 c 0
 161 -101 173 -106 201 -106 c 2
 289 -106 l 1
 279 -157 l 1
EndSplineSet
Validated: 1
EndChar

StartChar: backslash
Encoding: 92 92 61
Width: 278
Flags: W
HStem: 0 21G<274.352 382>
DStem2: 147 707 46 707 0.315422 -0.948951<0 713.175>
LayerCount: 2
Fore
SplineSet
382 0 m 1
 281 0 l 1
 46 707 l 1
 147 707 l 1
 382 0 l 1
EndSplineSet
Validated: 1
EndChar

StartChar: bracketright
Encoding: 93 93 62
Width: 333
Flags: W
HStem: -157 51<-1 136.332> 639 51<169 286.995>
DStem2: 123.469 -157 224 -157 0.207912 0.978148<51.0545 791.556>
LayerCount: 2
Fore
SplineSet
224 -157 m 1
 -11 -157 l 1
 -1 -106 l 1
 80 -106 l 1
 130 -104 136 -98 146 -51 c 2
 278 571 l 2
 282 591 287 607 287 618 c 0
 287 632 280 639 259 639 c 2
 158 639 l 1
 169 690 l 1
 404 690 l 1
 224 -157 l 1
EndSplineSet
Validated: 1
EndChar

StartChar: asciicircum
Encoding: 94 94 63
Width: 468
Flags: W
LayerCount: 2
Fore
SplineSet
530 257 m 1
 430 257 l 1
 357 576 l 1
 149 257 l 1
 50 257 l 1
 341 687 l 1
 421 687 l 1
 530 257 l 1
EndSplineSet
Validated: 1
EndChar

StartChar: underscore
Encoding: 95 95 64
Width: 499
Flags: W
HStem: -166 68<-33 476>
LayerCount: 2
Fore
SplineSet
476 -166 m 1
 -47 -166 l 1
 -33 -98 l 1
 490 -98 l 1
 476 -166 l 1
EndSplineSet
Validated: 1
EndChar

StartChar: grave
Encoding: 96 96 65
Width: 333
Flags: W
HStem: 507 195
VStem: 144 239
LayerCount: 2
Fore
SplineSet
383 507 m 1
 308 508 l 1
 181 599 l 1
 165 609 144 630 144 648 c 0
 144 659 154 702 197 702 c 0
 217 702 244 688 255 665 c 1
 383 507 l 1
EndSplineSet
Validated: 1
EndChar

StartChar: a
Encoding: 97 97 66
Width: 443
Flags: W
HStem: -11 82<111.5 216.606 332.5 407.863> 435 47<243.229 343.494>
VStem: 45 120<79.5547 154.881> 117 117<325.773 397.698> 348 105<309.521 430.682>
DStem2: 267.706 -11 376.744 -11 0.207912 0.978148<109.147 276.99 315.09 408.987>
LayerCount: 2
Fore
SplineSet
117 344 m 0xd8
 117 380 169 482 326 482 c 0
 417 482 453 453 453 382 c 0
 453 359 450 332 443 300 c 2
 398 89 l 2
 395 77 397 71 405 71 c 0
 417 71 440 83 478 108 c 1
 464 52 l 1
 443 32 388 -11 357 -11 c 0
 308 -11 290 18 289 54 c 1
 239 18 181 -11 141 -11 c 0
 82 -11 45 29 45 82 c 0xe8
 45 225 262 284 336 310 c 1
 343 345 348 371 348 391 c 0
 348 422 336 435 302 435 c 0
 286 435 255 430 243 415 c 1
 236 394 240 388 234 361 c 0xd8
 228 332 194 304 165 304 c 0xe8
 132 304 117 321 117 344 c 0xd8
325 260 m 1
 278 243 165 217 165 124 c 0
 165 97 178 74 211 74 c 0
 226 74 277 89 293 108 c 1
 325 260 l 1
EndSplineSet
Validated: 1
EndChar

StartChar: b
Encoding: 98 98 67
Width: 499
Flags: W
HStem: -11 59<195.2 336.853> 396 86<310.868 453> 619 40<137 186.014> 693 20G<262.571 319.704>
VStem: 426 120<206.807 367.372>
DStem2: 58.6574 -11 169.744 -11 0.207912 0.978148<120.278 422.477 472.87 625.965>
LayerCount: 2
Fore
SplineSet
546 315 m 0
 546 153 402 -11 241 -11 c 0
 168 -11 76 21 76 66 c 0
 76 70 77 75 78 80 c 2
 182 571 l 2
 185 585 187 595 187 602 c 0
 187 617 179 619 159 619 c 2
 129 619 l 1
 137 659 l 1
 184 671 212 676 238 685 c 2
 324 713 l 1
 263 429 l 1
 303 464 354 482 403 482 c 0
 503 482 546 403 546 315 c 0
267 48 m 0
 395 48 426 214 426 285 c 0
 426 343 408 396 342 396 c 0
 278 396 248 359 240 321 c 2
 191 89 l 2
 191 87 190 85 190 84 c 0
 190 54 246 48 267 48 c 0
EndSplineSet
Validated: 1
EndChar

StartChar: c
Encoding: 99 99 68
Width: 443
Flags: W
HStem: -11 95<161.408 302.332> 429 53<256.656 370.93>
VStem: 53 113<129.871 274.111> 376 114<338.426 421.426>
LayerCount: 2
Fore
SplineSet
321 429 m 0
 227 429 166 308 166 215 c 0
 166 146 198 84 275 84 c 0
 336 84 383 129 435 186 c 1
 464 167 l 1
 393 66 317 -11 210 -11 c 0
 114 -11 53 64 53 166 c 0
 53 290 149 482 351 482 c 0
 408 482 490 451 490 386 c 0
 490 343 446 316 420 316 c 0
 394 316 373 338 373 363 c 0
 373 373 376 375 376 387 c 0
 376 413 359 429 321 429 c 0
EndSplineSet
Validated: 1
EndChar

StartChar: d
Encoding: 100 100 69
Width: 499
Flags: W
HStem: -11 74<204.958 291.984> 48 36<479.519 512> 427 55<265.052 381.477> 619 40<401 452.462> 693 20G<526.571 583.738>
VStem: 54 116<100.506 270.242>
DStem2: 321.904 -22 431.43 -22 0.207912 0.978148<143.601 381.052 488.781 637.297>
LayerCount: 2
Fore
SplineSet
54 159 m 0xbc
 54 319 194 482 339 482 c 0
 377 482 405 468 424 456 c 1
 448 571 l 2
 451 585 453 595 453 602 c 0
 453 617 444 619 421 619 c 2
 393 619 l 1
 401 659 l 1
 450 671 476 677 502 685 c 2
 588 713 l 1
 458 103 l 2
 457 100 457 98 457 96 c 0
 457 85 466 82 479 82 c 0
 490 82 505 84 520 84 c 1
 512 48 l 1x7c
 454 31 399 14 322 -22 c 1
 335 38 l 1
 298 9 253 -11 210 -11 c 0
 102 -11 54 66 54 159 c 0xbc
326 427 m 0
 230 427 170 288 170 183 c 0
 170 106 206 63 263 63 c 0xbc
 313 63 348 100 354 129 c 2
 393 312 l 2
 396 326 398 339 398 352 c 0
 398 396 377 427 326 427 c 0
EndSplineSet
Validated: 1
EndChar

StartChar: e
Encoding: 101 101 70
Width: 443
Flags: W
HStem: -11 92<205.077 302.824> 276 56<180 357> 422 60<230.601 342.264>
VStem: 52 106<133.452 273.39> 358 121<332 405.696>
LayerCount: 2
Fore
SplineSet
52 166 m 0
 52 299 155 482 328 482 c 0
 426 482 479 422 479 329 c 0
 479 312 477 295 474 276 c 1
 162 276 l 1
 160 261 158 245 158 229 c 0
 158 155 187 81 270 81 c 0
 332 81 392 131 440 194 c 1
 476 178 l 1
 416 71 314 -11 210 -11 c 0
 109 -11 52 67 52 166 c 0
357 332 m 1
 357 337 358 342 358 347 c 0
 358 387 342 422 294 422 c 0
 236 422 199 382 180 332 c 1
 357 332 l 1
EndSplineSet
Validated: 1
EndChar

StartChar: f
Encoding: 102 102 71
Width: 333
Flags: W
HStem: 0 37<16 90.4877 225.751 292> 416 56<109 179 300 409> 654 53<342.808 459.5>
DStem2: 91.4448 0 200.445 0 0.207912 0.978148<99.9035 425.113 505.047 621.542>
LayerCount: 2
Fore
SplineSet
528 641 m 0
 528 614 497 579 467 579 c 0
 403 579 437 654 381 654 c 0
 345 654 331 617 325 587 c 2
 300 472 l 1
 421 472 l 1
 409 416 l 1
 288 416 l 1
 220 92 l 2
 219 86 218 80 218 75 c 0
 218 51 237 42 300 37 c 1
 292 0 l 1
 8 0 l 1
 16 37 l 1
 86 43 103 55 111 92 c 2
 179 416 l 1
 97 416 l 1
 109 472 l 1
 191 472 l 1
 198 504 205 530 217 559 c 0
 253 642 334 707 423 707 c 0
 496 707 528 670 528 641 c 0
EndSplineSet
Validated: 1
EndChar

StartChar: g
Encoding: 103 103 72
Width: 499
Flags: W
HStem: -217 80<108.875 275.631> -14 102<169.624 406.547> 147 51<249.065 345.936> 386 60<489.391 564> 430 52<269.113 362.225>
VStem: -7 100<-119.061 -63.3232> 74 94<46.5 104.602> 119 112<215.585 358.839> 381 108<266.269 385.492> 410 59<-79.3503 42.5>
LayerCount: 2
Fore
SplineSet
119 272 m 0xf1
 119 378 215 482 346 482 c 0xe9
 419 482 429 446 520 446 c 0
 536 446 555 447 578 450 c 1
 564 386 l 1
 488 386 l 1
 489 377 489 369 489 360 c 0
 489 232 386 147 275 147 c 0
 260 147 242 151 225 154 c 1
 207 148 168 120 168 102 c 0xf280
 168 90 223 89 242 88 c 0
 368 82 469 87 469 -2 c 0
 469 -155 250 -217 154 -217 c 0
 40 -217 -7 -156 -7 -113 c 0xf440
 -7 -63 57 -25 106 11 c 1
 90 21 74 36 74 57 c 0xf2
 74 104 152 157 177 174 c 1
 140 195 119 227 119 272 c 0xf1
297 198 m 0
 364 198 381 282 381 331 c 0xe980
 381 379 367 430 321 430 c 0
 269 430 247 390 238 347 c 0
 234 329 231 309 231 288 c 0
 231 242 246 198 297 198 c 0
211 -137 m 0
 364 -137 410 -83 410 -47 c 0
 410 -12 349 -15 295 -14 c 0
 252 -14 195 -12 150 -5 c 1
 120 -33 93 -61 93 -87 c 0xe440
 93 -115 126 -137 211 -137 c 0
EndSplineSet
Validated: 1
EndChar

StartChar: h
Encoding: 104 104 73
Width: 499
Flags: W
HStem: 0 37<5 62.0221 190.946 232 275 332.022 461.911 502> 404 78<315.33 443> 619 40<137 184.501> 693 20G<259.571 316.739>
VStem: 402 111<245.117 398.07>
DStem2: 60.4448 0 169.445 0 0.207912 0.978148<97.74 410.593 454.06 612.463> 330.445 0 439.445 0 0.207912 0.978148<97.9922 361.338>
LayerCount: 2
Fore
SplineSet
502 0 m 1
 267 0 l 1
 275 37 l 1
 327 41 342 57 350 92 c 2
 394 300 l 2
 398 319 402 338 402 355 c 0
 402 383 391 404 352 404 c 0
 303 404 275 379 244 352 c 1
 189 92 l 2
 187 85 186 78 186 73 c 0
 186 51 200 40 240 37 c 1
 232 0 l 1
 -3 0 l 1
 5 37 l 1
 57 41 72 57 80 92 c 2
 181 571 l 2
 184 584 185 593 185 600 c 0
 185 616 177 619 154 619 c 2
 129 619 l 1
 137 659 l 1
 183 671 209 677 235 685 c 2
 321 713 l 1
 259 422 l 1
 300 458 351 482 403 482 c 0
 483 482 513 449 513 383 c 0
 513 360 510 332 503 301 c 2
 459 92 l 2
 457 85 457 79 457 73 c 0
 457 51 471 40 510 37 c 1
 502 0 l 1
EndSplineSet
Validated: 1
EndChar

StartChar: i
Encoding: 105 105 74
Width: 278
Flags: W
HStem: 0 38<19 87.3174 218.267 272> 386 39<101 123> 579 128<232.094 308.375>
VStem: 206 129<606.068 681.122>
DStem2: 86.4448 0 195.445 0 0.207912 0.978148<99.9035 380.35>
LayerCount: 2
Fore
SplineSet
335 656 m 0
 335 611 290 579 257 579 c 0
 225 579 206 601 206 629 c 0
 206 664 237 707 284 707 c 0
 313 707 335 686 335 656 c 0
272 0 m 1
 11 0 l 1
 19 38 l 1
 81 41 98 57 106 92 c 2
 157 335 l 2
 161 351 163 364 163 373 c 0
 163 389 157 395 141 395 c 0
 130 395 114 392 93 386 c 1
 101 425 l 1
 299 488 l 1
 215 92 l 2
 214 86 213 80 213 75 c 0
 213 52 229 40 280 38 c 1
 272 0 l 1
EndSplineSet
Validated: 1
EndChar

StartChar: j
Encoding: 106 106 75
Width: 278
Flags: W
HStem: -217 56<-23.5 72.7013> 389 36<125 146.889> 579 128<259.975 335.679>
VStem: 233 129<606.23 679.977>
DStem2: 62.4177 -217 172.148 -217 0.207912 0.978148<129.904 605.713>
LayerCount: 2
Fore
SplineSet
362 656 m 0
 362 615 322 579 284 579 c 0
 254 579 233 601 233 630 c 0
 233 668 270 707 311 707 c 0
 340 707 362 686 362 656 c 0
-99 -158 m 0
 -99 -122 -69 -94 -33 -94 c 0
 -17 -94 -4 -101 2 -112 c 1
 16 -146 39 -161 50 -161 c 0
 74 -161 86 -110 92 -81 c 2
 184 355 l 2
 186 364 187 371 187 376 c 0
 187 389 180 394 164 394 c 0
 153 394 137 392 118 389 c 1
 125 425 l 1
 322 488 l 1
 223 25 l 2
 189 -137 108 -217 -11 -217 c 0
 -36 -217 -99 -206 -99 -158 c 0
EndSplineSet
Validated: 1
EndChar

StartChar: k
Encoding: 107 107 76
Width: 499
Flags: W
HStem: 0 38<-3 66.2336 196.675 249 278 313.991 462.378 511> 433 39<358 399.996 483.917 579> 617 42<138 173.528> 693 20G<264.571 321.728>
DStem2: 65.4448 0 174.445 0 0.207912 0.978148<98.9252 251.655 330.299 619.093> 309 293 222 224 0.496139 -0.868243<16.7447 213.422>
LayerCount: 2
Fore
SplineSet
511 0 m 1
 270 0 l 1
 278 38 l 1
 302 38 314 42 314 50 c 0
 314 51 314 53 313 55 c 2
 222 224 l 1
 194 92 l 2
 192 85 192 79 192 74 c 0
 192 51 208 40 257 38 c 1
 249 0 l 1
 -11 0 l 1
 -3 38 l 1
 60 41 77 57 85 92 c 2
 191 591 l 2
 192 597 193 602 193 606 c 0
 193 617 187 620 174 620 c 0
 164 620 150 619 129 617 c 1
 138 659 l 1
 188 671 213 677 240 685 c 2
 326 713 l 1
 238 301 l 1
 364 395 l 2
 371 400 400 425 400 428 c 0
 400 432 395 433 384 433 c 2
 350 433 l 1
 358 472 l 1
 587 472 l 1
 579 433 l 1
 470 433 408 367 309 293 c 1
 409 118 l 2
 430 81 461 41 519 37 c 1
 511 0 l 1
EndSplineSet
Validated: 1
EndChar

StartChar: l
Encoding: 108 108 77
Width: 278
Flags: W
HStem: 0 38<16 85.8796 217.542 272> 624 36<148 210.737> 691 20G<314 341.767>
DStem2: 84.4448 0 195.445 0 0.207912 0.978148<99.341 618.701>
LayerCount: 2
Fore
SplineSet
272 0 m 1
 8 0 l 1
 16 38 l 1
 81 41 96 57 104 92 c 2
 205 571 l 2
 209 587 211 598 211 606 c 0
 211 622 202 624 179 624 c 2
 141 624 l 1
 148 660 l 1
 208 671 282 690 346 711 c 1
 215 92 l 2
 213 85 213 79 213 74 c 0
 213 51 228 40 280 38 c 1
 272 0 l 1
EndSplineSet
Validated: 1
EndChar

StartChar: m
Encoding: 109 109 78
Width: 777
Flags: W
HStem: 0 37<10 66.6853 195.946 237 278 335.022 464.911 505 549 605.685 734.946 776> 404 78<329.549 443 594.507 719>
VStem: 676 109<235.336 398.76>
DStem2: 65.4448 0 174.445 0 0.207912 0.978148<97.74 368.636> 333.445 0 442.445 0 0.207912 0.978148<97.9922 366.667> 604.445 0 713.445 0 0.207912 0.978148<97.74 366.273>
LayerCount: 2
Fore
SplineSet
776 0 m 1
 541 0 l 1
 549 37 l 1
 600 41 616 57 624 92 c 2
 667 295 l 2
 673 323 676 344 676 360 c 0
 676 393 661 404 624 404 c 0
 584 404 544 384 517 353 c 1
 462 92 l 2
 460 85 460 79 460 73 c 0
 460 51 474 40 513 37 c 1
 505 0 l 1
 270 0 l 1
 278 37 l 1
 330 41 345 57 353 92 c 2
 401 322 l 2
 404 335 406 348 406 360 c 0
 406 385 396 404 362 404 c 0
 326 404 276 386 249 355 c 1
 194 92 l 2
 192 85 191 78 191 73 c 0
 191 51 205 40 245 37 c 1
 237 0 l 1
 2 0 l 1
 10 37 l 1
 61 41 77 57 85 92 c 2
 139 346 l 2
 140 352 141 357 141 361 c 0
 141 383 125 389 85 389 c 1
 93 427 l 1
 278 488 l 1
 259 398 l 1
 261 398 270 426 281 433 c 0
 322 461 371 482 418 482 c 0
 468 482 502 452 512 409 c 1
 559 447 624 482 676 482 c 0
 762 482 785 434 785 373 c 0
 785 344 780 311 773 280 c 2
 733 92 l 2
 731 85 730 78 730 73 c 0
 730 51 744 40 784 37 c 1
 776 0 l 1
EndSplineSet
Validated: 1
EndChar

StartChar: n
Encoding: 110 110 79
Width: 499
Flags: W
HStem: 0 37<5 62.0221 190.946 232 275 332.022 461.911 502> 395 37<89 109.624> 404 78<320.489 445>
VStem: 402 111<243.875 397.551>
DStem2: 60.4448 0 169.445 0 0.207912 0.978148<97.74 382.307> 330.445 0 439.445 0 0.207912 0.978148<97.9922 364.364>
LayerCount: 2
Fore
SplineSet
502 0 m 1xb0
 267 0 l 1
 275 37 l 1
 327 41 342 57 350 92 c 2
 395 307 l 2
 399 325 402 343 402 358 c 0
 402 385 391 404 352 404 c 0xb0
 309 404 272 378 244 353 c 1
 189 92 l 2
 187 85 186 78 186 73 c 0
 186 51 200 40 240 37 c 1
 232 0 l 1
 -3 0 l 1
 5 37 l 1
 57 41 72 57 80 92 c 2
 131 336 l 2
 135 354 137 366 137 375 c 0
 137 392 129 396 110 396 c 0
 102 396 92 396 81 395 c 1
 89 432 l 1xd0
 273 487 l 1
 258 421 l 1
 300 453 349 482 412 482 c 0
 478 482 513 446 513 374 c 0
 513 355 510 333 505 309 c 2
 459 92 l 2
 457 85 457 79 457 73 c 0
 457 51 471 40 510 37 c 1
 502 0 l 1xb0
EndSplineSet
Validated: 1
EndChar

StartChar: o
Encoding: 111 111 80
Width: 499
Flags: W
HStem: -11 56<217.242 332.194> 427 55<262.878 381.657>
VStem: 61 121<83.6375 280.947> 419 122<201.237 387.6>
LayerCount: 2
Fore
SplineSet
541 307 m 0
 541 170 422 -11 244 -11 c 0
 128 -11 61 73 61 176 c 0
 61 292 154 482 348 482 c 0
 468 482 541 414 541 307 c 0
274 45 m 0
 371 45 419 184 419 293 c 0
 419 361 398 427 324 427 c 0
 211 427 182 260 182 179 c 0
 182 99 210 45 274 45 c 0
EndSplineSet
Validated: 1
EndChar

StartChar: p
Encoding: 112 112 81
Width: 499
Flags: W
HStem: -217 39<-47 20.5814 148.524 209> -11 59<212.094 331.78> 395 37<83 102.624> 402 80<311.227 455>
VStem: 427 117<209.948 374.848>
DStem2: 17.2322 -217 126.232 -217 0.207912 0.978148<99.9921 264.831 352.062 602.218>
LayerCount: 2
Fore
SplineSet
544 328 m 0xd8
 544 159 410 -11 251 -11 c 0
 222 -11 195 2 176 20 c 1
 146 -124 l 2
 145 -131 144 -136 144 -142 c 0
 144 -166 161 -176 217 -178 c 1
 209 -217 l 1
 -55 -217 l 1
 -47 -180 l 1
 12 -175 29 -161 37 -124 c 2
 135 339 l 2
 138 353 140 364 140 373 c 0
 140 389 132 397 103 397 c 0
 95 397 86 396 75 395 c 1
 83 432 l 1xe8
 276 487 l 1
 263 429 l 1
 269 431 313 482 408 482 c 0
 502 482 544 417 544 328 c 0xd8
273 48 m 0
 359 48 427 170 427 294 c 0
 427 350 409 402 343 402 c 0xd8
 318 402 254 385 243 336 c 2
 196 115 l 2
 195 112 195 108 195 105 c 0
 195 66 244 48 273 48 c 0
EndSplineSet
Validated: 1
EndChar

StartChar: q
Encoding: 113 113 82
Width: 499
Flags: W
HStem: -217 37<206 279.286 414.322 464> -11 86<139 275.126> 433 49<271.624 397.047>
VStem: 51 119<101.885 266.258>
DStem2: 281.232 -217 390.232 -217 0.207912 0.978148<99.9477 268.848 314.974 611.439>
LayerCount: 2
Fore
SplineSet
51 148 m 0
 51 334 195 482 352 482 c 0
 392 482 428 473 455 453 c 1
 503 479 l 2
 512 483 518 485 522 485 c 0
 531 485 534 478 534 469 c 0
 534 464 533 458 532 452 c 2
 410 -124 l 2
 409 -131 408 -137 408 -142 c 0
 408 -166 424 -176 472 -180 c 1
 464 -217 l 1
 198 -217 l 1
 206 -178 l 1
 276 -175 293 -161 301 -124 c 2
 337 46 l 1
 290 15 241 -11 192 -11 c 0
 86 -11 51 64 51 148 c 0
336 433 m 0
 223 433 170 281 170 184 c 0
 170 119 195 75 249 75 c 0
 286 75 347 93 355 131 c 2
 403 359 l 2
 404 365 406 373 406 382 c 0
 406 405 395 433 336 433 c 0
EndSplineSet
Validated: 1
EndChar

StartChar: r
Encoding: 114 114 83
Width: 333
Flags: W
HStem: 0 38<0 69.2336 199.675 252> 384 41<82 104.111> 396 86<301.5 405.48>
DStem2: 68.4448 0 177.445 0 0.207912 0.978148<98.9252 369.553>
LayerCount: 2
Fore
SplineSet
438 434 m 0xa0
 438 408 424 361 370 361 c 0
 335 361 334 396 310 396 c 0xa0
 293 396 252 355 247 330 c 2
 197 92 l 2
 195 85 195 79 195 74 c 0
 195 51 211 40 260 38 c 1
 252 0 l 1
 -8 0 l 1
 0 38 l 1
 63 41 80 57 88 92 c 2
 134 310 l 2
 139 333 141 350 141 363 c 0
 141 383 134 392 116 392 c 0
 106 392 92 389 74 384 c 1
 82 425 l 1xc0
 281 488 l 1
 266 419 l 1
 297 452 340 482 380 482 c 0
 415 482 438 466 438 434 c 0xa0
EndSplineSet
Validated: 1
EndChar

StartChar: s
Encoding: 115 115 84
Width: 388
Flags: W
HStem: -11 49<144.774 263.982> -3 21G<37 76> 435 47<227.037 332.068> 453 20G<395 428>
VStem: 37 37<-3 11.9956> 76 40<158.327 178> 109 97<266.5 394.659> 289 101<86.0283 208.5> 357 37<313 345.941>
LayerCount: 2
Fore
SplineSet
109 322 m 0x8b
 109 403 188 482 292 482 c 0xab
 341 482 363 461 379 461 c 0
 388 461 391 467 399 473 c 1
 428 473 l 1
 394 313 l 1
 357 313 l 1x1a80
 352 386 342 435 281 435 c 0
 249 435 206 412 206 369 c 0
 206 286 390 260 390 157 c 0
 390 95 327 -11 198 -11 c 0xab
 151 -11 121 12 93 12 c 0
 81 12 78 6 74 -3 c 1
 37 -3 l 1
 76 178 l 1
 116 178 l 1x4d
 116 171 115 165 115 158 c 0
 115 90 136 38 206 38 c 0
 243 38 289 64 289 111 c 0
 289 198 109 211 109 322 c 0x8b
EndSplineSet
Validated: 1
EndChar

StartChar: t
Encoding: 116 116 85
Width: 278
Flags: W
HStem: -11 78<123.5 220.14> 416 56<269 355>
VStem: 76 118<30.7933 186.141>
DStem2: 55.3919 -11 167.078 -11 0.207912 0.978148<135.196 436.508>
LayerCount: 2
Fore
SplineSet
216 67 m 0
 246 67 270 93 290 111 c 1
 313 81 l 1
 255 22 199 -11 149 -11 c 0
 98 -11 76 10 76 59 c 0
 76 79 80 104 86 133 c 2
 146 416 l 1
 129 416 l 2
 115 416 94 417 94 432 c 0
 94 439 100 447 102 450 c 1
 165 487 216 545 302 624 c 1
 269 472 l 1
 367 472 l 1
 355 416 l 1
 257 416 l 1
 203 158 l 2
 198 134 194 113 194 97 c 0
 194 79 199 67 216 67 c 0
EndSplineSet
Validated: 1
EndChar

StartChar: u
Encoding: 117 117 86
Width: 499
Flags: W
HStem: -11 83<152 270.785> 433 39<97 142.925 347 401.829>
VStem: 85 113<78.4828 219.398>
DStem2: 56.7784 -17 165.716 -17 0.207912 0.978148<163.781 430.543> 315.691 -17 425.329 -17 0.207912 0.978148<144.131 430.517>
LayerCount: 2
Fore
SplineSet
247 72 m 0
 274 72 339 96 348 135 c 2
 398 372 l 2
 401 386 403 396 403 405 c 0
 403 427 388 433 339 433 c 1
 347 472 l 1
 529 472 l 1
 457 132 l 2
 454 120 452 109 452 101 c 0
 452 84 461 76 490 76 c 0
 495 76 501 76 508 77 c 1
 501 40 l 1
 447 25 391 6 322 -17 c 1
 338 58 l 1
 310 32 256 -11 187 -11 c 0
 117 -11 85 28 85 91 c 0
 85 107 87 125 91 144 c 2
 139 373 l 2
 142 386 144 397 144 405 c 0
 144 427 130 433 89 433 c 1
 97 472 l 1
 269 472 l 1
 201 149 l 2
 199 139 198 129 198 120 c 0
 198 92 210 72 247 72 c 0
EndSplineSet
Validated: 1
EndChar

StartChar: v
Encoding: 118 118 87
Width: 499
Flags: W
HStem: -11 21G<242 250> 433 39<98 133.889 263.317 310 416 446.992 527.334 571>
DStem2: 305 164 225 25 0.215788 -0.97644<-239.567 0> 305 164 281 25 0.529764 0.848145<0 289.153>
LayerCount: 2
Fore
SplineSet
310 433 m 1
 270 433 261 419 261 400 c 0
 261 392 263 383 264 375 c 2
 305 164 l 1
 408 339 l 2
 425 369 447 401 447 417 c 0
 447 428 436 433 408 433 c 1
 416 472 l 1
 579 472 l 1
 571 433 l 1
 527 433 511 393 484 350 c 2
 281 25 l 1
 276 14 255 -11 245 -11 c 0
 239 -11 228 14 225 25 c 2
 145 387 l 2
 138 418 123 433 90 433 c 1
 98 472 l 1
 318 472 l 1
 310 433 l 1
EndSplineSet
Validated: 1
EndChar

StartChar: w
Encoding: 119 119 88
Width: 721
Flags: W
HStem: -11 21G<230 236 483 489.5> 433 39<109 138.222 255.292 306 350 388.745 509.805 568 658 688.992 763.912 798>
DStem2: 276 261 151 350 0.190641 -0.98166<-139.98 104.733> 295 158 256 5 0.563232 0.826299<0 148.113> 542 167 508 5 0.523205 0.852207<0 288.498>
LayerCount: 2
Fore
SplineSet
568 433 m 1
 523 433 506 425 506 394 c 0
 506 384 507 373 509 359 c 2
 542 167 l 1
 651 339 l 1
 672 375 689 401 689 416 c 0
 689 428 678 433 650 433 c 1
 658 472 l 1
 805 472 l 1
 798 436 l 1
 764 425 749 393 737 378 c 1
 508 5 l 2
 504 -2 493 -11 486 -11 c 0
 480 -11 475 -2 469 3 c 1
 423 250 l 1
 256 5 l 2
 252 -2 239 -11 233 -11 c 0
 227 -11 220 -2 218 5 c 2
 151 350 l 2
 140 406 146 433 101 433 c 1
 109 472 l 1
 314 472 l 1
 306 432 l 1
 268 432 254 432 254 401 c 0
 254 366 273 284 276 261 c 1
 295 158 l 1
 405 323 l 1
 400 399 399 433 342 433 c 1
 350 472 l 1
 576 472 l 1
 568 433 l 1
EndSplineSet
Validated: 1
EndChar

StartChar: x
Encoding: 120 120 89
Width: 499
Flags: W
HStem: 0 38<13 67.5055 150.007 175 274 325.894 451.363 492> 433 39<112 163.69 290.009 336 364 393.993 473.013 537>
DStem2: 107 97 179 91 0.660859 0.75051<-8.0706 168.568 319.384 434.443> 320 335 186 369 0.401276 -0.915957<-86.6047 0 112.802 266.117>
LayerCount: 2
Fore
SplineSet
492 0 m 1
 266 0 l 1
 274 38 l 1
 305 40 324 39 326 47 c 0
 326 49 326 51 324 54 c 2
 261 186 l 1
 179 91 l 2
 159 67 150 56 150 48 c 0
 150 40 159 38 183 38 c 1
 175 0 l 1
 5 0 l 1
 13 38 l 1
 57 38 76 63 107 97 c 2
 241 244 l 1
 186 369 l 2
 171 401 174 430 104 433 c 1
 112 472 l 1
 344 472 l 1
 336 433 l 1
 302 433 290 427 290 417 c 0
 290 405 309 361 320 335 c 1
 343 357 394 407 394 424 c 0
 394 432 384 433 356 433 c 1
 364 472 l 1
 545 472 l 1
 537 433 l 1
 493 433 460 409 437 384 c 2
 344 281 l 1
 423 103 l 2
 438 68 455 38 500 38 c 1
 492 0 l 1
EndSplineSet
Validated: 1
EndChar

StartChar: y
Encoding: 121 121 90
Width: 499
Flags: W
HStem: -217 107<28.9033 140> 433 39<103 138.516 264.416 325 429 462.993 540.362 580>
DStem2: 219 -6 287 0 0.513839 0.857887<-131.432 37.9608 194.307 488.961>
LayerCount: 2
Fore
SplineSet
-13 -160 m 0
 -13 -131 7 -92 63 -92 c 0
 81 -92 117 -110 130 -110 c 0
 150 -110 171 -83 219 -6 c 0
 225 3 235 18 237 28 c 1
 237 32 l 1
 145 398 l 2
 140 419 129 430 95 435 c 1
 103 472 l 1
 333 472 l 1
 325 433 l 1
 278 433 263 426 263 404 c 0
 263 398 264 392 266 384 c 2
 320 160 l 1
 460 409 l 2
 462 412 463 414 463 418 c 0
 463 426 454 432 421 433 c 1
 429 472 l 1
 588 472 l 1
 580 433 l 1
 551 433 527 402 517 384 c 2
 287 0 l 2
 241 -78 161 -217 57 -217 c 0
 18 -217 -13 -195 -13 -160 c 0
EndSplineSet
Validated: 1
EndChar

StartChar: z
Encoding: 122 122 91
Width: 443
Flags: W
HStem: 0 55<169 375.314> 416 56<182.375 358>
VStem: 111 40<330 359.235>
DStem2: 18 29 169 55 0.660015 0.751252<119.195 515.14>
LayerCount: 2
Fore
SplineSet
466 158 m 1
 415 0 l 1
 12 0 l 1
 18 29 l 1
 358 416 l 1
 255 416 l 2
 180 416 171 389 151 330 c 1
 111 330 l 1
 145 472 l 1
 518 472 l 1
 509 442 l 1
 169 55 l 1
 272 55 l 2
 299 55 328 57 357 68 c 1
 394 77 405 124 427 167 c 1
 466 158 l 1
EndSplineSet
Validated: 1
EndChar

StartChar: braceleft
Encoding: 123 123 92
Width: 479
Flags: W
HStem: -164 24<286.002 306> 682 25<457.132 489>
VStem: 164 94<-124.809 48.2109> 212 95<77.3906 238.556>
DStem2: 139.204 -164 234.73 -164 0.207912 0.978148<115.241 364.762 485.38 843.349>
LayerCount: 2
Fore
SplineSet
314 -140 m 1xe0
 306 -164 l 1
 290 -164 l 2
 204 -164 164 -144 164 -75 c 0xe0
 164 -55 167 -32 173 -5 c 2
 207 155 l 2
 210 170 212 182 212 194 c 0
 212 228 193 248 120 269 c 1
 224 296 243 326 255 382 c 2
 292 556 l 2
 319 684 383 707 491 707 c 1
 489 682 l 1
 428 667 405 633 391 571 c 2
 354 396 l 2
 341 332 322 292 271 269 c 1
 297 253 307 230 307 199 c 0xd0
 307 180 304 159 298 134 c 2
 263 -31 l 2
 260 -46 258 -60 258 -72 c 0
 258 -108 274 -132 314 -140 c 1xe0
EndSplineSet
Validated: 1
EndChar

StartChar: bar
Encoding: 124 124 93
Width: 199
Flags: W
HStem: 0 21G<55 148.243>
VStem: 55 239
DStem2: 55 0 144 0 0.207912 0.978148<18.5041 722.737>
LayerCount: 2
Fore
SplineSet
144 0 m 1
 55 0 l 1
 205 707 l 1
 294 707 l 1
 144 0 l 1
EndSplineSet
Validated: 1
EndChar

StartChar: braceright
Encoding: 125 125 94
Width: 479
Flags: W
HStem: -164 24<107 140.897> 682 25<290 310.04>
VStem: 287 95<301.448 461.234> 337 94<496.68 665.625>
DStem2: 174.73 -164 271.204 -164 0.207912 0.978148<64.5087 415.92 543.432 796.095>
LayerCount: 2
Fore
SplineSet
476 269 m 1xe0
 366 241 351 214 339 155 c 2
 305 -5 l 2
 278 -132 231 -164 121 -164 c 2
 105 -164 l 1
 107 -140 l 1
 167 -129 191 -91 203 -31 c 2
 238 134 l 2
 252 198 270 244 323 269 c 1
 296 284 287 306 287 337 c 0xe0
 287 354 289 374 294 396 c 2
 331 571 l 2
 335 588 337 603 337 616 c 0
 337 650 322 671 282 682 c 1
 290 707 l 1
 379 707 431 691 431 613 c 0xd0
 431 597 429 578 424 556 c 2
 387 382 l 2
 384 369 382 358 382 347 c 0
 382 312 403 290 476 269 c 1xe0
EndSplineSet
Validated: 1
EndChar

StartChar: asciitilde
Encoding: 126 126 95
Width: 540
Flags: W
HStem: 198 88<375.163 495.339> 267 89<161.372 291.1>
LayerCount: 2
Fore
SplineSet
606 321 m 1x80
 557 257 492 198 423 198 c 0x80
 346 198 286 267 217 267 c 0
 166 267 133 220 93 169 c 1
 54 229 l 1
 102 292 160 356 236 356 c 0x40
 305 356 390 286 443 286 c 0
 483 286 528 330 566 381 c 1
 606 321 l 1x80
EndSplineSet
Validated: 1
EndChar

StartChar: uni0E10.descless
Encoding: 63232 63232 96
Width: 508
Flags: W
HStem: -5 50<282.64 331.122> 166 44<146.23 201.062> 315 43<159.753 243.852> 489 76<378.119 517.957> 528 70<228.056 364.06>
VStem: 97 45<214.254 298.671> 186 96<45.2031 107.025> 249 76<226.283 310.56> 392 102<302.94 371.172>
DStem2: 188 478 112 445 0.962206 -0.272322<0 231.511> 318.208 -5 420.406 -5 0.207912 0.978148<57.6887 360.4>
LayerCount: 2
Fore
SplineSet
571 584 m 0xf680
 571 568 532 489 452 489 c 0xf680
 390 489 324 528 268 528 c 0
 237 528 210 516 188 478 c 1
 445 407 l 2
 456 403 494 397 494 354 c 0
 494 349 494 342 492 335 c 2
 444 106 l 2
 428 34 378 -5 292 -5 c 0
 229 -5 186 28 186 81 c 0xee80
 186 89 187 97 189 106 c 2
 202 169 l 1
 192 167 184 166 175 166 c 0
 124 166 97 200 97 243 c 0
 97 298 147 358 216 358 c 0
 293 358 325 325 325 281 c 0xed80
 325 274 324 266 322 258 c 2
 283 75 l 2
 282 73 282 70 282 67 c 0
 282 56 288 45 303 45 c 0
 322 45 332 61 335 74 c 2
 390 333 l 2
 391 339 392 343 392 348 c 0
 392 362 386 368 377 370 c 2
 112 445 l 1
 139 497 196 598 316 598 c 0xee80
 362 598 430 565 485 565 c 0
 539 565 541 594 561 594 c 0
 567 594 571 591 571 584 c 0xf680
207 315 m 0
 166 315 142 281 142 249 c 0
 142 228 155 210 185 210 c 0
 224 210 249 243 249 274 c 0xe580
 249 296 237 315 207 315 c 0
EndSplineSet
Validated: 1
EndChar

StartChar: uni0E34.left
Encoding: 63233 63233 97
Width: 0
Flags: W
HStem: 713 21<-543 -537> 726 45<-468.297 -279.51> 839 55<-397.525 -225.093>
LayerCount: 2
Back
SplineSet
-98 636 m 1
 -220 694 -316 726 -423 726 c 0
 -463 726 -504 722 -548 713 c 1
 -492 833 -380 894 -280 894 c 0
 -161 894 -61 808 -98 636 c 1
-143 708 m 1
 -155 788 -222 839 -299 839 c 0
 -350 839 -405 818 -453 768 c 1
 -433 770 -414 771 -394 771 c 0
 -308 771 -218 750 -143 708 c 1
EndSplineSet
Fore
Refer: 180 3636 N 1 0 0 1 -164 0 2
Validated: 1
EndChar

StartChar: uni0E35.left
Encoding: 63234 63234 98
Width: 0
Flags: W
HStem: 713 21<-543 -537.5> 726 45<-468.297 -279.51> 839 55<-399.119 -224.657>
LayerCount: 2
Back
SplineSet
-98 636 m 1
 -220 694 -316 726 -423 726 c 0
 -463 726 -504 722 -548 713 c 1
 -495 829 -390 882 -295 882 c 0
 -251 882 -209 870 -175 849 c 1
 -153 948 l 1
 -56 948 l 1
 -98 751 l 1
 -90 739 -86 690 -98 636 c 1
-145 710 m 1
 -154 781 -227 827 -307 827 c 0
 -357 827 -410 809 -453 768 c 1
 -432 770 -412 772 -391 772 c 0
 -306 772 -219 752 -145 710 c 1
EndSplineSet
Fore
Refer: 181 3637 N 1 0 0 1 -164 0 2
Validated: 1
EndChar

StartChar: uni0E36.left
Encoding: 63235 63235 99
Width: 0
Flags: W
HStem: 713 21<-543 -537.5> 726 45<-468.297 -279.51> 839 55<-398.896 -224.721> 906 46<-159.705 -78.1413>
VStem: -75 51<821.89 902.914>
LayerCount: 2
Back
SplineSet
-98 636 m 1
 -220 694 -316 726 -423 726 c 0
 -463 726 -504 722 -548 713 c 1
 -493 832 -385 881 -296 881 c 0
 -273 881 -250 878 -231 872 c 1
 -230 875 l 0
 -223 909 -185 952 -125 952 c 0
 -60 952 -39 908 -48 866 c 0
 -55 833 -80 801 -115 791 c 1
 -87 768 -87 688 -98 636 c 1
-153 819 m 0
 -118 819 -96 843 -91 866 c 0
 -86 890 -98 914 -133 914 c 0
 -168 914 -190 890 -195 866 c 0
 -200 843 -188 819 -153 819 c 0
-145 710 m 1
 -154 781 -227 827 -307 827 c 0
 -357 827 -410 809 -453 768 c 1
 -432 770 -412 772 -391 772 c 0
 -306 772 -219 752 -145 710 c 1
EndSplineSet
Fore
Refer: 182 3638 N 1 0 0 1 -164 0 2
Validated: 1
EndChar

StartChar: uni0E37.left
Encoding: 63236 63236 100
Width: 0
Flags: W
HStem: 713 21<-542.5 -536.5> 726 45<-468.25 -279.691> 839 55<-396.781 -287>
LayerCount: 2
Back
SplineSet
-145 710 m 1
 -154 781 -227 827 -307 827 c 0
 -357 827 -410 809 -453 768 c 1
 -432 770 -412 772 -391 772 c 0
 -306 772 -219 752 -145 710 c 1
-100 743 m 1
 -90 733 -88 684 -98 636 c 1
 -220 694 -316 726 -423 726 c 0
 -463 726 -504 722 -548 713 c 1
 -493 831 -385 883 -289 882 c 1
 -273 948 l 1
 -200 948 l 1
 -216 869 l 1
 -203 866 -171 851 -160 839 c 1
 -134 948 l 1
 -58 948 l 1
 -100 743 l 1
EndSplineSet
Fore
Refer: 183 3639 N 1 0 0 1 -164 0 2
Validated: 1
EndChar

StartChar: ellipsis
Encoding: 8230 8230 101
Width: 998
Flags: W
HStem: -14 140<140.906 218.374 472.361 550.111 805.906 883.374>
VStem: 108 142<18.44 93.077> 440 143<18.4975 94.2012> 773 142<18.44 93.077>
CounterMasks: 1 70
LayerCount: 2
Fore
SplineSet
915 70 m 0
 915 32 877 -14 828 -14 c 0
 796 -14 773 12 773 43 c 0
 773 88 823 126 858 126 c 0
 891 126 915 101 915 70 c 0
583 70 m 0
 583 28 538 -14 496 -14 c 0
 463 -14 440 12 440 43 c 0
 440 85 485 126 526 126 c 0
 559 126 583 101 583 70 c 0
250 70 m 0
 250 32 212 -14 163 -14 c 0
 131 -14 108 12 108 43 c 0
 108 88 158 126 193 126 c 0
 226 126 250 101 250 70 c 0
EndSplineSet
Validated: 1
EndChar

StartChar: uni0E48.low_left
Encoding: 63237 63237 102
Width: 0
Flags: W
HStem: 688 238<-167 -121>
VStem: -201 146
LayerCount: 2
Back
SplineSet
-69 926 m 1
 -135 688 l 1
 -207 688 l 1
 -173 926 l 1
 -69 926 l 1
EndSplineSet
Fore
Refer: 107 63242 N 1 0 0 1 -164 0 2
Validated: 1
EndChar

StartChar: uni0E49.low_left
Encoding: 63238 63238 103
Width: 0
Flags: W
HStem: 677 50<-387 -330.587> 778 45<-330.585 -276> 925 53<-317.583 -234.618>
VStem: -390 56<825.828 909.045> -231 59<840.349 921.113> -11 111<915.055 972>
LayerCount: 2
Back
SplineSet
-29 940 m 17
 -133 627 -429 665 -482 670 c 1
 -473 710 l 1
 -426 716 -403 736 -389 757 c 1
 -388 760 l 1
 -388 760 -398 757 -415 759 c 0
 -463 767 -480 808 -471 850 c 0
 -462 895 -421 940 -356 940 c 0
 -258 940 -277 851 -278 849 c 0
 -295 765 -348 725 -348 725 c 1
 -349 722 l 1
 -349 722 -169 737 -130 940 c 1
 -29 940 l 17
-386 800 m 0
 -356 800 -335 823 -330 846 c 0
 -325 869 -336 892 -366 892 c 0
 -396 892 -417 869 -422 846 c 0
 -427 823 -416 800 -386 800 c 0
EndSplineSet
Fore
Refer: 108 63243 N 1 0 0 1 -164 0 2
Validated: 1
EndChar

StartChar: uni0E4A.low_left
Encoding: 63239 63239 104
Width: 0
Flags: W
HStem: 671 40<-398.682 -327.803> 794 39<-389.619 -318.972>
VStem: -467 66<713.223 864.459> -317 44<719.995 792.882> -165 71<785.065 888.859>
LayerCount: 2
Back
SplineSet
-42 917 m 17
 -59 790 -163 677 -303 677 c 1
 -295 713 l 1
 -258 731 -238 763 -231 794 c 0
 -224 827 -234 858 -254 866 c 1
 -317 828 l 1
 -371 869 l 1
 -404 863 -426 822 -428 799 c 1
 -425 796 l 1
 -425 796 -409 816 -375 816 c 0
 -335 816 -310 790 -319 748 c 0
 -328 705 -363 677 -404 677 c 0
 -469 677 -495 734 -480 806 c 0
 -470 851 -418 919 -355 923 c 1
 -307 874 l 1
 -239 923 l 1
 -175 904 -162 858 -171 814 c 0
 -176 789 -190 764 -205 746 c 1
 -203 745 l 1
 -155 771 -113 833 -115 917 c 1
 -42 917 l 17
-400 708 m 0
 -374 708 -356 727 -352 746 c 0
 -348 766 -357 785 -383 785 c 0
 -409 785 -425 766 -429 746 c 0
 -433 727 -426 708 -400 708 c 0
EndSplineSet
Fore
Refer: 109 63244 N 1 0 0 1 -164 0 2
Validated: 1
EndChar

StartChar: uni0E4B.low_left
Encoding: 63240 63240 105
Width: 0
Flags: W
HStem: 770 81<-275 -190 -78 5>
VStem: -292 314
DStem2: -207 677 -118 677 0.207912 0.978148<18.5041 92.5459 197.996 269.813>
LayerCount: 2
Back
SplineSet
-88 774 m 1
 -183 773 l 1
 -202 691 l 1
 -275 691 l 1
 -260 773 l 1
 -353 774 l 1
 -338 848 l 1
 -244 849 l 1
 -227 931 l 1
 -148 931 l 1
 -167 849 l 1
 -73 848 l 1
 -88 774 l 1
EndSplineSet
Fore
Refer: 110 63245 N 1 0 0 1 -164 0 2
Validated: 1
EndChar

StartChar: uni0E4C.low_left
Encoding: 63241 63241 106
Width: 0
Flags: W
HStem: 671 48<-222.876 -146.26>
VStem: -276 50<721.858 796.668> -134 53<731.225 806.489>
LayerCount: 2
Back
SplineSet
-35 954 m 17
 -82 857 -197 836 -223 829 c 1
 -223 826 l 1
 -200 825 -179 802 -187 760 c 0
 -197 714 -240 679 -291 679 c 0
 -346 679 -371 720 -361 766 c 0
 -353 806 -312 859 -218 876 c 0
 -170 885 -131 919 -109 975 c 1
 -35 954 l 17
-282 722 m 0
 -255 722 -237 743 -233 764 c 0
 -228 784 -237 805 -264 805 c 0
 -293 805 -311 784 -316 764 c 0
 -320 743 -311 722 -282 722 c 0
EndSplineSet
Fore
Refer: 111 63246 S 1 0 0 1 -164 0 2
Validated: 1
EndChar

StartChar: uni0E48.low
Encoding: 63242 63242 107
Width: 0
Flags: W
HStem: 688 238<-3 43>
VStem: -37 146
AnchorPoint: "AboveMark" 65 983 basemark 0
AnchorPoint: "AboveBase" 40 630 mark 0
LayerCount: 2
Fore
SplineSet
109 926 m 1
 43 688 l 1
 -37 688 l 1
 -3 926 l 1
 109 926 l 1
EndSplineSet
Validated: 1
Substitution2: "Thai Phinthu Mai Ek Reordering" uni0E3A
EndChar

StartChar: uni0E49.low
Encoding: 63243 63243 108
Width: 0
Flags: W
HStem: 677 50<-223 -166.587> 778 45<-166.585 -112> 925 53<-153.583 -70.6179>
VStem: -226 56<825.828 909.045> -67 59<840.349 921.113> 153 111<915.055 972>
AnchorPoint: "AboveMark" 32 983 basemark 0
AnchorPoint: "AboveBase" 40 630 mark 0
LayerCount: 2
Fore
SplineSet
-226 855 m 0
 -226 912 -177 978 -95 978 c 0
 -32 978 -8 941 -8 901 c 0
 -8 894 -8 886 -10 879 c 0
 -33 771 -96 736 -96 736 c 1
 -94 733 l 1
 -94 733 111 762 153 958 c 2
 156 972 l 1
 264 972 l 17
 181 707 -47 673 -165 673 c 0
 -199 673 -224 676 -234 677 c 1
 -223 727 l 1
 -194 730 -154 742 -133 777 c 1
 -132 780 l 1
 -132 780 -140 778 -150 778 c 0
 -202 778 -226 814 -226 855 c 0
-110 925 m 0
 -145 925 -170 893 -170 861 c 0
 -170 840 -158 823 -132 823 c 0
 -92 823 -67 856 -67 885 c 0
 -67 907 -80 925 -110 925 c 0
EndSplineSet
Validated: 1
Substitution2: "Thai Phinthu Mai Tho Reordering" uni0E3A
EndChar

StartChar: uni0E4A.low
Encoding: 63244 63244 109
Width: 0
Flags: W
HStem: 671 40<-234.682 -163.803> 794 39<-225.619 -154.972>
VStem: -303 66<713.223 864.459> -153 44<719.995 792.882> -1 71<785.065 888.859>
AnchorPoint: "AboveMark" -80 983 basemark 0
AnchorPoint: "AboveBase" 40 630 mark 0
LayerCount: 2
Fore
SplineSet
28 750 m 1
 66 771 132 832 132 954 c 1
 223 954 l 17
 220 942 l 1
 189 796 71 671 -90 671 c 1
 -81 713 l 1
 -30 737 -1 787 -1 834 c 0
 -1 863 -12 887 -31 894 c 1
 -109 848 l 1
 -171 899 l 1
 -205 892 -232 851 -238 824 c 0
 -240 813 -235 810 -235 809 c 2
 -235 809 -216 833 -176 833 c 0
 -136 833 -109 810 -109 774 c 0
 -109 731 -144 671 -210 671 c 0
 -272 671 -303 714 -303 777 c 0
 -303 889 -212 956 -151 963 c 1
 -96 906 l 1
 -13 963 l 1
 48 944 70 903 70 861 c 0
 70 829 55 786 26 753 c 1
 28 750 l 1
-184 794 m 0
 -216 794 -237 769 -237 743 c 0
 -237 726 -227 711 -202 711 c 0
 -173 711 -153 736 -153 762 c 0
 -153 779 -162 794 -184 794 c 0
EndSplineSet
Validated: 1
Substitution2: "Thai Phinthu Mai Tri Reordering" uni0E3A
EndChar

StartChar: uni0E4B.low
Encoding: 63245 63245 110
Width: 0
Flags: W
HStem: 770 81<-111 -26 86 169>
VStem: -128 314
DStem2: -43 677 46 677 0.207912 0.978148<18.5041 92.5459 197.996 269.813>
AnchorPoint: "AboveMark" 66 983 basemark 0
AnchorPoint: "AboveBase" 40 630 mark 0
LayerCount: 2
Fore
SplineSet
169 770 m 1
 66 768 l 1
 46 677 l 1
 -43 677 l 1
 -26 768 l 1
 -128 770 l 1
 -111 851 l 1
 -9 852 l 1
 8 942 l 1
 106 942 l 1
 86 852 l 1
 186 851 l 1
 169 770 l 1
EndSplineSet
Validated: 1
Substitution2: "Thai Phinthu Mai Chattawa Reordering" uni0E3A
EndChar

StartChar: uni0E4C.low
Encoding: 63246 63246 111
Width: 0
Flags: W
HStem: 671 48<-58.8757 17.7403>
VStem: -112 50<721.858 796.668> 30 53<731.225 806.489>
AnchorPoint: "AboveMark" 31 983 basemark 0
AnchorPoint: "AboveBase" 40 630 mark 0
LayerCount: 2
Fore
SplineSet
83 779 m 0
 83 719 27 671 -34 671 c 0
 -85 671 -112 705 -112 746 c 0
 -112 803 -63 864 46 889 c 1
 98 902 144 935 167 998 c 1
 247 974 l 17
 195 866 68 843 41 837 c 1
 41 836 l 1
 62 834 83 814 83 779 c 0
-6 809 m 0
 -40 809 -62 779 -62 755 c 0
 -62 736 -51 719 -25 719 c 0
 9 719 30 748 30 775 c 0
 30 793 19 809 -6 809 c 0
EndSplineSet
Validated: 1
Substitution2: "Thai Phinthu Thanthakhat Reordering" uni0E3A
EndChar

StartChar: uni0E0D.descless
Encoding: 63247 63247 112
Width: 800
Flags: W
HStem: -5 43<182.029 268.003 512.355 600.754> 143 44<225.646 281.365> 378 44<178 197 267.067 356> 545 53<292.098 428.087>
VStem: 106 71<42.3934 125.125> 285 47<55.3996 138.806> 403 99<48.8015 196.164> 468 104<370.565 504.944>
DStem2: 80.9425 -8 184.402 -8 0.207912 0.978148<216.777 391.484> 376.943 -8 479.831 -8 0.207912 0.978148<120.087 454.68> 602.044 -8 705.43 -8 0.207912 0.978148<87.2885 538.761>
LayerCount: 2
Fore
SplineSet
332 114 m 0xfd
 332 63 288 -5 204 -5 c 0
 125 -5 106 49 106 93 c 0
 106 104 107 115 109 124 c 2
 150 315 l 2
 154 336 176 373 197 378 c 1
 114 378 l 1
 150 522 284 598 398 598 c 0
 493 598 572 541 572 443 c 0xfd
 572 430 570 416 567 401 c 2
 503 101 l 2
 502 97 502 92 502 88 c 0
 502 61 521 41 551 41 c 0
 588 41 618 66 625 100 c 2
 714 519 l 1
 780 582 l 2
 787 589 801 592 810 592 c 0
 820 592 827 587 827 571 c 0
 827 566 826 559 824 551 c 2
 732 117 l 2
 720 61 637 -8 540 -8 c 0
 457 -8 403 41 403 102 c 0xfe
 403 109 403 117 405 124 c 2
 464 401 l 2
 467 414 468 427 468 438 c 0
 468 509 418 545 358 545 c 0
 294 545 219 505 178 422 c 1
 366 422 l 1
 356 378 l 1
 306 378 l 2
 278 378 261 355 255 326 c 2
 225 183 l 1
 237 186 248 187 257 187 c 0
 309 187 332 153 332 114 c 0xfd
242 143 m 0
 201 143 177 108 177 78 c 0
 177 57 189 38 220 38 c 0
 261 38 285 72 285 103 c 0
 285 125 272 143 242 143 c 0
EndSplineSet
Validated: 1
EndChar

StartChar: quoteleft
Encoding: 8216 8216 113
Width: 333
Flags: W
VStem: 203 157<483.381 578.571>
LayerCount: 2
Fore
SplineSet
360 540 m 0
 360 502 331 452 271 452 c 0
 221 452 203 482 203 521 c 0
 203 628 310 713 372 731 c 1
 379 703 l 1
 323 680 275 622 268 588 c 0
 267 583 266 581 268 581 c 0
 271 581 281 588 306 588 c 0
 337 588 360 570 360 540 c 0
EndSplineSet
Validated: 1
EndChar

StartChar: quoteright
Encoding: 8217 8217 114
Width: 333
Flags: W
HStem: 452 27<208.926 229.268> 602 129<265.571 339.051>
VStem: 223 157<603.005 700.375>
LayerCount: 2
Fore
SplineSet
223 645 m 0
 223 678 249 731 312 731 c 0
 363 731 380 700 380 660 c 0
 380 553 272 469 211 452 c 1
 203 479 l 1
 261 502 308 561 315 594 c 0
 316 597 317 602 315 602 c 0
 311 602 306 594 277 594 c 0
 246 594 223 613 223 645 c 0
EndSplineSet
Validated: 1
EndChar

StartChar: bullet
Encoding: 8226 8226 117
Width: 385
Flags: W
HStem: 177 285<211.706 310.916>
VStem: 116 290<273.097 366.346>
LayerCount: 2
Fore
SplineSet
406 350 m 0
 406 267 329 177 230 177 c 0
 163 177 116 225 116 289 c 0
 116 373 195 462 290 462 c 0
 360 462 406 414 406 350 c 0
EndSplineSet
Validated: 1
EndChar

StartChar: endash
Encoding: 8211 8211 118
Width: 768
Flags: W
HStem: 201 72<80 789>
LayerCount: 2
Fore
SplineSet
789 201 m 1
 65 201 l 1
 80 273 l 1
 804 273 l 1
 789 201 l 1
EndSplineSet
Validated: 1
EndChar

StartChar: emdash
Encoding: 8212 8212 119
Width: 1536
Flags: W
HStem: 201 72<67 1570>
LayerCount: 2
Fore
SplineSet
1570 201 m 1
 52 201 l 1
 67 273 l 1
 1585 273 l 1
 1570 201 l 1
EndSplineSet
Validated: 1
EndChar

StartChar: uni0E31.left
Encoding: 63248 63248 120
Width: 0
Flags: W
HStem: 676 49<-234.797 -57.7043> 880 49<-293.584 -208.461>
VStem: -367 55<780.262 862.051> -205 53<792.753 875.905> 87 102<882.262 923>
LayerCount: 2
Back
SplineSet
288 923 m 17
 212 737 10 676 -137 676 c 0
 -255 676 -352 736 -333 823 c 0
 -321 882 -264 929 -205 929 c 0
 -142 929 -108 885 -120 826 c 0
 -129 786 -158 754 -202 737 c 1
 -178 730 -150 726 -121 726 c 0
 -10 726 124 782 187 923 c 1
 288 923 l 17
-237 776 m 0
 -202 776 -180 802 -174 828 c 0
 -168 854 -180 880 -215 880 c 0
 -251 880 -273 854 -279 828 c 0
 -285 802 -273 776 -237 776 c 0
EndSplineSet
Fore
Refer: 177 3633 N 1 0 0 1 -164 0 2
Validated: 1
EndChar

StartChar: uni0E4D.left
Encoding: 63249 63249 121
Width: 0
Flags: W
HStem: 673 54<-212.794 -125.654> 831 57<-200.805 -113.332>
VStem: -274 57<731.47 814.936> -109 56<745.048 826.166>
LayerCount: 2
Back
SplineSet
-193 673 m 0
 -265 673 -290 727 -279 780 c 0
 -268 834 -219 888 -147 888 c 0
 -76 888 -53 834 -64 780 c 0
 -75 727 -122 673 -193 673 c 0
-181 727 m 0
 -146 727 -124 753 -118 779 c 0
 -113 805 -124 831 -159 831 c 0
 -195 831 -218 805 -223 779 c 0
 -229 753 -217 727 -181 727 c 0
EndSplineSet
Fore
Refer: 203 3661 N 1 0 0 1 -197 0 2
Validated: 1
EndChar

StartChar: uni0E47.left
Encoding: 63250 63250 122
Width: 0
Flags: W
HStem: 656 49<-221.246 -144.57> 736 56<-387.591 -316.073> 796 46<-211.377 -135.889> 888 50<-324.772 -138.78> 895 54<-382.167 -193.313>
VStem: -497 77<750.78 856.513> -133 51<716.739 793.826> -113 96<965.838 1025>
LayerCount: 2
Back
SplineSet
-4 1008 m 17
 -29 897 -113 872 -184 876 c 0
 -218 877 -279 886 -316 888 c 0
 -356 891 -390 861 -399 818 c 0
 -405 797 -404 773 -395 748 c 1
 -352 813 -279 777 -252 742 c 1
 -252 742 -240 733 -237 746 c 0
 -226 801 -178 830 -136 830 c 0
 -94 830 -57 802 -69 743 c 0
 -82 684 -137 656 -176 656 c 0
 -256 656 -285 733 -340 733 c 0
 -382 733 -387 687 -365 656 c 1
 -433 657 l 1
 -471 698 -481 753 -470 804 c 0
 -455 882 -390 949 -302 940 c 0
 -271 937 -211 931 -182 928 c 0
 -158 925 -103 928 -95 1008 c 1
 -4 1008 l 17
-111 743 m 0
 -105 772 -124 787 -145 787 c 0
 -167 787 -192 772 -198 743 c 0
 -204 714 -185 700 -163 700 c 0
 -142 700 -117 714 -111 743 c 0
EndSplineSet
Fore
Refer: 197 3655 N 1 0 0 1 -164 0 2
Validated: 1
EndChar

StartChar: uni0E48.left
Encoding: 63251 63251 123
Width: 0
Flags: W
HStem: 1021 206<-98 -51>
VStem: -128 134
LayerCount: 2
Back
SplineSet
21 1227 m 1
 -36 1021 l 1
 -113 1021 l 1
 -83 1227 l 1
 21 1227 l 1
EndSplineSet
Fore
Refer: 198 3656 N 1 0 0 1 -164 0 2
Validated: 1
EndChar

StartChar: uni0E49.left
Encoding: 63252 63252 124
Width: 0
Flags: W
HStem: 991 49<-178 -79.6982> 994 35<-286 -236.884> 1072 37<-242.655 -199> 1187 42<-235.823 -163.522>
VStem: -288 43<1111 1178.32> -162 47<1118 1184.82> 63 89<1182.84 1229>
LayerCount: 2
Back
SplineSet
207 1229 m 17
 117 957 -147 991 -193 994 c 1
 -185 1029 l 1
 -144 1034 -125 1052 -111 1071 c 1
 -111 1074 l 1
 -111 1074 -121 1071 -134 1072 c 0
 -177 1079 -192 1115 -184 1151 c 0
 -176 1190 -141 1229 -85 1229 c 0
 1 1229 -15 1152 -16 1150 c 0
 -31 1077 -76 1043 -76 1043 c 1
 -77 1040 l 1
 -77 1040 86 1054 118 1229 c 1
 207 1229 l 17
-111 1109 m 0
 -84 1109 -66 1128 -62 1148 c 0
 -58 1168 -68 1187 -95 1187 c 0
 -121 1187 -138 1168 -142 1148 c 0
 -146 1128 -137 1109 -111 1109 c 0
EndSplineSet
Fore
Refer: 199 3657 N 1 0 0 1 -261 0 2
Validated: 1
EndChar

StartChar: uni0E4A.left
Encoding: 63253 63253 125
Width: 0
Flags: W
HStem: 986 35<-186.505 -127.199> 1089 35<-179.659 -120.523>
VStem: -248 60<1021.45 1156.43> -119 37<1028.92 1087.25> 7 61<1075.81 1174.01> 121 74<1152.45 1226>
LayerCount: 2
Back
SplineSet
203 1226 m 17
 184 1098 81 986 -59 986 c 1
 -52 1021 l 1
 -14 1039 6 1071 12 1102 c 0
 19 1136 10 1167 -10 1175 c 1
 -73 1137 l 1
 -128 1178 l 1
 -160 1172 -182 1130 -184 1107 c 1
 -181 1104 l 1
 -181 1104 -165 1124 -131 1124 c 0
 -91 1124 -68 1098 -76 1057 c 0
 -85 1014 -119 986 -160 986 c 0
 -225 986 -251 1043 -236 1115 c 0
 -226 1160 -174 1227 -111 1232 c 1
 -64 1183 l 1
 5 1232 l 1
 69 1213 82 1167 73 1123 c 0
 67 1098 54 1073 38 1055 c 1
 41 1054 l 1
 89 1080 131 1141 129 1226 c 1
 203 1226 l 17
-153 1021 m 0
 -130 1021 -115 1038 -112 1055 c 0
 -108 1072 -116 1089 -139 1089 c 0
 -161 1089 -176 1072 -180 1055 c 0
 -183 1038 -175 1021 -153 1021 c 0
EndSplineSet
Fore
Refer: 200 3658 N 1 0 0 1 -132 0 2
Validated: 1
EndChar

StartChar: uni0E4B.left
Encoding: 63254 63254 126
Width: 0
Flags: W
HStem: 1072 74<-195 -117 -24 53>
VStem: -211 280
DStem2: -133 992 -59 992 0.207912 0.978148<15.3855 80.6002 174.275 238.658>
LayerCount: 2
Back
SplineSet
64 1075 m 1
 -30 1074 l 1
 -49 995 l 1
 -122 995 l 1
 -107 1074 l 1
 -201 1075 l 1
 -185 1149 l 1
 -91 1150 l 1
 -75 1229 l 1
 4 1229 l 1
 -14 1150 l 1
 80 1149 l 1
 64 1075 l 1
EndSplineSet
Fore
Refer: 201 3659 N 1 0 0 1 -164 0 2
Validated: 1
EndChar

StartChar: uni0E4C.left
Encoding: 63255 63255 127
Width: 0
Flags: W
HStem: 895 42<-140.088 -69.7273>
VStem: -189 46<939.348 1009.68> -59 48<946.409 1018.8>
LayerCount: 2
Back
SplineSet
143 1201 m 17
 97 1104 -18 1086 -43 1080 c 1
 -44 1077 l 1
 -21 1075 0 1049 -9 1008 c 0
 -19 962 -61 926 -112 926 c 0
 -167 926 -192 968 -182 1014 c 0
 -174 1054 -134 1106 -39 1123 c 0
 9 1132 48 1166 70 1223 c 1
 143 1201 l 17
-103 968 m 0
 -77 968 -60 989 -55 1010 c 0
 -51 1030 -60 1051 -86 1051 c 0
 -115 1051 -133 1030 -137 1010 c 0
 -142 989 -132 968 -103 968 c 0
EndSplineSet
Fore
Refer: 202 3660 N 1 0 0 1 -147 0 2
Validated: 1
EndChar

StartChar: uni0E01
Encoding: 3585 3585 129
Width: 602
Flags: W
HStem: 0 21G<83 191.233 410 515.257> 378 44<179 197 268.346 356> 544 54<302.658 452.239>
VStem: 499 102<323.062 499.522>
DStem2: 83 0 187 0 0.207912 0.978148<21.6228 383.487> 410 0 511 0 0.207912 0.978148<20.9991 441.538>
LayerCount: 2
Fore
SplineSet
511 0 m 1
 410 0 l 1
 495 399 l 2
 498 411 499 422 499 433 c 0
 499 507 441 544 373 544 c 0
 302 544 219 503 179 422 c 1
 366 422 l 1
 356 378 l 1
 307 378 l 2
 280 378 262 355 256 326 c 2
 187 0 l 1
 83 0 l 1
 150 315 l 2
 154 336 176 373 197 378 c 1
 114 378 l 1
 150 522 293 598 415 598 c 0
 516 598 601 542 601 444 c 0
 601 431 600 418 597 404 c 2
 511 0 l 1
EndSplineSet
Validated: 1
EndChar

StartChar: uni0E02
Encoding: 3586 3586 130
Width: 585
Flags: W
HStem: -8 46<341.255 401.075> 298 35<157.935 233.1> 432 35<171.496 247.724> 542 56<207.672 313.043>
VStem: 102 50<336.882 452.257> 246 95<38.4701 167.133> 253 38<351.206 426.867> 326 98<439.818 528.16>
DStem2: 222.218 -8 325.633 -8 0.207912 0.978148<102.194 505.576> 389.846 -8 493.218 -8 0.207912 0.978148<70.2077 540.966>
LayerCount: 2
Fore
SplineSet
102 395 m 0xfb
 102 497 178 598 297 598 c 0
 381 598 424 547 424 477 c 0xfb
 424 464 423 450 420 436 c 2
 342 69 l 2
 341 67 341 65 341 63 c 0
 341 50 351 38 367 38 c 0
 384 38 403 54 406 68 c 2
 503 521 l 1
 568 584 l 2
 574 590 589 594 598 594 c 0
 608 594 615 589 615 572 c 0
 615 567 614 560 613 553 c 2
 520 118 l 2
 505 46 445 -8 357 -8 c 0
 288 -8 246 34 246 91 c 0xfc
 246 100 247 109 249 118 c 2
 324 472 l 2
 325 477 326 483 326 487 c 0
 326 522 296 542 262 542 c 0
 228 542 172 523 154 436 c 1
 175 461 199 467 220 467 c 0
 267 467 291 439 291 402 c 0
 291 353 248 298 184 298 c 0
 124 298 102 343 102 395 c 0xfb
213 432 m 0
 176 432 152 399 152 371 c 0
 152 351 164 333 192 333 c 0
 230 333 253 365 253 395 c 0
 253 415 240 432 213 432 c 0
EndSplineSet
Validated: 1
EndChar

StartChar: uni0E03
Encoding: 3587 3587 131
Width: 637
Flags: W
HStem: -8 46<392.095 451.737> 255 37<158.432 235.89> 390 37<171.022 249.409> 579 20G<197 258.595 360.757 420.5>
VStem: 98 55<295.193 423.739> 254 40<308.335 386.122> 295 97<38.4625 164.688> 378 102<452.888 523.513>
DStem2: 271.218 -8 376.633 -8 0.207912 0.978148<105.083 519.849> 440.558 -8 543.756 -8 0.207912 0.978148<70.13 540.818>
LayerCount: 2
Fore
SplineSet
294 359 m 0xfd
 294 310 253 255 185 255 c 0
 118 255 98 306 98 363 c 0
 98 466 150 557 244 599 c 1
 298 525 l 1
 384 599 l 1
 457 590 480 548 480 499 c 0xfd
 480 484 478 470 475 455 c 2
 393 69 l 2
 392 67 392 64 392 62 c 0
 392 49 400 38 418 38 c 0
 438 38 453 54 456 68 c 2
 553 521 l 1
 619 584 l 2
 625 589 639 594 649 594 c 0
 658 594 665 589 665 572 c 0
 665 567 664 560 663 553 c 2
 570 118 l 2
 555 46 496 -8 408 -8 c 0
 338 -8 295 37 295 94 c 0xfe
 295 102 296 110 298 118 c 2
 376 485 l 2
 377 491 378 496 378 501 c 0
 378 513 374 522 362 525 c 1
 284 459 l 1
 226 536 l 1
 154 493 151 419 149 395 c 1
 170 421 203 427 222 427 c 0
 272 426 294 395 294 359 c 0xfd
214 390 m 0
 177 390 153 358 153 330 c 0
 153 309 165 292 193 292 c 0
 232 292 254 325 254 354 c 0
 254 374 241 390 214 390 c 0
EndSplineSet
Validated: 1
EndChar

StartChar: uni0E04
Encoding: 3588 3588 132
Width: 589
Flags: W
HStem: 0 21G<89 196.272 399 505.257> 249 44<282.806 368.723> 398 46<297.643 383.367> 547 52<265.694 445.734>
VStem: 106 51<324.703 449.335> 387 49<310.402 393.819> 487 105<372.923 506.042>
DStem2: 89 0 192 0 0.207912 0.978148<21.4149 246.245> 399 0 501 0 0.207912 0.978148<21.207 444.081>
LayerCount: 2
Fore
SplineSet
106 361 m 0
 106 472 205 599 374 599 c 0
 496 599 592 561 592 452 c 0
 592 437 591 421 587 404 c 2
 501 0 l 1
 399 0 l 1
 482 389 l 2
 486 406 487 421 487 436 c 0
 487 504 448 547 365 547 c 0
 226 547 157 445 157 383 c 0
 157 353 174 331 182 319 c 1
 185 319 l 1
 217 387 261 444 352 444 c 0
 410 444 436 408 436 368 c 0
 436 313 391 249 313 249 c 0
 288 249 267 258 257 267 c 1
 249 257 242 233 236 206 c 2
 192 0 l 1
 89 0 l 1
 139 233 l 2
 140 236 140 239 140 241 c 0
 140 273 106 300 106 361 c 0
345 398 m 0
 304 398 279 364 279 332 c 0
 279 311 292 293 322 293 c 0
 362 293 387 328 387 358 c 0
 387 379 375 398 345 398 c 0
EndSplineSet
Validated: 1
EndChar

StartChar: uni0E05
Encoding: 3589 3589 133
Width: 591
Flags: W
HStem: 0 21G<89 196.301 398 503.238> 218 45<278.25 365.104> 367 46<291.128 377.698> 578 20G<228 318.403 441.333 492>
VStem: 106 51<306.905 448.786> 382 47<279.854 362.356> 493 95<345.93 524.909>
DStem2: 89 0 192 0 0.207912 0.978148<21.4149 240.168> 301 598 283 535 0.687745 -0.725953<24.9093 101.977> 368 521 355 459 0.810068 0.586335<0 87.6811> 398 0 499 0 0.207912 0.978148<20.9991 476.606>
LayerCount: 2
Fore
SplineSet
429 336 m 0
 429 278 380 218 306 218 c 0
 281 218 262 223 250 237 c 1
 242 226 234 197 232 186 c 2
 192 0 l 1
 89 0 l 1
 138 229 l 2
 138 231 139 233 139 235 c 0
 139 263 106 297 106 360 c 0
 106 440 155 550 301 598 c 1
 368 521 l 1
 468 596 l 1
 516 583 588 558 588 452 c 0
 588 433 586 411 581 387 c 2
 499 0 l 1
 398 0 l 1
 484 404 l 2
 489 426 493 448 493 468 c 0
 493 495 485 519 460 535 c 1
 355 459 l 1
 283 535 l 1
 240 525 157 458 157 379 c 0
 157 348 169 321 186 295 c 1
 189 295 l 1
 217 346 258 413 346 413 c 0
 404 413 429 377 429 336 c 0
339 367 m 0
 300 367 274 334 274 303 c 0
 274 282 287 263 317 263 c 0
 357 263 382 297 382 326 c 0
 382 348 369 367 339 367 c 0
EndSplineSet
Validated: 1
EndChar

StartChar: uni0E06
Encoding: 3590 3590 134
Width: 757
Flags: W
HStem: -8 66<243.332 289.354> 0 21G<557.5 666.265> 174 49<270.188 310> 255 37<158.588 235.89> 390 37<171.022 249.409> 579 20G<181 258.595 360.757 420.5>
VStem: 98 55<295.289 421.539> 190 51<59.7045 146.962> 254 40<308.335 386.122> 378 102<453.379 523.513>
DStem2: 271.315 -8 377.754 -8 0.207912 0.978148<64.9915 186.066 247.112 519.829> 559.793 -8 660.3 -8 0.207912 0.978148<130.86 539.791>
LayerCount: 2
Fore
SplineSet
294 359 m 0xbfc0
 294 310 253 255 185 255 c 0
 119 255 98 303 98 360 c 0
 98 418 118 543 244 599 c 1
 298 525 l 1
 384 599 l 1
 457 590 480 548 480 499 c 0
 480 484 478 470 475 455 c 2
 423 214 l 1
 453 206 535 183 587 120 c 1
 672 520 l 1
 737 583 l 2
 743 588 756 594 766 594 c 0
 775 594 783 589 783 574 c 0
 783 569 782 564 781 558 c 2
 662 0 l 9
 576 0 l 17x7fc0
 539 120 447 152 414 163 c 1
 409 139 l 2
 392 62 365 -8 281 -8 c 0
 217 -8 190 31 190 77 c 0
 190 142 243 216 320 223 c 1
 376 485 l 2
 377 491 378 496 378 501 c 0
 378 513 374 522 362 525 c 1
 284 459 l 1
 226 536 l 1
 154 493 151 419 149 395 c 1
 170 421 203 427 222 427 c 0
 272 426 294 395 294 359 c 0xbfc0
310 174 m 1
 264 169 241 118 241 91 c 0
 241 73 251 58 273 58 c 0xbfc0
 281 58 287 66 290 80 c 2
 310 174 l 1
214 390 m 0
 177 390 153 358 153 330 c 0
 153 309 165 292 193 292 c 0
 232 292 254 325 254 354 c 0
 254 374 241 390 214 390 c 0
EndSplineSet
Validated: 1
EndChar

StartChar: uni0E07
Encoding: 3591 3591 135
Width: 479
Flags: W
HStem: 0 21G<277.027 394.262> 399 46<309.223 371.739> 549 49<322.387 408.046>
VStem: 260 45<449.633 532.022> 413 84<463.191 544.635>
DStem2: 286.131 0 390 0 0.207912 0.978148<119.614 412.047>
LayerCount: 2
Fore
SplineSet
260 476 m 0
 260 533 306 598 391 598 c 0
 481 598 497 552 497 517 c 0
 497 505 495 495 494 488 c 2
 390 0 l 1
 290 0 l 1
 98 296 l 1
 112 353 l 1
 311 117 l 1
 372 403 l 1
 361 400 351 399 342 399 c 0
 286 399 260 435 260 476 c 0
370 549 m 0
 331 549 305 516 305 485 c 0
 305 464 318 445 348 445 c 0
 388 445 413 479 413 508 c 0
 413 530 400 549 370 549 c 0
EndSplineSet
Validated: 1
EndChar

StartChar: uni0E08
Encoding: 3592 3592 136
Width: 565
Flags: W
HStem: -5 50<321.821 383.284> 237 44<197.908 253.135> 386 46<210.946 297.201> 540 57<272.427 424.162>
VStem: 149 45<285.567 367.949> 226 95<46.6801 107.073> 302 77<298.969 381.788> 461 106<330.312 504.943>
DStem2: 202.218 -5 304.995 -5 0.207912 0.978148<106.016 250.412> 368.726 -5 474.151 -5 0.207912 0.978148<70.472 458.938>
LayerCount: 2
Fore
SplineSet
149 312 m 0xfd
 149 374 202 432 276 432 c 0
 353 432 379 396 379 353 c 0xfb
 379 345 378 336 376 327 c 2
 322 75 l 2
 322 73 321 71 321 69 c 0
 321 56 331 45 348 45 c 0
 369 45 383 60 386 74 c 2
 458 415 l 2
 460 426 461 436 461 445 c 0
 461 508 412 540 350 540 c 0
 284 540 202 503 152 430 c 1
 119 450 l 1
 189 553 292 597 382 597 c 0
 483 597 567 541 567 448 c 0
 567 437 566 425 563 413 c 2
 501 121 l 2
 485 49 424 -5 337 -5 c 0
 274 -5 226 41 226 98 c 0
 226 105 227 113 229 121 c 2
 254 240 l 1
 246 238 237 237 228 237 c 0
 177 237 149 270 149 312 c 0xfd
259 386 m 0
 220 386 194 352 194 322 c 0
 194 300 207 281 237 281 c 0
 276 281 302 315 302 346 c 0
 302 367 289 386 259 386 c 0
EndSplineSet
Validated: 1
EndChar

StartChar: uni0E09
Encoding: 3593 3593 137
Width: 615
Flags: W
HStem: -8 43<436.663 522.654> 0 21G<164 251.5> 195 45<149.731 205.474> 344 46<161.915 248.201> 542 57<293.863 468.187>
VStem: 101 44<244.292 326.868> 164 83<0 29.0497> 253 77<257.098 339.329> 386 47<39.2871 119.286> 511 103<331.188 501.706> 541 51<52.705 135.583>
DStem2: 417.402 -8 520.262 -8 0.207912 0.978148<214.551 463.172>
LayerCount: 2
Fore
SplineSet
101 273 m 0x7fa0
 101 337 159 390 227 390 c 0
 304 390 330 355 330 312 c 0
 330 304 329 295 327 286 c 2
 299 154 l 2
 294 131 284 109 284 109 c 1
 308 131 366 175 458 183 c 1
 508 421 l 2
 510 430 511 438 511 446 c 0
 511 508 453 542 381 542 c 0
 308 542 220 506 165 430 c 1
 131 450 l 1
 197 552 313 599 414 599 c 0
 522 599 614 545 614 448 c 0x7fc0
 614 436 613 424 610 412 c 2
 570 226 l 2
 563 194 546 184 546 184 c 1
 545 181 l 1
 576 171 592 144 592 113 c 0
 592 57 546 -8 465 -8 c 0xbfa0
 414 -8 386 27 386 66 c 0
 386 93 398 111 404 120 c 1
 315 92 256 20 247 0 c 1
 164 0 l 1
 206 198 l 1
 199 197 188 195 179 195 c 0
 127 195 101 230 101 273 c 0x7fa0
210 344 m 0
 170 344 145 310 145 281 c 0
 145 259 158 240 188 240 c 0
 227 240 253 273 253 304 c 0
 253 325 240 344 210 344 c 0
498 140 m 0
 458 140 433 106 433 74 c 0
 433 53 446 35 475 35 c 0
 516 35 541 70 541 100 c 0xbfa0
 541 121 529 140 498 140 c 0
EndSplineSet
Validated: 1
EndChar

StartChar: uni0E0A
Encoding: 3594 3594 138
Width: 583
Flags: W
HStem: 0 45<167 234 336 397.439> 298 35<157.935 233.1> 432 35<171.496 247.724> 541 57<207.387 312.397>
VStem: 102 50<336.882 452.257> 253 38<351.206 426.867> 325 100<447.797 527.306> 471 102<168.361 384.167> 565 114<544.703 594>
DStem2: 224.435 0 326.435 0 0.207912 0.978148<67.2123 425.864>
LayerCount: 2
Fore
SplineSet
102 395 m 0xff
 102 497 178 598 297 598 c 0
 383 598 425 543 425 478 c 0
 425 467 424 456 422 445 c 1
 497 449 551 531 565 594 c 1
 679 594 l 17xfe80
 639 476 565 435 498 418 c 1
 549 416 573 360 573 289 c 0
 573 159 494 0 369 0 c 2
 157 0 l 1
 167 45 l 1
 234 45 l 1
 324 470 l 2
 325 475 325 480 325 484 c 0
 325 520 296 541 261 541 c 0
 227 541 172 522 154 436 c 1
 175 461 199 467 220 467 c 0
 267 467 291 439 291 402 c 0
 291 353 248 298 184 298 c 0
 124 298 102 343 102 395 c 0xff
365 45 m 2
 423 45 471 202 471 302 c 0xff
 471 341 464 373 448 386 c 1
 438 392 420 393 410 393 c 1
 336 45 l 1
 365 45 l 2
213 432 m 0
 176 432 152 399 152 371 c 0
 152 351 164 333 192 333 c 0
 230 333 253 365 253 395 c 0
 253 415 240 432 213 432 c 0
EndSplineSet
Validated: 1
EndChar

StartChar: uni0E0B
Encoding: 3595 3595 139
Width: 649
Flags: W
HStem: 0 45<220 283 388 449.638> 255 37<158.588 235.89> 390 37<171.022 249.409> 393 57<474 499.526> 579 20G<196 258.595 360.757 420.5>
VStem: 98 55<295.289 421.923> 254 40<308.335 386.122> 378 102<452.579 523.94> 523 102<165.693 384.219> 618 113<545.344 594>
DStem2: 273.435 0 378.435 0 0.207912 0.978148<67.8361 426.555 481.866 511.563>
LayerCount: 2
Fore
SplineSet
294 359 m 0xef80
 294 310 253 255 185 255 c 0
 119 255 98 303 98 360 c 0
 98 460 148 556 244 599 c 1
 298 525 l 1
 384 599 l 1
 457 591 480 549 480 499 c 0
 480 483 478 467 474 450 c 1
 554 453 603 531 618 594 c 1
 731 594 l 17xdf40
 691 476 617 435 550 418 c 1
 601 416 625 360 625 290 c 0
 625 160 547 0 421 0 c 2
 210 0 l 1
 220 45 l 1
 283 45 l 1
 376 485 l 2
 377 491 378 496 378 501 c 0
 378 513 374 522 362 525 c 1
 284 459 l 1
 226 536 l 1
 154 493 151 419 149 395 c 1
 170 421 203 427 222 427 c 0
 272 426 294 395 294 359 c 0xef80
417 45 m 2
 475 45 523 202 523 302 c 0xdf80
 523 341 516 373 500 386 c 1
 490 392 473 393 462 393 c 1
 388 45 l 1
 417 45 l 2
214 390 m 0xef
 177 390 153 358 153 330 c 0
 153 309 165 292 193 292 c 0
 232 292 254 325 254 354 c 0
 254 374 241 390 214 390 c 0xef
EndSplineSet
Validated: 1
EndChar

StartChar: uni0E0C
Encoding: 3596 3596 140
Width: 800
Flags: W
HStem: -8 61<387.744 427.708> -6 43<160.252 244.445> 141 42<225 258.877> 144 46<404.336 443> 378 44<179 197 267.067 356> 543 56<301.891 451.342>
VStem: 105 51<41.408 124.303> 263 47<54.6394 136.547> 338 49<53.0671 126.605> 499 100<316.953 499.363>
DStem2: 81.5802 -8 184.402 -8 0.207912 0.978148<216.645 392.448> 410.691 -8 509.604 -8 0.207912 0.978148<58.7887 155.396 215.862 451.221> 617.242 -8 720.3 -8 0.207912 0.978148<143.128 540.884>
LayerCount: 2
Fore
SplineSet
443 144 m 1x9fc0
 412 142 387 108 387 78 c 0
 387 63 393 53 405 53 c 0
 414 53 424 58 427 71 c 2
 443 144 l 1x9fc0
310 110 m 0
 310 58 270 -6 193 -6 c 0x6fc0
 122 -6 105 41 105 83 c 0
 105 97 107 110 109 121 c 2
 150 315 l 2
 154 336 176 373 197 378 c 1
 114 378 l 1
 150 522 292 599 414 599 c 0
 513 599 599 547 599 439 c 0
 599 428 598 415 596 402 c 2
 550 184 l 1
 568 180 622 167 647 132 c 1
 730 521 l 1
 795 584 l 2
 800 589 816 594 826 594 c 0
 835 594 842 589 842 572 c 0
 842 567 841 560 840 553 c 2
 722 0 l 1
 639 0 l 1
 640 6 640 12 640 18 c 0
 640 86 580 129 540 135 c 1
 522 52 502 -8 416 -8 c 0
 361 -8 338 26 338 66 c 0
 338 121 382 187 450 190 c 1x9fc0
 496 404 l 2
 498 415 499 425 499 435 c 0
 499 507 441 543 372 543 c 0
 301 543 219 504 179 422 c 1
 366 422 l 1
 356 378 l 1
 306 378 l 2
 278 378 261 355 255 326 c 2
 225 183 l 1
 235 183 l 2x2fc0
 286 183 310 149 310 110 c 0
220 141 m 0
 180 141 156 107 156 76 c 0
 156 55 169 37 198 37 c 0
 237 37 263 70 263 101 c 0
 263 122 251 141 220 141 c 0
EndSplineSet
Validated: 1
EndChar

StartChar: uni0E0D
Encoding: 3597 3597 141
Width: 800
Flags: W
HStem: -248 51<437.389 544.802> -178 26<437.336 474.109> -62 31<421.95 490.655> -5 43<182.029 268.003 512.355 600.754> 143 44<225.646 281.365> 378 44<178 197 267.067 356> 545 53<292.098 428.087>
VStem: 106 71<42.3934 125.125> 285 47<55.3996 138.806> 355 48<-148.896 -74.2624> 403 99<48.8015 196.164> 468 104<370.565 504.944> 496 30<-132.369 -68.0342>
DStem2: 29.929 -248 133.388 -248 0.207912 0.978148<462.139 636.846> 325.929 -248 428.818 -248 0.207912 0.978148<365.449 700.042> 558.517 -248 654.455 -248 0.207912 0.978148<87.1445 209.561 331.094 567.046>
LayerCount: 2
Fore
SplineSet
332 114 m 0xff90
 332 63 288 -5 204 -5 c 0
 125 -5 106 49 106 93 c 0
 106 104 107 115 109 124 c 2
 150 315 l 2
 154 336 176 373 197 378 c 1
 114 378 l 1
 150 522 284 598 398 598 c 0
 493 598 572 541 572 443 c 0xff90
 572 430 570 416 567 401 c 2
 503 101 l 2
 502 97 502 92 502 88 c 0
 502 61 521 41 551 41 c 0
 588 41 618 66 625 100 c 2
 714 519 l 1
 780 582 l 2
 787 589 801 592 810 592 c 0
 820 592 827 587 827 571 c 0
 827 566 826 559 824 551 c 2
 732 117 l 2
 720 61 637 -8 540 -8 c 0
 457 -8 403 41 403 102 c 0xffa0
 403 109 403 117 405 124 c 2
 464 401 l 2
 467 414 468 427 468 438 c 0
 468 509 418 545 358 545 c 0
 294 545 219 505 178 422 c 1
 366 422 l 1
 356 378 l 1
 306 378 l 2
 278 378 261 355 255 326 c 2
 225 183 l 1
 237 186 248 187 257 187 c 0
 309 187 332 153 332 114 c 0xff90
242 143 m 0
 201 143 177 108 177 78 c 0
 177 57 189 38 220 38 c 0
 261 38 285 72 285 103 c 0
 285 125 272 143 242 143 c 0
526 -90 m 0xffc8
 526 -143 483 -178 446 -178 c 0
 443 -178 440 -177 437 -177 c 1
 437 -181 l 1
 449 -192 466 -197 483 -197 c 0
 527 -197 576 -164 587 -114 c 2
 602 -43 l 1
 698 -43 l 1
 684 -109 l 2
 665 -199 568 -248 484 -248 c 0
 414 -248 355 -214 355 -142 c 0
 355 -72 408 -31 463 -31 c 0
 508 -31 526 -57 526 -90 c 0xffc8
440 -152 m 0
 471 -152 496 -125 496 -95 c 0
 496 -73 479 -62 459 -62 c 0
 435 -62 403 -82 403 -116 c 0
 403 -140 421 -152 440 -152 c 0
EndSplineSet
Validated: 1
Substitution2: "'ccmp' Pali-Sanskrit Descender Removal" uni0E0D.descless
Substitution2: "Thai Descender Removal Single Substitution" uni0E0D.descless
EndChar

StartChar: uni0E0E
Encoding: 3598 3598 142
Width: 612
Flags: W
HStem: -223 51<97.8387 192.186> -90 52<109.484 231.009> -5 43<69.243 154.592> 143 44<82.5079 135> 378 44<193 209 281.595 370> 544 55<316.045 467.486>
VStem: 21 44<42.7791 125.809> 44 52<-168.589 -103.592> 510 103<327.391 504.066>
DStem2: 44.0258 -241 146.219 -241 0.207912 0.978148<430.385 629.795> 368.141 -241 471 -241 0.207912 0.978148<117.112 697.156>
AnchorPoint: "BelowBase" 468 -241 basechar 0
LayerCount: 2
Fore
SplineSet
44 -154 m 0xfd80
 44 -84 109 -38 187 -38 c 0
 210 -38 235 -42 261 -51 c 1
 291 -5 314 6 330 15 c 1
 374 -9 l 1
 347 -22 324 -41 306 -71 c 1
 335 -80 376 -104 395 -127 c 1
 395 -127 398 -101 403 -77 c 2
 507 413 l 2
 509 423 510 433 510 442 c 0
 510 509 454 544 387 544 c 0
 315 544 231 504 193 422 c 1
 380 422 l 1
 370 378 l 1
 318 378 l 2
 290 378 271 346 265 318 c 2
 217 92 l 2
 203 29 153 -5 99 -5 c 0
 45 -5 21 29 21 68 c 0xfe80
 21 125 65 185 135 187 c 1
 160 304 l 2
 165 329 188 373 209 378 c 1
 128 378 l 1
 164 522 307 599 428 599 c 0
 524 599 613 545 613 446 c 0
 613 434 612 421 609 407 c 2
 471 -241 l 1
 387 -241 l 1
 371 -183 325 -146 276 -118 c 1
 242 -190 177 -223 124 -223 c 0
 80 -223 44 -199 44 -154 c 0xfd80
170 -90 m 0
 113 -90 96 -121 96 -142 c 0xfd80
 96 -161 114 -172 136 -172 c 0
 173 -172 210 -146 232 -100 c 1
 210 -93 189 -90 170 -90 c 0
130 143 m 0
 89 143 65 108 65 78 c 0xfe80
 65 57 77 38 108 38 c 0
 148 38 172 72 172 103 c 0
 172 125 159 143 130 143 c 0
EndSplineSet
Validated: 1
EndChar

StartChar: uni0E0F
Encoding: 3599 3599 143
Width: 612
Flags: W
HStem: -240 51<-7.39898 77.4218> -158 58<268.055 366.02> -99 48<5.8668 108.569> -25 20G<212.5 247.684> -8 45<68.6494 155.491> 141 46<81.0971 134> 378 44<193 209 281.595 370> 544 55<316.045 467.486>
VStem: -62 52<-186.001 -115.46> 20 45<41.1664 124.83> 388 83<-240 -207.181> 510 103<327.688 504.066>
DStem2: 43.2383 -240 146.431 -240 0.207912 0.978148<429.248 627.672> 368.131 -240 471 -240 0.207912 0.978148<119.614 696.179>
AnchorPoint: "BelowBase" 468 -241 basechar 0
LayerCount: 2
Fore
SplineSet
-62 -170 m 0xeff0
 -62 -122 -21 -51 64 -51 c 0
 90 -51 117 -58 139 -74 c 1
 157 -45 191 -20 234 -5 c 1xf7f0
 260 -43 l 1
 229 -51 191 -75 175 -104 c 1
 194 -115 209 -147 214 -169 c 1
 243 -126 289 -100 332 -100 c 0
 354 -100 375 -107 393 -123 c 1
 507 413 l 2
 509 423 510 433 510 442 c 0
 510 509 454 544 387 544 c 0
 315 544 231 504 193 422 c 1
 380 422 l 1
 370 378 l 1
 318 378 l 2
 290 378 271 346 265 318 c 2
 217 92 l 2
 203 29 152 -8 98 -8 c 0
 44 -8 20 28 20 69 c 0
 20 123 63 185 134 187 c 1
 159 304 l 2
 164 329 188 373 209 378 c 1
 128 378 l 1
 164 522 307 599 428 599 c 0
 524 599 613 545 613 446 c 0
 613 434 612 421 609 407 c 2
 471 -240 l 1
 388 -240 l 1
 384 -188 356 -158 321 -158 c 0
 289 -158 251 -183 219 -240 c 1
 176 -240 l 1
 176 -207 160 -172 144 -154 c 1
 116 -214 64 -240 19 -240 c 0
 -25 -240 -62 -214 -62 -170 c 0xeff0
56 -99 m 0
 14 -99 -10 -133 -10 -156 c 0
 -10 -176 6 -189 28 -189 c 0
 54 -189 89 -169 109 -120 c 1
 92 -105 73 -99 56 -99 c 0
130 141 m 0
 89 141 65 108 65 76 c 0
 65 55 78 37 108 37 c 0xeff0
 146 37 172 70 172 101 c 0
 172 122 160 141 130 141 c 0
EndSplineSet
Validated: 1
EndChar

StartChar: uni0E10
Encoding: 3600 3600 144
Width: 508
Flags: W
HStem: -289 48<170 281.92> -243 42<12.7654 77.1234> -202 36<239.997 286.665> -122 42<24.14 95> -74 40<250.763 326.066> -5 50<282.64 331.122> 166 44<146.23 201.062> 315 43<159.753 243.852> 489 76<378.119 517.957> 528 70<228.056 364.06>
VStem: -31 43<-199.638 -133.998> 97 45<214.254 298.671> 132 47<-233.667 -167.328> 186 96<45.2031 107.025> 193 42<-162.425 -88.421> 249 76<226.283 310.56> 329 65<-154.242 -76.2656> 392 102<302.94 371.172>
DStem2: 188 478 112 445 0.962206 -0.272322<0 231.511> 267.445 -289 357.908 -289 0.207912 0.978148<45.1307 94.0553 343.602 460.968 541.534 648.748>
LayerCount: 2
Fore
SplineSet
571 584 m 0x1fa440
 571 568 532 489 452 489 c 0x1fa440
 390 489 324 528 268 528 c 0
 237 528 210 516 188 478 c 1
 445 407 l 2
 456 403 494 397 494 354 c 0
 494 349 494 342 492 335 c 2
 444 106 l 2
 428 34 378 -5 292 -5 c 0
 229 -5 186 28 186 81 c 0x1f6440
 186 89 187 97 189 106 c 2
 202 169 l 1
 192 167 184 166 175 166 c 0
 124 166 97 200 97 243 c 0
 97 298 147 358 216 358 c 0
 293 358 325 325 325 281 c 0x1f71
 325 274 324 266 322 258 c 2
 283 75 l 2
 282 73 282 70 282 67 c 0
 282 56 288 45 303 45 c 0
 322 45 332 61 335 74 c 2
 390 333 l 2
 391 339 392 343 392 348 c 0
 392 362 386 368 377 370 c 2
 112 445 l 1
 139 497 196 598 316 598 c 0x1f6440
 362 598 430 565 485 565 c 0
 539 565 541 594 561 594 c 0
 567 594 571 591 571 584 c 0x1fa440
207 315 m 0
 166 315 142 281 142 249 c 0
 142 228 155 210 185 210 c 0
 224 210 249 243 249 274 c 0x1f31
 249 296 237 315 207 315 c 0
-31 -181 m 0
 -31 -132 17 -80 75 -80 c 0
 84 -80 93 -81 102 -84 c 1
 106 -71 111 -58 122 -46 c 1
 169 -52 l 1
 153 -66 146 -85 141 -106 c 1
 171 -121 179 -152 179 -181 c 0
 179 -198 176 -215 173 -228 c 2
 170 -241 l 1
 262 -241 l 2
 276 -241 281 -224 285 -208 c 1
 287 -197 l 1
 277 -200 273 -202 265 -202 c 0
 216 -202 193 -174 193 -139 c 0
 193 -90 236 -34 300 -34 c 0
 366 -34 394 -68 394 -109 c 0xbf2a80
 394 -116 393 -122 392 -129 c 2
 373 -218 l 2
 366 -249 345 -289 294 -289 c 2
 111 -289 l 1
 128 -206 l 2
 130 -197 132 -188 132 -180 c 0
 132 -175 131 -170 129 -166 c 1xbf2840
 118 -210 82 -243 32 -243 c 0x5f2840
 -19 -243 -31 -207 -31 -181 c 0
294 -74 m 0
 258 -74 235 -104 235 -129 c 0
 235 -149 247 -166 275 -166 c 0
 308 -166 329 -137 329 -108 c 0
 329 -90 319 -74 294 -74 c 0
75 -122 m 0
 40 -122 12 -142 12 -173 c 0
 12 -188 21 -201 41 -201 c 0x5f20
 70 -201 95 -168 95 -124 c 1
 89 -122 82 -122 75 -122 c 0
EndSplineSet
Validated: 1
Substitution2: "'ccmp' Pali-Sanskrit Descender Removal" uni0E10.descless
Substitution2: "Thai Descender Removal Single Substitution" uni0E10.descless
EndChar

StartChar: uni0E11
Encoding: 3601 3601 145
Width: 780
Flags: W
HStem: 0 21G<275 368.979 584 691.232> 255 37<158.588 235.89> 390 37<171.022 249.409> 508 88<648.69 738>
VStem: 98 55<295.289 421.336> 254 40<308.335 386.122> 379 99<452.356 524.508> 686 107<399.125 540>
DStem2: 274.91 0 375.972 0 0.207912 0.978148<231.393 508.576> 418 204 358 0 0.481203 0.876609<0 382.369> 584 0 687 0 0.207912 0.978148<21.4149 492.537>
LayerCount: 2
Fore
SplineSet
294 359 m 0
 294 310 253 255 185 255 c 0
 119 255 98 303 98 360 c 0
 98 417 118 543 244 599 c 1
 298 525 l 1
 384 599 l 1
 456 591 478 549 478 500 c 0
 478 486 476 470 473 455 c 2
 434 273 l 2
 428 246 420 226 414 206 c 1
 418 204 l 1
 465 303 521 395 572 490 c 1
 613 563 670 596 716 596 c 0
 760 596 793 566 793 514 c 0
 793 504 792 494 789 482 c 2
 687 0 l 1
 584 0 l 1
 685 473 l 2
 686 476 686 479 686 482 c 0
 686 498 677 508 663 508 c 0
 649 508 631 497 616 470 c 2
 358 0 l 1
 275 0 l 1
 378 485 l 2
 379 490 379 494 379 498 c 0
 379 512 374 522 362 525 c 1
 284 459 l 1
 226 536 l 1
 154 493 151 419 149 395 c 1
 170 421 203 427 222 427 c 0
 272 426 294 395 294 359 c 0
214 390 m 0
 177 390 153 358 153 330 c 0
 153 309 165 292 193 292 c 0
 232 292 254 325 254 354 c 0
 254 374 241 390 214 390 c 0
EndSplineSet
Validated: 1
EndChar

StartChar: uni0E12
Encoding: 3602 3602 146
Width: 798
Flags: W
HStem: -8 57<370.476 412.201> 0 21G<89 196.308 627 714.268> 146 44<389.562 429> 235 40<277.67 301> 379 43<291.316 376.594> 578 20G<219.5 318.403 443.507 495.5>
VStem: 98 58<261.794 428.864> 114 93<164 240.474> 229 44<279.117 362.73> 326 44<49.2838 126.459> 381 48<293.971 374.772> 492 98<342.328 525.047>
DStem2: 301 598 283 535 0.687745 -0.725953<25.3649 101.977> 368 521 355 459 0.810068 0.586335<0 86.8977> 396.266 -8 497.604 -8 0.207912 0.978148<56.6398 157.44 216.334 485.652> 605.242 -8 708.3 -8 0.207912 0.978148<143.128 540.884>
LayerCount: 2
Fore
SplineSet
229 307 m 0xbdf0
 229 356 269 422 345 422 c 0
 398 422 429 392 429 348 c 0
 429 228 239 166 206 65 c 1
 192 0 l 1
 89 0 l 1
 112 109 l 2
 113 115 114 121 114 129 c 0x7df0
 114 167 98 227 98 297 c 0
 98 409 138 547 301 598 c 1
 368 521 l 1
 470 598 l 1
 521 584 590 551 590 453 c 0
 590 436 588 417 583 396 c 2
 538 184 l 1
 556 180 609 167 635 132 c 1
 718 521 l 1
 783 584 l 2
 789 589 804 594 813 594 c 0
 823 594 830 589 830 572 c 0
 830 567 829 560 828 553 c 2
 710 0 l 9
 627 0 l 17x7ef0
 628 6 628 12 628 18 c 0
 628 86 568 129 528 135 c 1
 510 52 490 -8 404 -8 c 0
 349 -8 326 26 326 66 c 0
 326 121 370 187 438 190 c 1
 483 401 l 2
 489 429 492 451 492 469 c 0
 492 502 481 519 460 535 c 1
 355 459 l 1
 283 535 l 1
 248 525 156 471 156 362 c 0xbef0
 156 280 206 218 207 164 c 1
 245 210 300 231 301 235 c 1
 251 235 229 268 229 307 c 0xbdf0
429 146 m 1
 397 144 370 107 370 77 c 0
 370 61 378 49 391 49 c 0xbcf0
 400 49 410 55 412 68 c 2
 429 146 l 1
338 379 m 0
 298 379 273 346 273 314 c 0
 273 293 286 275 315 275 c 0
 355 275 381 309 381 338 c 0
 381 360 368 379 338 379 c 0
EndSplineSet
Validated: 1
EndChar

StartChar: uni0E13
Encoding: 3603 3603 147
Width: 800
Flags: W
HStem: -6 44<181.657 267.169 625.276 712.988> 0 21G<379 484.5> 143 44<225.646 281.365> 378 44<178 197 267.067 356> 545 53<292.098 427.826>
VStem: 106 71<42.0155 125.125> 285 47<55.3818 138.806> 468 104<370.444 505.122> 577 46<37.3172 117.79> 725 46<49.6941 128.499>
DStem2: 80.73 -9 184.189 -9 0.207912 0.978148<217.8 392.506> 377.087 -9 480.305 -9 0.207912 0.978148<29.9922 94.3467 159.476 455.628> 602.189 -9 704.938 -9 0.207912 0.978148<201.037 541.873>
LayerCount: 2
Fore
SplineSet
332 114 m 0x7fc0
 332 58 285 -6 203 -6 c 0xbfc0
 125 -6 106 48 106 93 c 0
 106 104 107 115 109 124 c 2
 150 315 l 2
 154 336 176 373 197 378 c 1
 114 378 l 1
 150 522 284 598 398 598 c 0
 491 598 572 542 572 444 c 0
 572 431 570 416 567 401 c 2
 509 126 l 1
 539 150 583 183 643 183 c 1
 715 521 l 1
 780 584 l 2
 786 590 801 594 810 594 c 0
 820 594 827 589 827 572 c 0
 827 567 826 560 825 553 c 2
 750 203 l 2
 748 194 737 175 730 169 c 1
 758 158 771 133 771 104 c 0
 771 52 726 -9 654 -9 c 0
 592 -9 577 28 577 61 c 0
 577 103 601 126 606 131 c 1
 534 101 490 23 479 0 c 1
 379 0 l 1
 464 401 l 2
 467 414 468 427 468 438 c 0
 468 509 418 545 358 545 c 0
 294 545 219 505 178 422 c 1
 366 422 l 1
 356 378 l 1
 306 378 l 2
 278 378 261 355 255 326 c 2
 225 183 l 1
 237 186 248 187 257 187 c 0
 309 187 332 153 332 114 c 0x7fc0
684 132 m 0
 647 132 623 101 623 71 c 0
 623 51 635 34 663 34 c 0
 701 34 725 66 725 94 c 0
 725 114 712 132 684 132 c 0
242 143 m 0
 201 143 177 108 177 78 c 0
 177 57 189 38 220 38 c 0
 261 38 285 72 285 103 c 0
 285 125 272 143 242 143 c 0
EndSplineSet
Validated: 1
EndChar

StartChar: uni0E14
Encoding: 3604 3604 148
Width: 608
Flags: W
HStem: 0 21G<101 207.308 418 523.272> 263 40<298.591 323> 407 43<311.451 397.732> 548 50<284.499 469.597>
VStem: 112 59<261.142 433.285> 249 44<307.425 389.195> 402 47<322.419 402.88> 509 102<380.652 507.868>
DStem2: 418 0 519 0 0.207912 0.978148<20.9991 449.824>
LayerCount: 2
Fore
SplineSet
249 336 m 0
 249 401 306 450 366 450 c 0
 418 450 449 420 449 376 c 0
 449 269 236 137 217 65 c 1
 203 0 l 1
 101 0 l 1
 121 94 l 2
 124 109 125 124 125 140 c 0
 125 191 112 246 112 308 c 0
 112 530 274 598 405 598 c 0
 513 598 611 556 611 452 c 0
 611 440 610 426 607 412 c 2
 519 0 l 1
 418 0 l 1
 506 412 l 2
 508 421 509 431 509 441 c 0
 509 493 480 548 394 548 c 0
 228 548 171 440 171 368 c 0
 171 301 209 230 218 163 c 1
 256 208 321 256 323 262 c 0
 323 263 323 263 322 263 c 0
 272 263 249 296 249 336 c 0
359 407 m 0
 318 407 293 373 293 343 c 0
 293 322 305 303 336 303 c 0
 377 303 402 337 402 368 c 0
 402 389 389 407 359 407 c 0
EndSplineSet
Validated: 1
EndChar

StartChar: uni0E15
Encoding: 3605 3605 149
Width: 611
Flags: W
HStem: 0 21G<103 210.308 418 523.242> 235 40<291.102 315> 379 43<303.759 389.385> 578 20G<233.5 331.403 460.948 515>
VStem: 112 59<268.166 429.992> 128 93<161 248.513> 243 43<279.117 361.646> 394 49<294.018 374.784> 512 98<342.461 525.047>
DStem2: 314 598 297 535 0.682661 -0.730735<26.233 102.005> 381 521 368 459 0.827476 0.561501<0 94.6778> 418 0 519 0 0.207912 0.978148<20.9991 477.466>
LayerCount: 2
Fore
SplineSet
243 307 m 0xf780
 243 365 290 422 359 422 c 0
 412 422 443 392 443 348 c 0
 443 228 253 166 220 65 c 1
 206 0 l 1
 103 0 l 1
 123 94 l 2
 127 111 128 127 128 143 c 0xf780
 128 197 112 244 112 307 c 0
 112 409 153 546 314 598 c 1
 381 521 l 1
 489 598 l 1
 541 584 610 551 610 453 c 0
 610 436 608 417 603 396 c 2
 519 0 l 1
 418 0 l 1
 503 401 l 2
 509 429 512 451 512 469 c 0
 512 502 501 519 480 535 c 1
 368 459 l 1
 297 535 l 1
 253 523 171 462 171 371 c 0xfb80
 171 294 221 218 221 161 c 1
 259 206 314 231 315 234 c 0
 315 235 315 235 314 235 c 0
 265 235 243 268 243 307 c 0xf780
351 379 m 0
 311 379 286 345 286 314 c 0
 286 293 299 275 328 275 c 0
 369 275 394 309 394 339 c 0
 394 360 382 379 351 379 c 0
EndSplineSet
Validated: 1
EndChar

StartChar: uni0E16
Encoding: 3606 3606 150
Width: 602
Flags: W
HStem: -6 43<174.964 260.653> 141 45<226.705 274.316> 378 44<179 197 267.067 356> 543 56<301.891 451.241>
VStem: 105 66<41.7139 124.465> 278 45<54.2558 136.996> 499 102<372.225 498.004>
DStem2: 82.0053 -6 184.827 -6 0.207912 0.978148<214.6 390.403> 408.725 -6 509.725 -6 0.207912 0.978148<27.1331 449.674>
LayerCount: 2
Fore
SplineSet
323 112 m 0
 323 55 281 -6 198 -6 c 0
 123 -6 105 44 105 87 c 0
 105 99 107 111 109 121 c 2
 150 315 l 2
 154 336 176 373 197 378 c 1
 114 378 l 1
 150 522 292 599 414 599 c 0
 512 599 601 542 601 443 c 0
 601 430 599 416 596 402 c 2
 511 0 l 1
 410 0 l 1
 496 404 l 2
 498 415 499 425 499 435 c 0
 499 507 441 543 372 543 c 0
 301 543 219 504 179 422 c 1
 366 422 l 1
 356 378 l 1
 306 378 l 2
 278 378 261 355 255 326 c 2
 225 183 l 1
 234 185 243 186 251 186 c 0
 301 186 323 151 323 112 c 0
236 141 m 0
 195 141 171 108 171 76 c 0
 171 55 184 37 214 37 c 0
 252 37 278 70 278 101 c 0
 278 122 266 141 236 141 c 0
EndSplineSet
Validated: 1
EndChar

StartChar: uni0E17
Encoding: 3607 3607 151
Width: 655
Flags: W
HStem: 0 21G<154 247.979 462 569.232> 393 48<178.506 238.146> 508 90<527.456 615.5> 545 51<191.489 277.801>
VStem: 124 50<445.31 527.195> 282 80<458.754 540.768> 564 107<399.125 540.5>
DStem2: 154.19 0 254.972 0 0.207912 0.978148<231.325 407.914> 296 204 237 0 0.481203 0.876609<0 383.856> 462 0 565 0 0.207912 0.978148<21.4149 492.537>
LayerCount: 2
Fore
SplineSet
124 472 m 0xee
 124 530 173 596 258 596 c 0xde
 347 596 362 550 362 515 c 0
 362 504 360 494 359 487 c 2
 313 273 l 2
 307 246 298 226 293 206 c 1
 296 204 l 1
 296 204 317 247 329 269 c 2
 451 490 l 2
 492 565 549 598 594 598 c 0
 637 598 671 567 671 514 c 0
 671 504 670 494 667 482 c 2
 565 0 l 1
 462 0 l 1
 563 473 l 2
 564 476 564 479 564 482 c 0
 564 498 555 508 541 508 c 0
 528 508 510 497 495 470 c 2
 237 0 l 1
 154 0 l 1
 239 399 l 1
 227 395 219 393 208 393 c 0
 151 393 124 430 124 472 c 0xee
239 545 m 0
 200 545 174 512 174 481 c 0
 174 460 187 441 217 441 c 0
 257 441 282 475 282 504 c 0
 282 526 269 545 239 545 c 0
EndSplineSet
Validated: 1
EndChar

StartChar: uni0E18
Encoding: 3608 3608 152
Width: 508
Flags: W
HStem: 0 45<50 94 197 322.45> 489 76<376.337 517.171> 528 70<226.056 362.258>
VStem: 391 101<302.979 370.678>
DStem2: 84.435 0 187.435 0 0.207912 0.978148<67.4202 371.964> 186 478 110 445 0.962206 -0.272322<0 232.732> 317.532 0 419.493 0 0.207912 0.978148<56.8526 354.509>
LayerCount: 2
Fore
SplineSet
570 584 m 0xd0
 570 567 531 489 450 489 c 0xd0
 389 489 322 528 266 528 c 0
 235 528 208 516 186 478 c 1
 443 407 l 2
 455 403 492 397 492 355 c 0
 492 349 492 342 490 335 c 2
 445 120 l 2
 427 38 378 0 306 0 c 2
 40 0 l 1
 50 45 l 1
 94 45 l 1
 161 364 l 1
 264 364 l 1
 197 45 l 1
 260 45 l 2
 305 45 331 61 339 101 c 2
 389 333 l 2
 390 339 391 343 391 347 c 0
 391 362 384 368 375 370 c 2
 110 445 l 1
 137 495 194 598 314 598 c 0xb0
 360 598 428 565 483 565 c 0
 538 565 538 594 560 594 c 0
 566 594 570 591 570 584 c 0xd0
EndSplineSet
Validated: 1
EndChar

StartChar: uni0E19
Encoding: 3609 3609 153
Width: 663
Flags: W
HStem: -8 46<475.389 557.345> 0 21G<154 244> 393 49<176.079 237.266> 547 51<189.462 275.918>
VStem: 124 48<446.36 529.756> 154 81<0 28.907> 280 82<460.844 542.562> 421 51<41.5834 122.173> 574 52<53.669 133.301>
DStem2: 152.3 -8 253.054 -8 0.207912 0.978148<142.698 412.99> 454.764 -8 556.812 -8 0.207912 0.978148<213.849 539.797>
LayerCount: 2
Fore
SplineSet
124 472 m 0x7b80
 124 531 174 598 256 598 c 0
 346 598 362 551 362 517 c 0
 362 505 360 496 359 489 c 2
 286 147 l 2
 284 135 279 123 276 111 c 1
 325 152 383 184 496 186 c 1
 567 520 l 1
 634 585 l 2
 639 590 652 594 662 594 c 0
 671 594 679 589 679 572 c 0
 679 567 679 561 677 553 c 2
 604 214 l 2
 603 206 591 189 583 183 c 1
 613 171 626 144 626 114 c 0
 626 59 579 -8 502 -8 c 0xbb80
 446 -8 421 28 421 67 c 0
 421 93 433 117 446 132 c 1
 333 124 253 34 235 0 c 1
 154 0 l 1x7780
 238 396 l 1
 227 393 217 393 206 393 c 0
 140 393 124 437 124 472 c 0x7b80
533 137 m 0
 496 137 472 105 472 76 c 0
 472 55 484 38 512 38 c 0
 552 38 574 74 574 98 c 0
 574 119 561 137 533 137 c 0
237 547 m 0
 198 547 172 513 172 482 c 0
 172 461 185 442 215 442 c 0
 254 442 280 476 280 506 c 0
 280 528 267 547 237 547 c 0
EndSplineSet
Validated: 1
EndChar

StartChar: uni0E1A
Encoding: 3610 3610 154
Width: 649
Flags: W
HStem: 0 45<108 164 265 457.492> 393 49<176.249 237.266> 547 51<189.566 274.87>
VStem: 124 48<446.265 529.382> 280 82<459.391 542.337>
DStem2: 154.435 0 255.435 0 0.207912 0.978148<67.0044 404.721> 455.469 0 558.493 0 0.207912 0.978148<65.3758 531.617>
LayerCount: 2
Fore
SplineSet
124 471 m 0
 124 530 173 598 258 598 c 0
 346 598 362 551 362 516 c 0
 362 505 360 494 359 487 c 2
 265 45 l 1
 409 45 l 2
 440 45 468 63 478 106 c 2
 566 520 l 1
 632 583 l 2
 637 588 653 594 663 594 c 0
 672 594 679 589 679 575 c 0
 679 571 678 565 677 559 c 2
 584 120 l 2
 574 74 532 0 441 0 c 2
 98 0 l 1
 108 45 l 1
 164 45 l 1
 238 396 l 1
 227 395 216 393 208 393 c 0
 150 393 124 429 124 471 c 0
237 547 m 0
 198 547 172 513 172 482 c 0
 172 461 185 442 215 442 c 0
 254 442 280 476 280 506 c 0
 280 528 267 547 237 547 c 0
EndSplineSet
Validated: 1
EndChar

StartChar: uni0E1B
Encoding: 3611 3611 155
Width: 649
Flags: W
HStem: 0 45<108 164 265 473.481> 393 49<176.249 237.266> 547 51<189.566 274.87>
VStem: 124 48<446.265 529.382> 280 82<459.391 542.337>
DStem2: 154.435 0 255.435 0 0.207912 0.978148<67.0044 404.721> 470.469 0 573.493 0 0.207912 0.978148<65.4701 923.089>
AnchorPoint: "AboveBase" 541 630 basechar 0
LayerCount: 2
Fore
SplineSet
124 471 m 0
 124 530 173 598 258 598 c 0
 346 598 362 551 362 516 c 0
 362 505 360 494 359 487 c 2
 265 45 l 1
 425 45 l 2
 456 45 483 63 493 106 c 2
 662 903 l 1
 728 966 l 2
 733 971 750 977 760 977 c 0
 769 977 775 972 775 959 c 0
 775 954 774 949 773 942 c 2
 599 120 l 2
 589 74 548 0 457 0 c 2
 98 0 l 1
 108 45 l 1
 164 45 l 1
 238 396 l 1
 227 395 216 393 208 393 c 0
 150 393 124 429 124 471 c 0
237 547 m 0
 198 547 172 513 172 482 c 0
 172 461 185 442 215 442 c 0
 254 442 280 476 280 506 c 0
 280 528 267 547 237 547 c 0
EndSplineSet
Validated: 1
EndChar

StartChar: uni0E1C
Encoding: 3612 3612 156
Width: 649
Flags: W
HStem: 0 21G<80 188.118 455 562.242> 397 48<264.653 349.001> 550 48<276.494 362.124>
VStem: 367 52<462.275 545.678>
DStem2: 80 0 184 0 0.207912 0.978148<21.6228 114.886 151.573 432.139> 202 129 208 66 0.625126 0.780524<0 237.721> 405 382 385 287 0.313649 -0.949539<83.9332 263.702> 455 0 558 0 0.207912 0.978148<21.4149 44.5642 136.209 533.671>
LayerCount: 2
Fore
SplineSet
419 519 m 0
 419 462 372 397 292 397 c 0
 283 397 274 397 266 399 c 1
 221 187 l 2
 216 163 202 129 202 129 c 1
 202 129 231 169 242 183 c 2
 405 382 l 1
 476 187 l 2
 482 172 489 132 489 132 c 1
 489 132 490 166 495 190 c 2
 566 522 l 1
 632 585 l 2
 639 591 654 596 664 596 c 0
 673 596 679 592 679 578 c 0
 679 573 678 568 677 561 c 2
 558 0 l 1
 455 0 l 1
 462 34 l 2
 463 38 463 41 463 44 c 0
 463 55 458 61 458 66 c 1
 385 287 l 1
 208 66 l 1
 205 60 195 54 191 34 c 2
 184 0 l 1
 80 0 l 1
 182 478 l 2
 195 539 235 598 334 598 c 0
 392 598 419 561 419 519 c 0
324 550 m 0
 285 550 259 517 259 486 c 0
 259 464 272 445 302 445 c 0
 342 445 367 480 367 509 c 0
 367 531 354 550 324 550 c 0
EndSplineSet
Validated: 1
EndChar

StartChar: uni0E1D
Encoding: 3613 3613 157
Width: 662
Flags: W
HStem: 0 21G<80 188.118 470 577.244> 397 48<264.653 349.001> 550 48<276.494 362.124>
VStem: 367 52<462.275 545.678>
DStem2: 80 0 184 0 0.207912 0.978148<21.6228 111.708 151.573 432.139> 242 183 208 66 0.632501 0.77456<-67.0904 183.523> 415 390 395 295 0.322421 -0.946596<83.4782 272.888> 470 0 573 0 0.207912 0.978148<21.4149 44.5642 136.209 913.967>
AnchorPoint: "AboveBase" 538 630 basechar 0
LayerCount: 2
Fore
SplineSet
419 519 m 0
 419 462 372 397 292 397 c 0
 283 397 274 397 266 399 c 1
 221 187 l 2
 216 163 202 129 202 129 c 1
 202 129 231 169 242 183 c 2
 415 390 l 1
 492 187 l 2
 498 172 504 132 504 132 c 1
 504 132 505 166 510 190 c 2
 660 894 l 1
 727 957 l 2
 733 962 749 968 758 968 c 0
 767 968 773 964 773 950 c 0
 773 945 772 940 771 933 c 2
 573 0 l 1
 470 0 l 1
 477 34 l 2
 478 38 478 41 478 44 c 0
 478 55 474 61 473 66 c 2
 395 295 l 1
 208 66 l 1
 205 60 195 54 191 34 c 2
 184 0 l 1
 80 0 l 1
 182 478 l 2
 195 539 235 598 334 598 c 0
 392 598 419 561 419 519 c 0
324 550 m 0
 285 550 259 517 259 486 c 0
 259 464 272 445 302 445 c 0
 342 445 367 480 367 509 c 0
 367 531 354 550 324 550 c 0
EndSplineSet
Validated: 1
EndChar

StartChar: uni0E1E
Encoding: 3614 3614 158
Width: 723
Flags: W
HStem: 0 21G<155 260.622 532.956 635.258> 392 49<178.821 238.168> 545 49<191.595 277.918>
VStem: 125 49<445.265 527.274> 282 82<457.504 540.845>
DStem2: 155.04 0 257.223 0 0.207912 0.978148<19.7432 41.5765 182.743 403.825> 524 588 489 450 0.101692 -0.994816<133.725 429.657> 512 588 489 450 0.46906 0.883167<-483.489 -132.665> 529.683 0 631.181 0 0.207912 0.978148<165.557 530.595>
LayerCount: 2
Fore
SplineSet
125 470 m 0
 125 527 173 594 258 594 c 0
 348 594 364 548 364 514 c 0
 364 503 362 494 361 487 c 2
 311 253 l 2
 305 226 281 160 281 160 c 1
 287 160 l 1
 287 160 310 217 326 249 c 1
 512 588 l 1
 524 588 l 1
 566 249 l 2
 567 233 567 211 567 192 c 2
 567 160 l 1
 573 160 l 1
 573 160 578 226 584 253 c 2
 640 519 l 1
 708 582 l 2
 714 588 729 594 738 594 c 0
 746 594 752 590 752 576 c 0
 752 571 752 566 750 559 c 2
 631 0 l 1
 535 0 l 1
 489 450 l 1
 250 0 l 1
 155 0 l 1
 239 395 l 1
 228 393 217 392 209 392 c 0
 151 392 125 428 125 470 c 0
239 545 m 0
 200 545 174 512 174 481 c 0
 174 460 187 441 217 441 c 0
 257 441 282 475 282 504 c 0
 282 526 269 545 239 545 c 0
EndSplineSet
Validated: 1
EndChar

StartChar: uni0E1F
Encoding: 3615 3615 159
Width: 723
Flags: W
HStem: 0 21G<155 260.622 532.956 635.244> 392 49<178.821 238.168> 545 49<191.595 277.918>
VStem: 125 49<445.265 527.274> 282 82<457.504 540.845>
DStem2: 155.04 0 257.223 0 0.207912 0.978148<19.7432 41.5765 182.743 403.825> 524 588 489 450 0.101692 -0.994816<133.725 429.657> 512 588 489 450 0.46906 0.883167<-483.489 -132.665> 529.974 0 630.685 0 0.207912 0.978148<165.497 913.972>
AnchorPoint: "AboveBase" 599 630 basechar 0
LayerCount: 2
Fore
SplineSet
125 470 m 0
 125 527 173 594 258 594 c 0
 348 594 364 548 364 514 c 0
 364 503 362 494 361 487 c 2
 311 253 l 2
 305 226 281 160 281 160 c 1
 287 160 l 1
 287 160 310 217 326 249 c 1
 512 588 l 1
 524 588 l 1
 566 249 l 2
 567 233 567 211 567 192 c 2
 567 160 l 1
 573 160 l 1
 573 160 578 226 584 253 c 2
 720 894 l 1
 787 957 l 2
 793 962 809 968 818 968 c 0
 826 968 831 964 831 951 c 0
 831 946 831 940 829 933 c 2
 631 0 l 1
 535 0 l 1
 489 450 l 1
 250 0 l 1
 155 0 l 1
 239 395 l 1
 228 393 217 392 209 392 c 0
 151 392 125 428 125 470 c 0
239 545 m 0
 200 545 174 512 174 481 c 0
 174 460 187 441 217 441 c 0
 257 441 282 475 282 504 c 0
 282 526 269 545 239 545 c 0
EndSplineSet
Validated: 1
EndChar

StartChar: uni0E20
Encoding: 3616 3616 160
Width: 617
Flags: W
HStem: -8 45<74.6494 161.934> 0 21G<425 532.275> 141 46<87.0971 140> 378 44<199 215 287.945 376> 544 55<322.045 471.601>
VStem: 26 45<41.1664 124.83> 516 103<326.719 503.427>
DStem2: 98.5515 -8 201.744 -8 0.207912 0.978148<192.065 390.55> 423.3 -8 526.3 -8 0.207912 0.978148<29.5936 459.026>
LayerCount: 2
Fore
SplineSet
528 0 m 1x7e
 425 0 l 1x7e
 513 413 l 2
 515 423 516 433 516 442 c 0
 516 509 460 544 393 544 c 0
 321 544 237 504 199 422 c 1
 386 422 l 1
 376 378 l 1
 324 378 l 2
 297 378 277 346 271 318 c 2
 223 92 l 2
 209 29 158 -8 104 -8 c 0xbe
 50 -8 26 28 26 69 c 0
 26 123 69 185 140 187 c 1
 165 304 l 2
 170 329 194 373 215 378 c 1
 134 378 l 1
 170 522 313 599 434 599 c 0
 532 599 619 543 619 445 c 0
 619 433 618 420 615 407 c 2
 528 0 l 1x7e
136 141 m 0
 95 141 71 108 71 76 c 0
 71 55 84 37 114 37 c 0xbe
 153 37 179 70 179 101 c 0
 179 122 167 141 136 141 c 0
EndSplineSet
Validated: 1
EndChar

StartChar: uni0E21
Encoding: 3617 3617 161
Width: 652
Flags: W
HStem: -8 63<116.75 169.107> 0 21G<458 568.237> 177 47<303 344.025> 187 46<147.712 194> 392 49<175.996 237.459> 545 49<189.215 274.458>
VStem: 63 49<57.3056 152.421> 124 48<445.265 527.898> 280 82<457.746 540.845>
DStem2: 152.551 -8 253.677 -8 0.207912 0.978148<60.7014 199.356 258.21 411.959> 460.068 -8 562.3 -8 0.207912 0.978148<124.726 538.756>
LayerCount: 2
Fore
SplineSet
293 177 m 1x6f80
 275 92 266 -8 158 -8 c 0
 91 -8 63 32 63 79 c 0
 63 145 115 227 204 233 c 1x9f80
 238 395 l 1
 227 393 215 392 207 392 c 0
 150 392 124 428 124 470 c 0
 124 524 168 594 257 594 c 0
 346 594 362 548 362 514 c 0
 362 503 360 494 359 487 c 2
 303 224 l 1
 353 215 439 175 486 114 c 1
 572 519 l 1
 640 583 l 2
 646 588 658 594 668 594 c 0
 677 594 684 589 684 575 c 0
 684 570 684 564 682 557 c 2
 564 0 l 25
 470 0 l 17
 446 80 403 141 293 177 c 1x6f80
194 187 m 1
 154 186 112 139 112 99 c 0
 112 75 125 55 144 55 c 0
 155 55 167 60 170 75 c 2
 194 187 l 1
237 545 m 0
 198 545 172 512 172 481 c 0
 172 460 185 441 215 441 c 0
 255 441 280 475 280 504 c 0
 280 526 267 545 237 545 c 0
EndSplineSet
Validated: 1
EndChar

StartChar: uni0E22
Encoding: 3618 3618 162
Width: 603
Flags: W
HStem: -8 46<225.107 387.146> 283 44<265.369 338> 398 47<262.973 349.776> 550 48<275.787 362.124>
VStem: 104 97<61.5142 213.651> 160 98<333.781 406.682> 367 52<461.957 545.678>
DStem2: 72.6528 -8 174.943 -8 0.207912 0.978148<139.446 283.207 418.425 445.091> 408.517 -8 509.315 -8 0.207912 0.978148<111.579 537.684>
LayerCount: 2
Fore
SplineSet
419 519 m 0xf6
 419 460 371 398 297 398 c 0
 285 398 269 399 261 407 c 1
 259 397 258 388 258 380 c 0xf6
 258 347 275 327 308 327 c 2
 348 327 l 1
 338 283 l 1
 298 283 l 2
 263 283 232 258 220 203 c 2
 203 124 l 2
 202 118 201 113 201 107 c 0
 201 61 247 38 301 38 c 0
 369 38 425 71 437 126 c 2
 520 518 l 1
 585 583 l 2
 590 589 604 594 614 594 c 0
 623 594 631 589 631 573 c 0
 631 568 630 563 629 557 c 2
 548 174 l 2
 525 65 431 -8 290 -8 c 0
 176 -8 104 35 104 122 c 0xfa
 104 135 106 148 109 163 c 2
 114 187 l 2
 129 257 175 289 206 306 c 1
 189 316 160 339 160 389 c 0
 160 400 161 411 164 424 c 2
 170 452 l 2
 185 521 225 598 334 598 c 0
 392 598 419 561 419 519 c 0xf6
324 550 m 0
 285 550 259 517 259 486 c 0
 259 464 272 445 302 445 c 0
 342 445 367 480 367 509 c 0
 367 531 354 550 324 550 c 0
EndSplineSet
Validated: 1
EndChar

StartChar: uni0E23
Encoding: 3619 3619 163
Width: 448
Flags: W
HStem: -3 49<197.199 282.301> 151 49<211.252 296.054> 495 71<373.515 497.4> 530 68<227.124 367.217>
VStem: 141 52<49.9161 133.154> 331 102<319 387.906>
DStem2: 185 478 110 445 0.961879 -0.273475<0 170.933> 253.914 -3 355.256 -3 0.207912 0.978148<202.423 376.734>
LayerCount: 2
Fore
SplineSet
539 583 m 0xec
 539 566 509 495 431 495 c 0xec
 381 495 330 530 272 530 c 0
 234 530 208 513 185 478 c 1
 388 422 l 2
 415 415 433 400 433 371 c 0
 433 365 432 358 430 350 c 2
 378 104 l 2
 372 73 347 -3 229 -3 c 0
 167 -3 141 33 141 74 c 0
 141 135 194 200 269 200 c 0
 278 200 288 198 296 195 c 1
 329 350 l 2
 330 356 331 361 331 366 c 0
 331 376 327 384 314 387 c 2
 110 445 l 1
 138 499 201 598 310 598 c 0xdc
 364 598 427 566 470 566 c 0
 508 566 509 594 530 594 c 0
 535 594 539 590 539 583 c 0xec
258 151 m 0
 219 151 193 117 193 85 c 0
 193 64 206 46 236 46 c 0
 275 46 300 81 300 111 c 0
 300 133 287 151 258 151 c 0
EndSplineSet
Validated: 1
EndChar

StartChar: uni0E24
Encoding: 3620 3620 164
Width: 599
Flags: W
HStem: -6 43<171.158 255.761> 141 45<222.104 269.573> 378 44<176 194 264.067 353> 543 56<298.739 447.885>
VStem: 102 64<41.8103 123.98> 274 46<53.8317 136.533> 495 103<371.811 498.004>
DStem2: 28.2043 -245 131.026 -245 0.207912 0.978148<458.94 634.742> 354.073 -245 454.846 -245 0.207912 0.978148<98.6498 693.982>
LayerCount: 2
Fore
SplineSet
320 111 m 0
 320 61 284 -6 195 -6 c 0
 120 -6 102 44 102 87 c 0
 102 99 104 111 106 121 c 2
 147 315 l 2
 151 336 173 373 194 378 c 1
 111 378 l 1
 147 522 289 599 411 599 c 0
 510 599 598 542 598 443 c 0
 598 430 596 416 593 402 c 2
 471 -169 l 1
 403 -233 l 2
 397 -239 383 -245 374 -245 c 0
 366 -245 360 -240 360 -225 c 0
 360 -219 361 -212 363 -203 c 2
 492 404 l 2
 494 415 495 425 495 435 c 0
 495 507 437 543 368 543 c 0
 298 543 216 504 176 422 c 1
 363 422 l 1
 353 378 l 1
 303 378 l 2
 275 378 258 355 252 326 c 2
 222 183 l 1
 231 185 240 186 248 186 c 0
 297 186 320 151 320 111 c 0
231 141 m 0
 192 141 166 108 166 77 c 0
 166 56 179 37 209 37 c 0
 249 37 274 71 274 100 c 0
 274 122 261 141 231 141 c 0
EndSplineSet
Validated: 1
EndChar

StartChar: uni0E25
Encoding: 3621 3621 165
Width: 579
Flags: W
HStem: -5 46<168.069 254.541> 146 45<216.426 267.846> 376 54<288.498 420.606> 540 58<286.44 444.692>
VStem: 95 69<45.1619 129.188> 272 50<58.2487 142.079> 482 98<380.203 505.049>
DStem2: 71.4304 -5 174.189 -5 0.207912 0.978148<217.654 361.013> 385.937 -5 486.937 -5 0.207912 0.978148<26.1108 308.328 393.086 461.728>
LayerCount: 2
Fore
SplineSet
322 117 m 0
 322 59 270 -5 195 -5 c 0
 118 -5 95 50 95 94 c 0
 95 103 96 112 98 120 c 2
 129 266 l 2
 146 350 237 430 348 430 c 0
 410 430 449 410 470 379 c 1
 479 422 l 2
 481 431 482 439 482 447 c 0
 482 507 431 540 366 540 c 0
 299 540 216 505 159 430 c 1
 127 450 l 1
 204 554 306 598 394 598 c 0
 497 598 580 538 580 447 c 0
 580 436 578 425 576 413 c 2
 488 0 l 1
 387 0 l 1
 447 283 l 2
 448 288 449 293 449 297 c 0
 449 338 412 376 358 376 c 0
 294 376 245 329 234 276 c 2
 215 187 l 1
 226 189 237 191 247 191 c 0
 299 191 322 157 322 117 c 0
229 146 m 0
 189 146 164 111 164 81 c 0
 164 59 177 41 207 41 c 0
 246 41 272 75 272 107 c 0
 272 128 259 146 229 146 c 0
EndSplineSet
Validated: 1
EndChar

StartChar: uni0E26
Encoding: 3622 3622 166
Width: 612
Flags: W
HStem: -8 45<68.6494 155.175> 141 46<83.6298 134> 378 44<193 209 281.595 370> 544 55<316.045 465.601>
VStem: 20 45<41.1664 124.668> 510 103<326.188 504.066>
DStem2: 42.1756 -245 145.281 -245 0.207912 0.978148<434.359 632.783> 367.073 -245 469.846 -245 0.207912 0.978148<99.0656 701.29>
LayerCount: 2
Fore
SplineSet
609 407 m 2
 486 -169 l 1
 417 -233 l 2
 412 -238 397 -245 388 -245 c 0
 379 -245 373 -240 373 -225 c 0
 373 -219 374 -212 376 -203 c 2
 507 413 l 2
 509 423 510 433 510 442 c 0
 510 509 454 544 387 544 c 0
 315 544 231 504 193 422 c 1
 380 422 l 1
 370 378 l 1
 318 378 l 2
 290 378 271 346 265 318 c 2
 215 83 l 2
 201 20 152 -8 98 -8 c 0
 44 -8 20 28 20 69 c 0
 20 123 63 185 134 187 c 1
 159 304 l 2
 164 329 188 373 209 378 c 1
 128 378 l 1
 164 522 307 599 428 599 c 0
 526 599 613 545 613 446 c 0
 613 434 612 421 609 407 c 2
130 141 m 0
 89 141 65 107 65 76 c 0
 65 55 78 37 108 37 c 0
 146 37 172 70 172 101 c 0
 172 122 160 141 130 141 c 0
EndSplineSet
Validated: 1
EndChar

StartChar: uni0E27
Encoding: 3623 3623 167
Width: 502
Flags: W
HStem: -5 45<250.872 338.401> 144 46<264.378 350.324> 542 55<234.442 379.07>
VStem: 198 49<44.2811 127.275> 406 100<348.93 514.658>
DStem2: 309.402 -5 412.092 -5 0.207912 0.978148<195.267 476.602>
LayerCount: 2
Fore
SplineSet
198 73 m 0
 198 124 245 190 316 190 c 0
 332 190 341 189 350 186 c 1
 404 441 l 2
 406 448 406 456 406 462 c 0
 406 513 365 542 311 542 c 0
 254 542 184 509 138 436 c 1
 102 458 l 1
 160 554 255 597 338 597 c 0
 429 597 506 546 506 458 c 0
 506 446 505 434 502 421 c 2
 441 131 l 2
 423 46 378 -5 275 -5 c 0
 229 -5 198 30 198 73 c 0
312 144 m 0
 273 144 247 111 247 80 c 0
 247 59 260 40 290 40 c 0
 330 40 355 74 355 103 c 0
 355 125 342 144 312 144 c 0
EndSplineSet
Validated: 1
EndChar

StartChar: uni0E28
Encoding: 3624 3624 168
Width: 589
Flags: W
HStem: 0 21G<89 196.272 399 505.242> 249 44<274.588 361.836> 398 46<289.055 375.94> 545 54<265.476 444.27>
VStem: 106 51<324.703 448.882> 380 45<310.837 365.748> 598 102<581.474 627>
DStem2: 89 0 192 0 0.207912 0.978148<21.4149 246.245> 399 0 501 0 0.207912 0.978148<21.207 394.614>
LayerCount: 2
Fore
SplineSet
365 545 m 0
 225 545 157 444 157 383 c 0
 157 353 174 331 182 319 c 1
 185 319 l 1
 217 390 258 444 349 444 c 0
 389 444 410 427 423 401 c 1
 439 409 472 436 486 452 c 1
 478 510 437 545 365 545 c 0
106 361 m 0
 106 472 205 599 374 599 c 0
 450 599 521 581 559 539 c 1
 571 554 591 592 598 627 c 1
 700 627 l 1
 677 561 621 498 587 468 c 1
 589 460 591 450 591 440 c 0
 591 427 589 413 585 396 c 2
 501 0 l 1
 399 0 l 1
 481 386 l 17
 462 375 439 361 425 356 c 1
 425 323 389 249 310 249 c 0
 285 249 267 257 257 266 c 1
 248 255 242 233 236 206 c 2
 192 0 l 1
 89 0 l 1
 139 233 l 2
 140 236 140 239 140 241 c 0
 140 273 106 300 106 361 c 0
337 398 m 0
 296 398 271 364 271 332 c 0
 271 311 284 293 314 293 c 0
 355 293 380 328 380 358 c 0
 380 379 368 398 337 398 c 0
EndSplineSet
Validated: 1
EndChar

StartChar: uni0E29
Encoding: 3625 3625 169
Width: 662
Flags: W
HStem: 0 45<108 164 265 471.811> 183 51<377.909 468.202> 361 38<339.827 395.861> 396 49<177.589 238.436> 549 49<190.883 275.37>
VStem: 123 50<449.712 531.648> 281 81<461.879 544.423> 401 42<278.7 356.94>
DStem2: 154.435 0 255.435 0 0.207912 0.978148<67.0044 242.731> 470.044 0 572.769 0 0.207912 0.978148<61.874 248.492 289.767 536.034>
LayerCount: 2
Fore
SplineSet
443 330 m 0xef
 443 304 429 256 377 238 c 1
 385 235 394 234 403 234 c 0
 467 234 536 300 548 356 c 2
 583 524 l 1
 649 587 l 2
 654 592 670 598 679 598 c 0
 688 598 695 593 695 578 c 0
 695 574 694 569 693 563 c 2
 597 114 l 2
 587 67 543 0 456 0 c 2
 98 0 l 1
 108 45 l 1
 164 45 l 1
 239 399 l 1xef
 227 397 216 396 208 396 c 0xdf
 149 396 123 433 123 475 c 0
 123 532 173 598 258 598 c 0
 346 598 362 553 362 519 c 0
 362 508 360 498 359 491 c 2
 339 395 l 1
 352 400 360 399 369 399 c 0
 421 399 443 367 443 330 c 0xef
493 108 m 2
 522 243 l 1
 477 200 428 183 387 183 c 0
 350 183 319 197 301 217 c 1
 265 45 l 1
 425 45 l 2
 452 45 484 65 493 108 c 2
361 361 m 0
 324 361 299 330 299 302 c 0
 299 281 312 263 340 263 c 0
 377 263 401 294 401 323 c 0
 401 343 389 361 361 361 c 0
238 549 m 0
 199 549 173 516 173 485 c 0
 173 464 186 445 216 445 c 0xdf
 256 445 281 479 281 508 c 0
 281 530 268 549 238 549 c 0
EndSplineSet
Validated: 1
EndChar

StartChar: uni0E2A
Encoding: 3626 3626 170
Width: 577
Flags: W
HStem: -5 46<168.069 254.541> 146 45<216.426 267.846> 335 47<356 406.279> 540 57<286.012 446.387>
VStem: 95 69<45.1619 128.806> 272 50<58.2487 142.079> 480 100<329.109 436>
DStem2: 385.937 -5 486.937 -5 0.207912 0.978148<26.1108 255.856 338.957 450.649>
LayerCount: 2
Fore
SplineSet
322 117 m 0
 322 59 270 -5 195 -5 c 0
 118 -5 95 50 95 94 c 0
 95 103 96 112 98 120 c 2
 120 227 l 1
 141 324 234 372 271 381 c 1
 323 402 414 449 473 488 c 1
 455 523 416 540 370 540 c 0
 300 540 213 501 159 430 c 1
 127 450 l 1
 201 551 304 597 395 597 c 0
 452 597 504 579 541 544 c 1
 568 570 588 599 598 627 c 1
 700 627 l 17
 686 584 633 528 574 490 c 1
 578 483 580 471 580 453 c 0
 580 442 579 429 576 413 c 2
 488 0 l 1
 387 0 l 1
 435 226 l 2
 436 233 437 240 437 246 c 0
 437 295 400 335 347 335 c 0
 283 335 237 290 226 238 c 2
 215 187 l 1
 226 189 237 191 247 191 c 0
 299 191 322 157 322 117 c 0
459 326 m 1
 478 415 l 2
 480 427 480 432 480 436 c 1
 448 419 396 396 356 382 c 1
 394 382 448 366 459 326 c 1
229 146 m 0
 189 146 164 111 164 81 c 0
 164 59 177 41 207 41 c 0
 246 41 272 75 272 107 c 0
 272 128 259 146 229 146 c 0
EndSplineSet
Validated: 1
EndChar

StartChar: uni0E2B
Encoding: 3627 3627 171
Width: 651
Flags: W
HStem: 0 21G<144 251.33 459 566.255> 397 48<167.548 228.028> 549 49<180.585 266.882 553.845 643.802>
VStem: 116 48<449.669 532.079> 272 81<463.192 544.434> 490 49<452.336 535.131> 647 49<464.91 547.44>
DStem2: 144 0 247 0 0.207912 0.978148<21.4149 210.207 273.829 410.888> 459 0 562 0 0.207912 0.978148<21.4149 409.402>
LayerCount: 2
Fore
SplineSet
696 524 m 0
 696 483 671 441 635 422 c 1
 639 414 644 405 644 392 c 0
 644 387 643 382 642 376 c 2
 562 0 l 1
 459 0 l 1
 538 374 l 2
 541 388 542 396 538 402 c 1
 414 330 303 175 291 157 c 1
 278 134 271 114 268 97 c 2
 247 0 l 1
 144 0 l 1
 229 402 l 1
 220 399 208 397 198 397 c 0
 142 397 116 433 116 475 c 0
 116 526 158 598 250 598 c 0
 337 598 353 553 353 519 c 0
 353 508 351 498 350 491 c 2
 299 247 l 1
 376 338 474 413 507 433 c 1
 495 448 490 464 490 481 c 0
 490 535 544 598 614 598 c 0
 672 598 696 563 696 524 c 0
229 549 m 0
 188 549 164 516 164 484 c 0
 164 463 177 445 207 445 c 0
 246 445 272 478 272 509 c 0
 272 530 260 549 229 549 c 0
604 552 m 0
 564 552 539 518 539 489 c 0
 539 467 552 448 582 448 c 0
 621 448 647 481 647 512 c 0
 647 533 634 552 604 552 c 0
EndSplineSet
Validated: 1
EndChar

StartChar: uni0E2C
Encoding: 3628 3628 172
Width: 712
Flags: W
HStem: 0 21G<146 251.891 521.832 628.232> 396 49<169.554 230.496> 549 49<182.352 269.426> 594 45<608.177 691.589>
VStem: 117 49<449.169 532.16> 273 82<462.098 544.854> 548 45<502.735 579.886> 695 47<545.299 590.056> 799 91<595.954 644>
DStem2: 146.19 0 247.223 0 0.207912 0.978148<19.7121 65.527 182.711 407.914> 498 558 461 404 0.156465 -0.987684<146.314 402.445> 489 558 461 404 0.478243 0.878228<-450.399 -148.638> 522.223 0 623.548 0 0.207912 0.978148<165.237 465.178>
LayerCount: 2
Fore
SplineSet
740 545 m 1xdf80
 792 580 799 644 799 644 c 1
 890 644 l 17
 863 542 759 492 726 482 c 1
 624 0 l 1
 525 0 l 1
 461 404 l 1
 241 0 l 1
 146 0 l 1
 231 399 l 1
 219 397 208 396 201 396 c 0
 143 396 117 432 117 474 c 0
 117 527 161 598 250 598 c 0xef80
 339 598 355 554 355 519 c 0
 355 509 353 499 352 492 c 2
 301 253 l 2
 295 226 272 160 272 160 c 1
 278 160 l 1
 278 160 303 217 319 249 c 1
 489 558 l 1
 498 558 l 1
 554 249 l 1
 556 217 558 160 558 160 c 1
 564 160 l 1
 564 160 570 226 576 253 c 2
 619 455 l 1
 569 458 548 491 548 528 c 0
 548 582 595 639 664 639 c 0
 713 639 742 615 742 567 c 0
 742 560 741 553 740 545 c 1xdf80
654 594 m 0xdf80
 616 594 593 562 593 536 c 0
 593 517 606 499 634 499 c 0
 669 499 695 527 695 556 c 0
 695 576 682 594 654 594 c 0xdf80
231 549 m 0xef80
 190 549 166 516 166 484 c 0
 166 463 179 445 209 445 c 0
 247 445 273 478 273 509 c 0
 273 530 261 549 231 549 c 0xef80
EndSplineSet
Validated: 1
EndChar

StartChar: uni0E2D
Encoding: 3629 3629 173
Width: 566
Flags: W
HStem: -8 46<218.292 355.209> 246 49<225.528 309.568> 399 46<236.725 323.049> 540 58<271.215 428.237>
VStem: 100 98<60.0413 216.117> 327 50<312.2 394.781> 466 104<337.742 504.824>
DStem2: 69.2905 -8 171.943 -8 0.207912 0.978148<139.477 285.152> 370.943 -8 476.716 -8 0.207912 0.978148<106.316 464.454>
LayerCount: 2
Fore
SplineSet
377 368 m 0
 377 312 329 246 257 246 c 0
 247 246 238 247 227 250 c 1
 200 124 l 2
 199 118 198 112 198 107 c 0
 198 61 238 38 283 38 c 0
 332 38 387 66 399 124 c 2
 463 422 l 2
 465 431 466 439 466 447 c 0
 466 507 415 540 350 540 c 0
 283 540 200 505 143 430 c 1
 111 450 l 1
 188 554 292 598 381 598 c 0
 485 598 570 538 570 446 c 0
 570 436 568 424 566 413 c 2
 512 158 l 2
 483 22 327 -8 273 -8 c 0
 208 -8 100 13 100 120 c 0
 100 132 102 145 105 160 c 2
 138 315 l 2
 147 358 195 445 289 445 c 0
 352 445 377 410 377 368 c 0
285 399 m 0
 244 399 220 366 220 334 c 0
 220 313 233 295 263 295 c 0
 301 295 327 328 327 359 c 0
 327 380 315 399 285 399 c 0
EndSplineSet
Validated: 1
EndChar

StartChar: uni0E2E
Encoding: 3630 3630 174
Width: 566
Flags: W
HStem: -8 46<218.292 355.209> 177 46<210.099 293.887> 327 45<221.266 308.592> 408 46<213.712 408.353> 543 51<258.704 430.289>
VStem: 100 98<60.0413 266.996> 139 73<439.5 506.789> 312 49<239.604 322.84>
DStem2: 370.943 -8 476.716 -8 0.207912 0.978148<106.316 462.835>
LayerCount: 2
Fore
SplineSet
361 297 m 0xfd
 361 242 314 177 241 177 c 0
 232 177 222 178 212 180 c 1xfb
 200 124 l 2
 199 118 198 112 198 107 c 0xfd
 198 61 238 38 283 38 c 0
 332 38 387 66 399 124 c 2
 463 422 l 2
 464 430 466 438 467 445 c 1
 388 411 300 408 260 408 c 0
 183 408 139 423 139 456 c 0xfb
 139 516 241 594 383 594 c 0
 430 594 474 585 509 564 c 1
 517 576 523 590 529 602 c 1
 626 602 l 17
 607 564 583 533 558 508 c 1
 566 493 570 474 570 452 c 0
 570 440 569 427 566 413 c 2
 512 158 l 2
 483 22 327 -8 273 -8 c 0
 208 -8 100 13 100 120 c 0
 100 132 102 145 105 160 c 2
 122 241 l 2
 132 285 179 372 274 372 c 0
 334 372 361 338 361 297 c 0xfd
452 501 m 1
 430 531 387 543 344 543 c 0
 263 543 212 506 212 481 c 0
 212 467 235 454 294 454 c 0
 367 454 411 471 452 501 c 1
270 327 m 0
 229 327 204 293 204 263 c 0
 204 242 216 223 247 223 c 0
 287 223 312 257 312 288 c 0
 312 309 299 327 270 327 c 0
EndSplineSet
Validated: 1
EndChar

StartChar: uni0E2F
Encoding: 3631 3631 175
Width: 539
Flags: W
HStem: 0 21G<335 442.242> 391 48<290 382.322> 553 45<187.759 274.668>
VStem: 121 50<452.684 535.073> 279 50<466.265 549.04> 476 88<561 594>
DStem2: 335 0 438 0 0.207912 0.978148<21.4149 441.688>
LayerCount: 2
Fore
SplineSet
329 521 m 0
 329 509 327 473 290 439 c 1
 416 439 462 525 476 594 c 1
 564 594 l 1
 438 0 l 1
 335 0 l 1
 427 432 l 1
 375 402 317 391 268 391 c 0
 149 391 121 439 121 480 c 0
 121 535 173 598 247 598 c 0
 299 598 329 563 329 521 c 0
236 553 m 0
 197 553 171 520 171 489 c 0
 171 468 183 449 213 449 c 0
 254 449 279 483 279 514 c 0
 279 535 266 553 236 553 c 0
EndSplineSet
Validated: 1
EndChar

StartChar: uni0E30
Encoding: 3632 3632 176
Width: 460
Flags: W
HStem: -6 60<102.691 299.308> 152 45<113.715 196.327> 396 60<187.717 384.308> 554 45<198.942 281.623>
VStem: 50 49<57.0894 137.509> 135 49<459.365 539.278> 200 48<68.9698 147.847> 285 49<470.589 550.579> 362 88<140.139 192> 447 88<542.426 594>
LayerCount: 2
Fore
SplineSet
293 450 m 1xff40
 438 453 446 585 447 594 c 1
 535 594 l 17
 486 444 377 396 274 396 c 0
 167 396 135 442 135 483 c 0
 135 510 159 599 256 599 c 0
 309 599 334 570 334 531 c 0
 334 503 322 465 293 450 c 1xff40
245 554 m 0
 208 554 184 522 184 494 c 0
 184 473 196 456 224 456 c 0
 261 456 285 487 285 517 c 0
 285 537 273 554 245 554 c 0
207 48 m 1
 332 49 355 147 362 192 c 1
 450 192 l 17xff80
 401 41 292 -6 189 -6 c 0
 83 -6 50 40 50 80 c 0
 50 109 74 197 171 197 c 0
 224 197 248 167 248 128 c 0
 248 98 234 61 207 48 c 1
159 152 m 0
 122 152 99 121 99 91 c 0
 99 71 110 54 138 54 c 0
 170 54 200 80 200 114 c 0
 200 134 187 152 159 152 c 0
EndSplineSet
Validated: 1
EndChar

StartChar: uni0E31
Encoding: 3633 3633 177
Width: 0
Flags: W
HStem: 676 49<-70.7972 106.296> 880 49<-129.584 -44.4612>
VStem: -203 55<780.262 862.051> -41 53<792.753 875.905> 251 102<882.262 923>
AnchorPoint: "AboveMark" 40 630 mark 0
AnchorPoint: "AboveMark" 115 983 basemark 0
AnchorPoint: "AboveBase" 40 630 mark 0
LayerCount: 2
Fore
SplineSet
12 849 m 0
 12 804 -16 757 -73 736 c 1
 -48 729 -22 725 5 725 c 0
 105 725 208 783 251 923 c 1
 353 923 l 17
 271 740 125 676 -7 676 c 0
 -115 676 -203 726 -203 801 c 0
 -203 863 -148 929 -75 929 c 0
 -20 929 12 896 12 849 c 0
-83 880 m 0
 -123 880 -148 845 -148 815 c 0
 -148 794 -135 776 -105 776 c 0
 -66 776 -41 810 -41 841 c 0
 -41 862 -54 880 -83 880 c 0
EndSplineSet
Validated: 1
EndChar

StartChar: uni0E32
Encoding: 3634 3634 178
Width: 427
Flags: W
HStem: 0 21G<235 342.238> 483 21G<107.308 144.5> 541 57<202.653 318.771>
VStem: 335 103<374.445 522.989>
DStem2: 235 0 338 0 0.207912 0.978148<21.4149 488.07>
LayerCount: 2
Fore
SplineSet
338 0 m 1
 235 0 l 1
 333 460 l 2
 334 466 335 472 335 478 c 0
 335 519 301 541 257 541 c 0
 215 541 164 522 125 483 c 1
 102 509 l 1
 155 566 239 598 309 598 c 0
 380 598 438 565 438 490 c 0
 438 479 437 466 434 453 c 2
 338 0 l 1
EndSplineSet
Validated: 1
EndChar

StartChar: uni0E34
Encoding: 3636 3636 180
Width: 0
Flags: W
HStem: 713 21G<-379 -373> 726 45<-304.297 -115.51> 839 55<-233.525 -61.0928>
AnchorPoint: "AboveMark" -9 630 mark 0
AnchorPoint: "AboveMark" 66 983 basemark 0
AnchorPoint: "AboveBase" 40 630 mark 0
LayerCount: 2
Fore
SplineSet
63 636 m 1xa0
 -59 694 -162 726 -273 726 c 0x60
 -315 726 -357 722 -401 713 c 1
 -345 833 -229 894 -127 894 c 0
 -21 894 71 830 71 703 c 0
 71 682 68 660 63 636 c 1xa0
18 708 m 1
 6 788 -65 839 -147 839 c 0
 -200 839 -257 818 -305 768 c 1
 -285 770 -266 771 -245 771 c 0
 -156 771 -57 750 18 708 c 1
EndSplineSet
Validated: 1
EndChar

StartChar: uni0E35
Encoding: 3637 3637 181
Width: 0
Flags: W
HStem: 713 21G<-379 -373.5> 726 45<-304.297 -115.51> 839 55<-235.119 -60.6572>
AnchorPoint: "AboveMark" -9 630 mark 0
AnchorPoint: "AboveMark" 66 983 basemark 0
AnchorPoint: "AboveBase" 40 630 mark 0
LayerCount: 2
Fore
SplineSet
63 636 m 1xa0
 -59 694 -162 726 -273 726 c 0x60
 -315 726 -357 722 -401 713 c 1
 -346 833 -230 894 -127 894 c 0
 -84 894 -43 883 -11 862 c 1
 8 948 l 1
 108 948 l 1
 65 750 l 1
 68 735 70 718 70 700 c 0
 70 680 68 659 63 636 c 1xa0
18 708 m 1
 6 788 -65 839 -147 839 c 0
 -200 839 -257 818 -305 768 c 1
 -285 770 -266 771 -245 771 c 0
 -156 771 -57 750 18 708 c 1
EndSplineSet
Validated: 1
EndChar

StartChar: uni0E36
Encoding: 3638 3638 182
Width: 0
Flags: W
HStem: 713 21G<-379 -373.5> 726 45<-304.297 -115.51> 839 55<-234.896 -60.7213> 906 46<4.29499 85.8587>
VStem: 89 51<821.89 902.914>
AnchorPoint: "AboveMark" -9 630 mark 0
AnchorPoint: "AboveMark" 66 983 basemark 0
AnchorPoint: "AboveBase" 40 630 mark 0
LayerCount: 2
Fore
SplineSet
140 880 m 0xb8
 140 837 110 789 61 770 c 1
 67 750 71 728 71 704 c 0
 71 683 68 660 63 636 c 1
 -59 694 -162 726 -273 726 c 0x78
 -315 726 -357 722 -401 713 c 1
 -346 834 -229 894 -127 894 c 0
 -101 894 -76 890 -53 882 c 1
 -41 911 -5 952 59 952 c 0
 115 952 140 919 140 880 c 0xb8
18 708 m 1
 6 788 -65 839 -147 839 c 0
 -200 839 -257 818 -305 768 c 1
 -285 770 -266 771 -245 771 c 0
 -156 771 -57 750 18 708 c 1
50 906 m 0
 13 906 -11 875 -11 846 c 0
 -11 825 1 808 29 808 c 0
 66 808 89 839 89 869 c 0
 89 889 78 906 50 906 c 0
EndSplineSet
Validated: 1
EndChar

StartChar: uni0E37
Encoding: 3639 3639 183
Width: 0
Flags: W
HStem: 713 21G<-378.5 -372.5> 726 45<-304.25 -115.691> 839 55<-232.781 -123>
AnchorPoint: "AboveMark" -9 630 mark 0
AnchorPoint: "AboveMark" 5 983 basemark 0
AnchorPoint: "AboveBase" 40 630 mark 0
LayerCount: 2
Fore
SplineSet
63 636 m 1xa0
 -60 694 -162 726 -273 726 c 0x60
 -315 726 -356 722 -401 713 c 1
 -344 833 -229 894 -123 894 c 1
 -111 949 l 1
 -36 949 l 1
 -51 879 l 1
 -28 872 -12 860 5 849 c 1
 27 949 l 1
 107 949 l 1
 65 754 l 1
 68 738 70 720 70 702 c 0
 70 681 68 659 63 636 c 1xa0
18 708 m 1
 6 788 -65 839 -147 839 c 0
 -200 839 -257 818 -305 768 c 1
 -286 770 -266 771 -245 771 c 0
 -156 771 -57 750 18 708 c 1
EndSplineSet
Validated: 1
EndChar

StartChar: uni0E38
Encoding: 3640 3640 184
Width: 0
Flags: W
HStem: -227 41<-285.074 -240.389> -97 45<-278.161 -200.913>
VStem: -336 47<-182.471 -107.638> -198 73<-174.05 -99.3387>
AnchorPoint: "BelowMark" -105 -52 mark 0
AnchorPoint: "BelowMark" -160 -312 basemark 0
AnchorPoint: "BelowBase" -105 -52 mark 0
LayerCount: 2
Fore
SplineSet
-336 -161 m 0
 -336 -109 -290 -52 -220 -52 c 0
 -161 -52 -125 -83 -125 -129 c 0
 -125 -135 -126 -142 -127 -149 c 2
 -160 -307 l 1
 -257 -307 l 1
 -240 -226 l 1
 -246 -227 -257 -227 -266 -227 c 0
 -314 -226 -336 -197 -336 -161 c 0
-252 -186 m 0
 -220 -186 -198 -156 -198 -132 c 0
 -198 -112 -213 -97 -233 -97 c 0
 -273 -97 -289 -128 -289 -150 c 0
 -289 -169 -275 -186 -252 -186 c 0
EndSplineSet
Validated: 1
Substitution2: "Thai Sara U Phinthu Reordering" uni0E3A
Substitution2: "Thai Sara U Mai Ek Reordering" uni0E48.low
Substitution2: "Thai Sara U Mai Tho Reordering" uni0E49.low
Substitution2: "Thai Sara U Mai Tri Reordering" uni0E4A.low
Substitution2: "Thai Sara U Mai Chattawa Reordering" uni0E4B.low
Substitution2: "Thai Sara U Thanthakhat Reordering" uni0E4C.low
Substitution2: "Thai Sara U Nikhahit Reordering" uni0E4D
EndChar

StartChar: uni0E39
Encoding: 3641 3641 185
Width: 0
Flags: W
HStem: -319 39<-292.658 -249.153> -214 37<-403.167 -357.151> -88 37<-394.486 -321.38>
VStem: -447 39<-172.905 -101.126> -362 69<-279.254 -226.083> -317 52<-164.552 -91.0643>
DStem2: -259.69 -319 -161.69 -319 0.207912 0.978148<54.1635 267.853>
AnchorPoint: "BelowMark" -105 -52 mark 0
AnchorPoint: "BelowMark" -163 -324 basemark 0
AnchorPoint: "BelowBase" -105 -52 mark 0
LayerCount: 2
Fore
SplineSet
-447 -150 m 0xf8
 -447 -102 -405 -51 -343 -51 c 0
 -288 -51 -265 -77 -265 -118 c 0xf4
 -265 -128 -266 -139 -269 -151 c 2
 -292 -257 l 2
 -292 -259 -293 -260 -293 -262 c 0
 -293 -272 -285 -280 -275 -280 c 0
 -261 -280 -250 -272 -247 -257 c 2
 -204 -57 l 1
 -106 -57 l 1
 -139 -212 l 2
 -151 -270 -197 -319 -266 -319 c 0
 -326 -319 -362 -290 -362 -246 c 0
 -362 -240 -362 -233 -360 -226 c 2
 -357 -210 l 1
 -361 -212 -368 -214 -377 -214 c 0
 -424 -214 -447 -184 -447 -150 c 0xf8
-371 -177 m 0
 -340 -177 -317 -148 -317 -123 c 0
 -317 -103 -332 -88 -352 -88 c 0
 -388 -88 -408 -116 -408 -141 c 0
 -408 -160 -394 -177 -371 -177 c 0
EndSplineSet
Validated: 1
Substitution2: "Thai Sara UU Phinthu Reordering" uni0E3A
Substitution2: "Thai Sara UU Mai Ek Reordering" uni0E48.low
Substitution2: "Thai Sara UU Mai Tho Reordering" uni0E49.low
Substitution2: "Thai Sara UU Mai Tri Reordering" uni0E4A.low
Substitution2: "Thai Sara UU Mai Chattawa Reordering" uni0E4B.low
Substitution2: "Thai Sara UU Thanthakhat Reordering" uni0E4C.low
Substitution2: "Thai Sara UU Nikhahit Reordering" uni0E4D
EndChar

StartChar: uni0E3A
Encoding: 3642 3642 186
Width: 0
Flags: W
HStem: -174 131<-207.26 -122.832>
VStem: -235 140<-146.669 -70.5798>
AnchorPoint: "BelowMark" -103 -43 mark 0
AnchorPoint: "BelowMark" -132 -179 basemark 0
AnchorPoint: "BelowBase" -103 -43 mark 0
LayerCount: 2
Fore
SplineSet
-95 -93 m 0
 -95 -132 -128 -174 -178 -174 c 0
 -217 -174 -235 -150 -235 -123 c 0
 -235 -86 -203 -43 -150 -43 c 0
 -112 -43 -95 -67 -95 -93 c 0
EndSplineSet
Validated: 1
Substitution2: "Thai Sara UU Phinthu Reordering" uni0E39
Substitution2: "Thai Sara U Phinthu Reordering" uni0E38
Substitution2: "Thai Phinthu Maitaikhu Reordering" uni0E47
Substitution2: "Thai Phinthu Mai Ek Reordering" uni0E48.low
Substitution2: "Thai Phinthu Mai Tho Reordering" uni0E49.low
Substitution2: "Thai Phinthu Mai Tri Reordering" uni0E4A.low
Substitution2: "Thai Phinthu Mai Chattawa Reordering" uni0E4B.low
Substitution2: "Thai Phinthu Thanthakhat Reordering" uni0E4C.low
Substitution2: "Thai Phinthu Nikhahit Reordering" uni0E4D
EndChar

StartChar: dottedcircle
Encoding: 9676 9676 188
Width: 649
Flags: W
HStem: -14 77<319.217 380.508> 23 77<172.121 233.865> 34 77<460.596 522.567> 118 77<93.2606 155.194> 131 75<564.385 627.26> 263 76<629.917 693.193> 270 77<87.5558 149.234> 399 77<621.992 682.563> 406 76<161.651 222.281> 493 77<546.437 608.049> 501 77<285.556 347.122> 535 76<432.848 495.721>
VStem: 84 79<126.127 186.25 282.875 341.308> 154 77<414.625 474.358> 164 79<31.7176 91.2988> 276 79<509.127 568.504> 310 78<-5.89854 54.1934> 425 79<543.49 602.873> 452 79<42.6039 102.251> 537 79<501.5 560.806> 556 78<138.119 197.51> 614 78<407.859 467.706> 622 79<271.86 330.801>
LayerCount: 2
Fore
SplineSet
154 436 m 0x0084
 154 460 176 482 199 482 c 0
 219 482 231 469 231 452 c 0
 231 431 210 406 183 406 c 0
 166 406 154 419 154 436 c 0x0084
276 531 m 0x0021
 276 554 300 578 324 578 c 0
 343 578 355 566 355 548 c 0
 355 520 330 501 307 501 c 0
 289 501 276 514 276 531 c 0x0021
164 55 m 0x4002
 164 76 185 100 213 100 c 0
 230 100 243 87 243 71 c 0
 243 46 219 23 197 23 c 0
 177 23 164 37 164 55 c 0x4002
84 148 m 0x1008
 84 167 104 195 130 195 c 0
 150 195 163 182 163 164 c 0
 163 137 138 118 114 118 c 0
 96 118 84 131 84 148 c 0x1008
452 65 m 0x200020
 452 88 475 111 500 111 c 0
 519 111 531 99 531 81 c 0
 531 54 506 34 483 34 c 0
 465 34 452 48 452 65 c 0x200020
556 160 m 0x080008
 556 183 578 206 605 206 c 0
 622 206 634 194 634 176 c 0
 634 149 611 131 589 131 c 0
 569 131 556 143 556 160 c 0x080008
614 431 m 0x010004
 614 451 633 476 662 476 c 0
 679 476 692 463 692 447 c 0
 692 423 668 399 646 399 c 0
 626 399 614 413 614 431 c 0x010004
537 522 m 0x004010
 537 546 561 570 583 570 c 0
 603 570 616 555 616 537 c 0
 616 516 594 493 567 493 c 0
 550 493 537 506 537 522 c 0x004010
622 294 m 0x040002
 622 320 648 339 668 339 c 0
 687 339 701 325 701 307 c 0
 701 281 673 263 652 263 c 0
 634 263 622 276 622 294 c 0x040002
78 300 m 0
 78 323 102 347 126 347 c 0
 145 347 157 334 157 316 c 0
 157 289 132 270 109 270 c 0x02
 91 270 78 283 78 300 c 0
310 16 m 0x800080
 310 39 333 63 357 63 c 0
 376 63 388 51 388 33 c 0
 388 5 364 -14 341 -14 c 0
 323 -14 310 -1 310 16 c 0x800080
425 565 m 0x001040
 425 592 450 611 473 611 c 0
 491 611 504 598 504 581 c 0
 504 558 482 535 457 535 c 0
 438 535 425 547 425 565 c 0x001040
EndSplineSet
Validated: 1
EndChar

StartChar: uni0E3F
Encoding: 3647 3647 189
Width: 752
Flags: W
HStem: -11 60<268.536 337 445 501.137> -9 41<45 140.081> 333 82<521 572.926> 347 65<338 412> 673 63<444.56 481 588 629.584> 694 40<194 269.376>
VStem: 611 125<148.98 297.086> 660 114<491.587 644.705>
DStem2: 119.213 -118 224.663 -118 0.207912 0.978148<221.995 497.416 563.907 784.418> 316 -118 407 -118 0.207912 0.978148<18.92 109.028 196.04 474.798 563.975 808.02 886.999 973.195>
LayerCount: 2
Fore
SplineSet
774 596 m 0x09
 774 527 747 413 616 381 c 1
 681 369 736 327 736 245 c 0
 736 181 702 -7 431 -9 c 1x4a
 407 -118 l 1
 316 -118 l 1
 337 -11 l 1x82
 36 -9 l 1
 45 32 l 1
 136 32 156 58 163 88 c 2
 279 637 l 2
 280 641 280 645 280 650 c 0
 280 673 262 693 186 694 c 1
 194 734 l 1x46
 234 734 443 736 495 736 c 1
 518 834 l 1
 609 834 l 1
 588 731 l 1
 705 731 774 692 774 596 c 0x09
426 412 m 1x18
 481 673 l 1
 467 674 454 674 443 674 c 0
 410 674 392 669 388 650 c 2
 338 412 l 1
 426 412 l 1x18
521 415 m 1x21
 637 419 660 528 660 582 c 0
 660 641 628 667 575 667 c 1
 521 415 l 1x21
349 51 m 9
 412 347 l 1
 324 347 l 1
 271 100 l 2
 269 92 268 84 268 77 c 0
 268 61 276 49 314 49 c 0x90
 323 49 335 49 349 51 c 9
607 203 m 0
 609 214 611 225 611 235 c 0
 611 293 573 330 504 333 c 1x22
 445 55 l 1
 541 65 588 114 607 203 c 0
EndSplineSet
Validated: 1
EndChar

StartChar: uni0E40
Encoding: 3648 3648 190
Width: 337
Flags: W
HStem: -8 46<177.106 263.157> 143 44<227.904 274.654>
VStem: 106 66<42.8657 125.301> 280 46<55.9526 138.233>
DStem2: 82.2179 -8 185.764 -8 0.207912 0.978148<219.863 538.725>
LayerCount: 2
Fore
SplineSet
326 112 m 0
 326 56 278 -8 198 -8 c 0
 134 -8 106 38 106 88 c 0
 106 98 107 108 109 118 c 2
 194 519 l 1
 264 582 l 2
 271 588 281 594 290 594 c 0
 299 594 306 588 306 571 c 0
 306 566 306 559 304 551 c 2
 227 186 l 1
 230 186 238 187 241 187 c 0
 299 187 326 153 326 112 c 0
237 143 m 0
 197 143 172 108 172 79 c 0
 172 57 185 38 215 38 c 0
 254 38 280 71 280 102 c 0
 280 124 267 143 237 143 c 0
EndSplineSet
Validated: 1
EndChar

StartChar: uni0E42
Encoding: 3650 3650 192
Width: 339
Flags: W
HStem: -8 45<212.301 298.455> 141 46<264.169 311.862> 839 74<397.597 502.749> 897 74<220.695 333.612>
VStem: 143 65<41.3438 120.963> 270 103<602.422 744.867> 316 47<53.7981 136.369>
DStem2: 184 854 111 831 0.848854 -0.528628<0 148.677> 119.218 -8 222.764 -8 0.207912 0.978148<219.863 733.384>
LayerCount: 2
Fore
SplineSet
545 929 m 0xec
 545 905 506 839 447 839 c 0xec
 397 839 307 897 260 897 c 0
 237 897 222 897 184 854 c 1
 351 750 l 2
 368 739 373 727 373 711 c 0xdc
 373 705 372 698 371 690 c 2
 264 186 l 1
 269 187 275 187 278 187 c 0
 336 187 363 153 363 112 c 0xda
 363 56 315 -8 235 -8 c 0
 171 -8 143 38 143 88 c 0
 143 98 144 108 146 118 c 2
 268 691 l 2
 269 698 270 704 270 710 c 0
 270 728 264 738 258 742 c 2
 111 831 l 1
 162 906 218 971 292 971 c 0xdc
 336 971 420 913 474 913 c 0
 513 913 512 939 535 939 c 0
 541 939 545 936 545 929 c 0xec
273 141 m 0
 234 141 208 108 208 77 c 0
 208 56 221 37 251 37 c 0
 291 37 316 71 316 100 c 0xca
 316 122 303 141 273 141 c 0
EndSplineSet
Validated: 1
EndChar

StartChar: uni0E43
Encoding: 3651 3651 193
Width: 362
Flags: W
HStem: -8 45<232.301 318.455> 141 46<284.104 331.654> 671 46<161.651 231.852> 794 48<167.702 239.894> 912 59<203.856 310.846>
VStem: 99 61<718.709 824.138> 163 65<41.3438 120.963> 241 47<726.853 792.802> 322 101<809.513 898.781> 336 47<53.7981 136.369>
DStem2: 139.218 -8 242.764 -8 0.207912 0.978148<219.863 883.871>
LayerCount: 2
Fore
SplineSet
99 769 m 0xff80
 99 874 176 971 291 971 c 0
 378 971 423 921 423 856 c 0xff80
 423 845 421 834 419 823 c 2
 284 186 l 1
 287 186 295 187 298 187 c 0
 356 187 383 153 383 112 c 0xff40
 383 56 335 -8 255 -8 c 0
 191 -8 163 38 163 88 c 0
 163 98 164 108 166 118 c 2
 320 842 l 2
 321 847 322 852 322 857 c 0
 322 891 295 912 265 912 c 0
 223 912 176 894 154 817 c 1
 177 839 210 842 216 842 c 0
 266 842 288 812 288 776 c 0
 288 727 247 671 178 671 c 0
 119 671 99 718 99 769 c 0xff80
190 717 m 0
 222 717 241 744 241 766 c 0
 241 781 232 794 211 794 c 0
 184 794 160 775 160 747 c 0
 160 732 168 717 190 717 c 0
293 141 m 0
 254 141 228 108 228 77 c 0
 228 56 241 37 271 37 c 0
 311 37 336 71 336 100 c 0xff40
 336 122 323 141 293 141 c 0
EndSplineSet
Validated: 1
EndChar

StartChar: uni0E44
Encoding: 3652 3652 194
Width: 388
Flags: W
HStem: -8 45<259.924 345.38> 141 43<312.689 357.54> 662 41<184.817 226.825> 925 46<326.069 407>
VStem: 149 79<827.156 952.341> 192 64<40.8736 121.286> 362 98<869.138 923.75> 363 48<54.568 136.634>
DStem2: -46.9681 -8 28.6212 -8 0.207912 0.978148<756.476 945.394> 71.6212 -8 130.882 -8 0.207912 0.978148<723.502 968.857> 168.218 -8 270.189 -8 0.207912 0.978148<217.49 943.565>
LayerCount: 2
Fore
SplineSet
411 113 m 0xf1
 411 57 362 -8 282 -8 c 0
 220 -8 192 37 192 87 c 0xf5
 192 98 193 108 195 118 c 2
 362 902 l 2
 364 915 361 925 350 925 c 0
 336 925 327 912 325 902 c 2
 292 750 l 2
 282 702 250 662 188 662 c 0
 139 662 113 691 113 731 c 0
 113 739 113 746 115 754 c 2
 148 909 l 2
 149 912 149 914 149 917 c 0
 149 946 111 955 111 978 c 0
 111 996 130 1001 137 1001 c 0
 142 1001 148 999 154 995 c 2
 209 965 l 1
 223 956 228 947 228 935 c 0
 228 931 227 926 226 920 c 2
 184 723 l 2
 182 714 190 703 201 703 c 0
 210 703 225 713 227 723 c 2
 257 868 l 2
 270 926 309 971 378 971 c 0
 436 971 460 935 460 895 c 0xfa
 460 887 459 879 457 871 c 2
 311 184 l 1
 314 184 320 187 326 187 c 0
 384 187 411 153 411 113 c 0xf1
320 141 m 0
 280 141 256 107 256 76 c 0
 256 55 269 37 298 37 c 0
 337 37 363 70 363 101 c 0
 363 122 351 141 320 141 c 0
EndSplineSet
Validated: 1
EndChar

StartChar: uni0E45
Encoding: 3653 3653 195
Width: 304
Flags: W
HStem: 483 21G<-17.6923 19.5> 541 57<78.4155 194.771>
VStem: 211 103<374.812 522.989>
DStem2: 57.2852 -255 160.058 -255 0.207912 0.978148<98.0433 748.666>
LayerCount: 2
Fore
SplineSet
176 -180 m 1
 106 -244 l 2
 100 -249 86 -255 78 -255 c 0
 69 -255 63 -250 63 -235 c 0
 63 -230 64 -223 66 -214 c 2
 209 460 l 2
 210 466 211 472 211 478 c 0
 211 519 177 541 133 541 c 0
 91 541 39 522 -0 483 c 1
 -23 509 l 1
 31 566 115 598 185 598 c 0
 256 598 314 565 314 490 c 0
 314 479 313 466 310 453 c 2
 176 -180 l 1
EndSplineSet
Validated: 1
EndChar

StartChar: uni0E46
Encoding: 3654 3654 196
Width: 703
Flags: W
HStem: 255 37<376.431 454.575> 390 37<389.297 468.512> 579 20G<400 477.135 580.027 641>
VStem: 319 52<296.168 424.299> 473 40<308.388 385.483> 608 97<452.161 521.857>
DStem2: 450.71 -253 550.483 -253 0.207912 0.978148<95.3748 761.33>
LayerCount: 2
Fore
SplineSet
513 360 m 0
 513 309 470 255 404 255 c 0
 339 255 319 305 319 362 c 0
 319 422 338 544 462 599 c 1
 518 525 l 1
 603 599 l 1
 679 590 705 545 705 494 c 0
 705 481 704 468 701 455 c 2
 566 -180 l 1
 499 -244 l 2
 493 -249 481 -253 473 -253 c 0
 463 -253 456 -248 456 -233 c 0
 456 -228 457 -222 459 -214 c 2
 607 485 l 2
 607 487 608 490 608 492 c 0
 608 509 596 521 582 525 c 1
 504 459 l 1
 444 536 l 1
 397 508 373 455 368 395 c 1
 390 421 423 427 441 427 c 0
 492 426 513 395 513 360 c 0
433 390 m 0
 395 390 371 358 371 330 c 0
 371 310 384 292 412 292 c 0
 449 292 473 323 473 353 c 0
 473 373 461 390 433 390 c 0
EndSplineSet
Validated: 1
EndChar

StartChar: uni0E47
Encoding: 3655 3655 197
Width: 0
Flags: W
HStem: 656 49<-57.2459 19.4302> 736 56<-223.591 -152.073> 796 46<-47.3768 28.1107> 888 50<-160.772 25.2204> 895 54<-218.167 -29.3127>
VStem: -333 77<750.78 856.513> 31 51<716.739 793.826> 51 96<965.838 1025>
AnchorPoint: "AboveMark" -77 983 basemark 0
AnchorPoint: "AboveBase" 5 630 mark 0
LayerCount: 2
Fore
SplineSet
-163 949 m 0xee
 -147 949 -66 938 -30 938 c 0
 -7 938 43 945 51 1025 c 1
 147 1025 l 17
 122 910 39 888 -25 888 c 0xf5
 -65 888 -147 895 -160 895 c 0
 -210 895 -256 852 -256 788 c 0
 -256 776 -254 763 -250 750 c 1
 -234 780 -209 792 -184 792 c 0
 -154 792 -124 775 -109 754 c 1
 -109 754 -100 742 -99 757 c 1
 -90 813 -40 842 5 842 c 0
 46 842 82 820 82 774 c 0
 82 719 36 656 -33 656 c 0
 -141 656 -144 736 -190 736 c 0
 -217 736 -232 707 -232 682 c 0
 -232 672 -230 663 -225 656 c 1
 -285 657 l 1
 -318 693 -333 735 -333 776 c 0
 -333 868 -259 949 -163 949 c 0xee
-5 796 m 0
 -38 796 -60 767 -60 740 c 0
 -60 722 -50 705 -24 705 c 0
 10 705 31 733 31 761 c 0xe6
 31 780 20 796 -5 796 c 0
EndSplineSet
Validated: 1
Substitution2: "Thai Mark High Variant" uni0E47.high
Substitution2: "Thai Phinthu Maitaikhu Reordering" uni0E3A
EndChar

StartChar: uni0E48
Encoding: 3656 3656 198
Width: 0
Flags: W
HStem: 1021 206<66 113>
VStem: 36 134
AnchorPoint: "AboveMark" 125 1261 basemark 0
AnchorPoint: "AboveMark" 66 983 mark 0
LayerCount: 2
Fore
SplineSet
170 1227 m 1
 113 1021 l 1
 36 1021 l 1
 66 1227 l 1
 170 1227 l 1
EndSplineSet
Validated: 1
Substitution2: "Thai Mai Ek Tilde Reordering" tildecomb
MultipleSubs2: "Thai Tone Nikhahit Attachment" uni0E4D uni0E48
Substitution2: "Thai Tone Low Variant" uni0E48.low
Substitution2: "Thai Sara U Mai Ek Reordering" uni0E38
Substitution2: "Thai Sara UU Mai Ek Reordering" uni0E39
Substitution2: "Thai Phinthu Mai Ek Reordering" uni0E3A
EndChar

StartChar: uni0E49
Encoding: 3657 3657 199
Width: 0
Flags: W
HStem: 991 49<83 181.302> 994 35<-25 24.1157> 1072 37<18.3455 62> 1187 42<25.1767 97.4775>
VStem: -27 43<1111 1178.32> 99 47<1118 1184.82> 324 89<1182.84 1229>
AnchorPoint: "AboveMark" 222 1261 basemark 0
AnchorPoint: "AboveMark" 163 983 mark 0
LayerCount: 2
Fore
SplineSet
-27 1132 m 0x7e
 -27 1177 11 1229 75 1229 c 0
 123 1229 146 1203 146 1169 c 0
 146 1163 146 1157 144 1150 c 0
 129 1077 84 1043 84 1043 c 1
 83 1040 l 1
 84 1040 l 2
 101 1040 272 1045 324 1229 c 1
 413 1229 l 17
 343 1018 141 991 32 991 c 0xbe
 1 991 -23 993 -33 994 c 1
 -25 1029 l 1
 16 1034 35 1052 48 1071 c 1
 48 1074 l 1
 45 1073 38 1072 31 1072 c 0
 5 1072 -27 1092 -27 1132 c 0x7e
65 1187 m 0
 36 1187 16 1163 16 1139 c 0
 16 1123 26 1109 49 1109 c 0
 75 1109 99 1129 99 1156 c 0
 99 1173 88 1187 65 1187 c 0
EndSplineSet
Validated: 1
Substitution2: "Thai Mai Tho Tilde Reordering" tildecomb
MultipleSubs2: "Thai Tone Nikhahit Attachment" uni0E4D uni0E49
Substitution2: "Thai Tone Low Variant" uni0E49.low
Substitution2: "Thai Sara U Mai Tho Reordering" uni0E38
Substitution2: "Thai Sara UU Mai Tho Reordering" uni0E39
Substitution2: "Thai Phinthu Mai Tho Reordering" uni0E3A
EndChar

StartChar: uni0E4A
Encoding: 3658 3658 200
Width: 0
Flags: W
HStem: 986 35<-54.5051 4.80091> 1089 35<-47.6595 11.4773>
VStem: -116 60<1021.45 1156.43> 13 37<1028.92 1087.25> 139 61<1075.81 1174.01> 253 74<1152.45 1226>
AnchorPoint: "AboveMark" 93 1261 basemark 0
AnchorPoint: "AboveMark" 34 983 mark 0
LayerCount: 2
Fore
SplineSet
166 1054 m 1
 222 1085 253 1155 253 1226 c 1
 327 1226 l 17
 325 1219 325 1213 324 1207 c 0
 298 1087 198 986 66 986 c 1
 73 1021 l 1
 130 1048 139 1101 139 1124 c 0
 139 1149 130 1169 115 1175 c 1
 52 1137 l 1
 -3 1178 l 1
 -32 1173 -53 1137 -58 1113 c 0
 -61 1103 -57 1105 -57 1104 c 2
 -57 1104 -41 1124 -7 1124 c 0
 28 1124 50 1104 50 1073 c 0
 50 1029 15 986 -36 986 c 0
 -88 986 -116 1024 -116 1078 c 0
 -116 1169 -38 1228 13 1232 c 1
 61 1183 l 1
 130 1232 l 1
 182 1216 200 1182 200 1146 c 0
 200 1119 188 1083 163 1055 c 1
 166 1054 l 1
-15 1089 m 0
 -39 1089 -56 1067 -56 1048 c 0
 -56 1033 -48 1021 -29 1021 c 0
 -3 1021 13 1042 13 1063 c 0
 13 1077 4 1089 -15 1089 c 0
EndSplineSet
Validated: 1
Substitution2: "Thai Mai Tri Tilde Reordering" tildecomb
MultipleSubs2: "Thai Tone Nikhahit Attachment" uni0E4D uni0E4A
Substitution2: "Thai Tone Low Variant" uni0E4A.low
Substitution2: "Thai Sara U Mai Tri Reordering" uni0E38
Substitution2: "Thai Sara UU Mai Tri Reordering" uni0E39
Substitution2: "Thai Phinthu Mai Tri Reordering" uni0E3A
EndChar

StartChar: uni0E4B
Encoding: 3659 3659 201
Width: 0
Flags: W
HStem: 1072 74<-31 47 140 217>
VStem: -47 280
DStem2: 31 992 105 992 0.207912 0.978148<15.3855 80.6002 174.275 238.658>
AnchorPoint: "AboveMark" 125 1261 basemark 0
AnchorPoint: "AboveMark" 66 983 mark 0
LayerCount: 2
Fore
SplineSet
217 1072 m 1
 124 1071 l 1
 105 992 l 1
 31 992 l 1
 47 1071 l 1
 -47 1072 l 1
 -31 1146 l 1
 63 1147 l 1
 78 1226 l 1
 158 1226 l 1
 140 1147 l 1
 233 1146 l 1
 217 1072 l 1
EndSplineSet
Validated: 1
Substitution2: "Thai Mai Chattawa Tilde Reordering" tildecomb
MultipleSubs2: "Thai Tone Nikhahit Attachment" uni0E4D uni0E4B
Substitution2: "Thai Tone Low Variant" uni0E4B.low
Substitution2: "Thai Sara U Mai Chattawa Reordering" uni0E38
Substitution2: "Thai Sara UU Mai Chattawa Reordering" uni0E39
Substitution2: "Thai Phinthu Mai Chattawa Reordering" uni0E3A
EndChar

StartChar: uni0E4C
Encoding: 3660 3660 202
Width: 0
Flags: W
HStem: 895 42<6.91216 77.2727>
VStem: -42 46<939.348 1009.68> 88 48<946.409 1018.8>
AnchorPoint: "AboveMark" 108 1261 basemark 0
AnchorPoint: "AboveMark" 29 891 mark 0
LayerCount: 2
Fore
SplineSet
136 995 m 0
 136 949 95 895 30 895 c 0
 -17 895 -42 926 -42 963 c 0
 -42 1015 2 1074 103 1092 c 0
 151 1101 190 1135 212 1192 c 1
 286 1170 l 17
 239 1074 124 1055 99 1049 c 1
 98 1046 l 1
 118 1044 136 1025 136 995 c 0
57 1020 m 0
 30 1020 4 998 4 970 c 0
 4 953 15 937 39 937 c 0
 68 937 88 962 88 988 c 0
 88 1005 79 1020 57 1020 c 0
EndSplineSet
Validated: 1
MultipleSubs2: "Thai Tone Nikhahit Attachment" uni0E4D uni0E4C
Substitution2: "Thai Tone Low Variant" uni0E4C.low
Substitution2: "Thai Sara U Thanthakhat Reordering" uni0E38
Substitution2: "Thai Sara UU Thanthakhat Reordering" uni0E39
Substitution2: "Thai Phinthu Thanthakhat Reordering" uni0E3A
EndChar

StartChar: uni0E4D
Encoding: 3661 3661 203
Width: 0
Flags: W
HStem: 673 54<-15.7942 71.3457> 831 57<-3.80504 83.6677>
VStem: -77 57<731.47 814.936> 88 56<745.048 826.166>
AnchorPoint: "AboveMark" 77 983 basemark 0
AnchorPoint: "AboveBase" 73 630 mark 0
LayerCount: 2
Fore
SplineSet
144 805 m 0
 144 741 91 673 11 673 c 0
 -50 673 -77 712 -77 756 c 0
 -77 820 -23 888 57 888 c 0
 118 888 144 850 144 805 c 0
45 831 m 0
 4 831 -20 798 -20 766 c 0
 -20 745 -7 727 23 727 c 0
 62 727 88 760 88 791 c 0
 88 812 76 831 45 831 c 0
EndSplineSet
Validated: 1
Substitution2: "Thai Mark High Variant" uni0E4D.high
Substitution2: "Thai Sara U Nikhahit Reordering" uni0E38
Substitution2: "Thai Sara UU Nikhahit Reordering" uni0E39
Substitution2: "Thai Phinthu Nikhahit Reordering" uni0E3A
EndChar

StartChar: uni0E4E
Encoding: 3662 3662 204
Width: 0
Flags: W
HStem: 777 59<-30.3155 25.6037> 909 53<115.53 184>
VStem: -104 71<700.522 774.447> 26 67<829.742 886.3>
AnchorPoint: "AboveMark" 115 983 basemark 0
AnchorPoint: "AboveBase" 40 630 mark 0
LayerCount: 2
Fore
SplineSet
-104 732 m 0
 -104 782 -61 836 -4 836 c 0
 8 836 18 833 24 828 c 1
 28 831 l 1
 27 836 26 840 26 846 c 0
 26 892 69 962 186 962 c 1
 184 909 l 1
 119 903 93 876 93 847 c 0
 93 839 95 831 98 823 c 1
 44 760 l 1
 27 773 13 777 1 777 c 0
 -21 777 -33 760 -33 744 c 0
 -33 727 -16 717 11 717 c 1
 -31 662 l 1
 -76 662 -104 693 -104 732 c 0
EndSplineSet
Validated: 1
Substitution2: "Thai Mark High Variant" uni0E4E.high
EndChar

StartChar: uni0E4F
Encoding: 3663 3663 205
Width: 737
Flags: W
HStem: -14 79<290.994 479.595> 152 77<374.31 469.762> 364 77<392.974 490.149> 527 80<379.551 571.324>
VStem: 113 82<158.007 341.904> 281 82<239.648 332.456> 501 77<260.083 352.711> 667 82<250.598 433.794>
LayerCount: 2
Fore
SplineSet
749 359 m 0
 749 167 558 -14 366 -14 c 0
 216 -14 113 92 113 232 c 0
 113 429 303 607 498 607 c 0
 644 607 749 501 749 359 c 0
383 65 m 0
 533 65 667 205 667 344 c 0
 667 449 592 527 481 527 c 0
 327 527 195 388 195 247 c 0
 195 143 269 65 383 65 c 0
578 328 m 0
 578 234 486 152 401 152 c 0
 329 152 281 201 281 266 c 0
 281 356 366 441 463 441 c 0
 529 441 578 394 578 328 c 0
418 229 m 0
 461 229 501 271 501 310 c 0
 501 341 478 364 446 364 c 0
 398 364 363 318 363 283 c 0
 363 253 386 229 418 229 c 0
EndSplineSet
Validated: 1
EndChar

StartChar: uni0E50
Encoding: 3664 3664 206
Width: 645
Flags: W
HStem: -9 55<257.087 411.672> 430 60<324.377 487.592>
VStem: 83 107<115.344 287.148> 553 107<187.384 361.823>
LayerCount: 2
Fore
SplineSet
660 288 m 0
 660 128 501 -9 321 -9 c 0
 183 -9 83 67 83 187 c 0
 83 344 239 490 427 490 c 0
 561 490 660 408 660 288 c 0
333 46 m 0
 439 46 553 160 553 279 c 0
 553 361 502 430 414 430 c 0
 282 430 190 301 190 197 c 0
 190 114 245 46 333 46 c 0
EndSplineSet
Validated: 1
EndChar

StartChar: uni0E51
Encoding: 3665 3665 207
Width: 645
Flags: W
HStem: -6 58<225.719 337.429> 98 53<301.801 369.461> 243 49<312.404 390.271> 427 57<322.073 497.526>
VStem: 82 101<97.5524 278.672> 246 53<153.933 229.211> 393 65<165.043 240.064> 560 99<183.609 365.298>
LayerCount: 2
Fore
SplineSet
82 166 m 0
 82 351 241 484 422 484 c 0
 551 484 659 411 659 285 c 0
 659 167 564 2 390 -37 c 1
 335 -14 l 1
 502 32 536 149 554 233 c 0
 558 252 560 269 560 285 c 0
 560 380 495 427 410 427 c 0
 270 427 183 297 183 179 c 0
 183 95 233 52 283 52 c 0
 317 52 351 72 370 111 c 1
 350 100 336 98 322 98 c 0
 272 98 246 132 246 173 c 0
 246 230 296 292 368 292 c 0
 430 292 458 251 458 199 c 0
 458 99 369 -6 246 -6 c 0
 160 -6 82 49 82 166 c 0
356 243 m 0
 321 243 299 212 299 186 c 0
 299 167 311 151 336 151 c 0
 372 151 393 182 393 208 c 0
 393 227 382 243 356 243 c 0
EndSplineSet
Validated: 1
EndChar

StartChar: uni0E52
Encoding: 3666 3666 208
Width: 645
Flags: W
HStem: -2 48<161.871 531.752> 86 43<293.946 371.569> 221 46<311.739 382.342> 425 65<358.138 415.884 537.849 629> 693 20G<184 201>
VStem: 61 91<55.0766 149.375> 168 88<519.375 682.566> 231 60<131.668 207.543> 385 48<141.612 218.051> 428 44<390 419.232> 602 84<212.562 423.727>
DStem2: 36.0923 -2 128.706 -2 0.207912 0.978148<124.144 655.394>
LayerCount: 2
Fore
SplineSet
231 198 m 0xfda0
 231 291 279 490 396 490 c 0
 469 490 472 409 472 390 c 1
 475 390 l 1
 480 412 532 490 597 490 c 0
 661 490 686 439 686 363 c 0
 686 330 682 292 673 252 c 2
 662 202 l 2
 626 37 581 -2 481 -2 c 2
 194 -2 l 2
 102 -2 61 41 61 101 c 0
 61 112 63 123 65 134 c 2
 156 561 l 2
 166 609 168 634 168 649 c 0
 168 663 167 669 167 677 c 0
 167 691 172 713 196 713 c 0
 206 713 218 708 221 703 c 2
 249 660 l 2
 251 657 256 646 256 622 c 0
 256 607 254 587 248 561 c 2
 154 117 l 2
 153 111 152 106 152 100 c 0
 152 67 175 46 204 46 c 2
 492 46 l 2
 526 46 539 71 546 91 c 0
 564 142 602 278 602 359 c 0
 602 412 586 426 572 426 c 0
 544 426 504 364 487 321 c 0
 480 302 465 292 451 292 c 0
 439 292 428 301 428 319 c 2
 428 337 l 2xfe60
 428 374 420 425 392 425 c 0
 343 425 318 323 311 255 c 1
 322 263 344 267 360 267 c 0
 411 267 433 235 433 197 c 0
 433 145 387 86 321 86 c 0
 266 86 231 118 231 198 c 0xfda0
348 221 m 0
 312 221 291 190 291 164 c 0
 291 145 302 129 328 129 c 0
 364 129 385 160 385 186 c 0xfda0
 385 205 374 221 348 221 c 0
EndSplineSet
Validated: 1
EndChar

StartChar: uni0E53
Encoding: 3667 3667 209
Width: 645
Flags: W
HStem: -8 49<169.028 246.906> 134 49<179.345 256.896> 424 64<258.512 334.693 482.109 564.141>
VStem: 82 84<43.5156 202.055> 260 50<53.96 131.216> 332 68<159.07 276.922> 577 92<213.641 413.931>
LayerCount: 2
Fore
SplineSet
482 10 m 0
 482 41 577 202 577 341 c 0
 577 395 559 425 527 425 c 0
 465 425 424 305 400 194 c 0
 394 166 375 153 359 153 c 0
 345 153 332 163 332 182 c 0
 332 204 353 248 353 317 c 0
 353 379 335 424 302 424 c 0
 273 424 190 382 179 167 c 1
 191 174 211 183 233 183 c 0
 282 183 310 149 310 107 c 0
 310 53 259 -8 192 -8 c 0
 130 -8 93 35 86 92 c 0
 83 111 82 132 82 154 c 0
 82 310 157 488 314 488 c 0
 379 488 402 432 409 402 c 1
 449 467 496 488 545 488 c 0
 631 488 669 430 669 340 c 0
 669 207 592 47 573 8 c 9
 520 -5 l 2
 517 -6 509 -6 504 -6 c 0
 493 -6 482 -3 482 10 c 0
222 134 m 0
 187 134 166 103 166 77 c 0
 166 57 177 41 203 41 c 0
 238 41 260 72 260 98 c 0
 260 117 248 134 222 134 c 0
EndSplineSet
Validated: 1
EndChar

StartChar: uni0E54
Encoding: 3668 3668 210
Width: 645
Flags: W
HStem: -2 66<472.019 604.594> 3 42<255.711 396> 168 53<381.219 458.937> 313 49<390.84 469.391> 421 66<307.788 553.013> 693 20G<656.5 733.2>
VStem: 92 102<107.632 298.351> 298 79<179.215 290.318> 472 50<234.35 309.497> 674 90<637.981 689.953>
LayerCount: 2
Fore
SplineSet
764 672 m 0x7fc0
 764 652 702 421 462 421 c 0
 444 421 413 424 394 424 c 0
 273 424 194 312 194 198 c 0
 194 117 235 45 328 45 c 0x7fc0
 349 45 355 49 396 49 c 1
 345 84 298 147 298 214 c 0
 298 300 370 362 442 362 c 0
 495 362 522 334 522 289 c 0
 522 212 458 168 407 168 c 0
 398 168 389 169 381 172 c 1
 398 129 472 64 558 64 c 0
 567 64 599 68 604 68 c 0
 619 68 624 62 624 55 c 0
 624 42 615 33 587 -2 c 1xbfc0
 462 1 400 3 379 3 c 0
 338 3 306 -3 277 -3 c 0
 177 -3 92 61 92 184 c 0
 92 347 214 490 396 490 c 0
 434 490 443 487 471 487 c 0
 562 487 639 551 674 713 c 1
 748 688 l 2
 757 686 764 682 764 672 c 0x7fc0
434 313 m 0
 398 313 377 282 377 256 c 0
 377 237 388 221 414 221 c 0
 450 221 472 252 472 277 c 0
 472 297 460 313 434 313 c 0
EndSplineSet
Validated: 1
EndChar

StartChar: uni0E55
Encoding: 3669 3669 211
Width: 645
Flags: W
HStem: -2 67<472.53 604.588> 3 41<267.671 396> 169 52<381.219 458.2> 313 51<390.77 468.834> 421 49<402.507 484.078> 562 46<421.056 497.794> 694 20G<669 736.333>
VStem: 92 103<117.898 298.626> 297 80<177.756 291.391> 354 54<485.655 548.967> 472 50<234.205 309.405> 501 53<507.367 558.632>
LayerCount: 2
Fore
SplineSet
765 672 m 0x7f50
 765 643 690 422 470 421 c 0
 450 421 413 424 394 424 c 0
 266 424 195 304 195 207 c 0
 195 123 244 44 340 44 c 0
 366 44 376 49 396 49 c 1
 336 85 297 145 297 210 c 0x7f90
 297 304 370 364 442 364 c 0
 492 364 522 337 522 290 c 0
 522 210 454 169 408 169 c 0
 399 169 389 171 381 174 c 1
 399 131 472 65 559 65 c 0
 568 65 601 69 605 69 c 0
 619 69 625 64 625 57 c 0
 625 43 605 20 587 -2 c 1xbf60
 466 1 406 3 386 3 c 0
 343 3 298 -3 277 -3 c 0
 177 -3 92 62 92 185 c 0
 92 316 178 467 354 488 c 1
 354 490 354 492 354 494 c 0
 354 537 394 608 475 608 c 0
 525 608 554 579 554 535 c 0
 554 521 551 512 550 507 c 1
 591 529 645 585 669 698 c 1
 673 714 l 1
 749 690 l 2
 758 687 765 683 765 672 c 0x7f50
463 562 m 0
 429 562 408 531 408 505 c 0x3f50
 408 486 419 470 444 470 c 0
 478 470 501 500 501 526 c 0
 501 546 489 562 463 562 c 0
434 313 m 0
 398 313 377 282 377 256 c 0
 377 237 388 221 414 221 c 0
 450 221 472 252 472 277 c 0x3fa0
 472 297 460 313 434 313 c 0
EndSplineSet
Validated: 1
EndChar

StartChar: uni0E56
Encoding: 3670 3670 212
Width: 645
Flags: W
HStem: -9 54<236.951 405.92> 103 51<199.569 268.827> 246 52<200.594 279.151> 429 64<297.76 480.343> 690 20G<204 298.5>
VStem: 102 86<101 218.382> 220 90<479.085 657.349> 282 52<167.352 242.816> 549 101<188.969 360.239>
LayerCount: 2
Fore
SplineSet
207 429 m 0xfd80
 207 445 220 490 220 544 c 0
 220 631 188 669 188 690 c 0
 188 700 196 710 212 710 c 2
 295 710 l 1
 302 692 310 652 310 602 c 0xfe80
 310 569 307 531 298 491 c 1
 296 478 l 1
 328 488 374 493 411 493 c 0
 553 493 650 419 650 294 c 0
 650 173 559 -9 308 -9 c 0
 159 -9 102 64 102 138 c 0
 102 220 168 298 255 298 c 0
 305 298 334 265 334 221 c 0
 334 163 285 103 216 103 c 0
 209 103 203 104 199 104 c 1
 217 75 250 45 320 45 c 0
 442 45 549 161 549 282 c 0
 549 371 485 429 397 429 c 0
 287 429 265 396 241 396 c 0
 215 396 207 410 207 429 c 0xfd80
244 246 m 0
 210 246 188 218 188 189 c 0
 188 170 200 154 225 154 c 0
 258 154 282 182 282 209 c 0xfd80
 282 229 270 246 244 246 c 0
EndSplineSet
Validated: 1
EndChar

StartChar: uni0E57
Encoding: 3671 3671 213
Width: 645
Flags: W
HStem: -6 47<148.446 227.082> 134 50<158.277 237.003> 424 64<223.033 292.878 421.448 493.422>
VStem: 240 50<54.7128 131.137> 501 75<240.097 419.123> 654 94<425.287 663.775>
LayerCount: 2
Fore
SplineSet
69 151 m 0
 69 359 165 488 281 488 c 0
 318 488 352 454 358 406 c 1
 387 454 438 488 476 488 c 0
 540 488 576 440 576 357 c 0
 576 297 555 189 476 58 c 1
 517 67 654 284 654 527 c 0
 654 568 650 609 642 648 c 1
 693 700 l 2
 703 711 714 720 723 720 c 0
 743 720 748 665 748 608 c 0
 748 337 590 -7 439 -7 c 0
 421 -7 396 -3 396 16 c 0
 396 38 501 233 501 358 c 0
 501 405 484 424 465 424 c 0
 426 424 388 367 377 332 c 1
 360 291 360 246 323 246 c 0
 311 246 301 254 301 269 c 0
 301 274 308 305 308 337 c 0
 308 404 278 424 262 424 c 0
 241 424 161 386 156 164 c 1
 172 180 191 184 214 184 c 0
 261 184 290 152 290 111 c 0
 290 58 244 -6 174 -6 c 0
 76 -6 69 81 69 151 c 0
202 134 m 0
 167 134 146 103 146 77 c 0
 146 57 157 41 183 41 c 0
 218 41 240 72 240 98 c 0
 240 117 228 134 202 134 c 0
EndSplineSet
Validated: 1
EndChar

StartChar: uni0E58
Encoding: 3672 3672 214
Width: 645
Flags: W
HStem: -9 74<405.884 505.698> 155 51<508.884 547.842> 298 52<518.267 597.928> 418 69<298.384 542.736>
VStem: 76 100<95.3029 288.016> 306 73<92.9526 132> 449 57<209.172 285.708> 601 60<219.227 294.536>
LayerCount: 2
Fore
SplineSet
449 231 m 0
 449 286 497 350 573 350 c 0
 645 350 661 310 661 270 c 0
 661 247 655 224 652 209 c 0
 620 56 525 -9 453 -9 c 0
 391 -9 306 0 306 132 c 1
 282 101 257 35 244 -11 c 1
 170 -11 76 50 76 180 c 0
 76 340 197 487 379 487 c 0
 408 487 443 482 466 482 c 0
 575 482 641 603 655 695 c 2
 657 708 l 1
 735 684 l 2
 744 681 751 675 751 664 c 0
 751 624 657 416 469 416 c 0
 440 416 416 418 392 418 c 0
 248 418 176 300 176 177 c 0
 176 138 186 105 208 83 c 1
 224 120 269 210 334 235 c 1
 386 227 l 1
 381 205 379 186 379 169 c 0
 379 99 413 65 452 65 c 0
 490 65 532 97 549 157 c 1
 541 156 533 155 526 155 c 0
 473 155 449 193 449 231 c 0
562 298 m 0
 528 298 506 270 506 241 c 0
 506 222 517 206 543 206 c 0
 578 206 601 236 601 261 c 0
 601 281 589 298 562 298 c 0
EndSplineSet
Validated: 1
EndChar

StartChar: uni0E59
Encoding: 3673 3673 215
Width: 645
Flags: W
HStem: -6 46<215.317 292.551> 132 49<223.823 302.198> 341 80<561.034 628.152> 418 63<225.104 316.667 456.771 506.929>
VStem: 87 98<161.481 340.555> 305 51<52.3839 129.232> 686 102<562.729 682.625>
LayerCount: 2
Fore
SplineSet
87 223 m 0xde
 87 340 150 481 292 481 c 0xde
 329 481 370 470 404 433 c 1
 414 451 443 482 491 482 c 0
 563 482 551 421 594 421 c 0
 668 421 683 650 686 708 c 1
 775 680 l 2
 783 678 788 674 788 666 c 0
 788 665 753 341 582 341 c 0xee
 512 341 517 418 478 418 c 0
 457 418 452 379 452 373 c 1
 452 373 521 206 573 0 c 1
 496 0 l 2
 447 0 468 40 381 275 c 1
 350 362 317 418 273 418 c 0
 222 418 185 360 185 270 c 0
 185 228 194 185 210 154 c 1
 222 164 245 181 279 181 c 0
 326 181 356 151 356 108 c 0
 356 47 299 -6 239 -6 c 0
 118 -6 87 151 87 223 c 0xde
268 132 m 0
 234 132 211 102 211 76 c 0
 211 56 223 40 249 40 c 0
 283 40 305 70 305 97 c 0
 305 116 293 132 268 132 c 0
EndSplineSet
Validated: 1
EndChar

StartChar: uni0E5A
Encoding: 3674 3674 216
Width: 731
Flags: W
HStem: 0 21G<335 442.242 527 634.242> 391 48<290 382.322> 553 45<187.759 274.668>
VStem: 121 50<452.684 535.073> 279 50<466.265 549.04> 476 88<561 594>
DStem2: 335 0 438 0 0.207912 0.978148<21.4149 441.688> 527 0 630 0 0.207912 0.978148<21.4149 607.217>
LayerCount: 2
Fore
SplineSet
329 521 m 0
 329 509 327 473 290 439 c 1
 416 439 462 525 476 594 c 1
 564 594 l 1
 438 0 l 1
 335 0 l 1
 427 432 l 1
 375 402 317 391 268 391 c 0
 149 391 121 439 121 480 c 0
 121 535 173 598 247 598 c 0
 299 598 329 563 329 521 c 0
236 553 m 0
 197 553 171 520 171 489 c 0
 171 468 183 449 213 449 c 0
 254 449 279 483 279 514 c 0
 279 535 266 553 236 553 c 0
630 0 m 1
 527 0 l 1
 653 594 l 1
 756 594 l 1
 630 0 l 1
EndSplineSet
Validated: 1
EndChar

StartChar: uni0E5B
Encoding: 3675 3675 217
Width: 1293
Flags: W
HStem: 37 67<232.366 405.627> 198 59<348 412.961> 262 55<1281.18 1362.53> 389 40<292.722 358.272> 562 68<292.777 458.837>
VStem: 70 72<193.223 390.827> 225 49<285.639 373.803> 363 46<298.753 386.642> 506 72<363.538 517.886> 707 55<270 441> 859 53<273 372>
DStem2: 574 303 638 283 0.454142 0.890929<-141.114 181.255> 762 270 859 372 0.360217 0.932869<0 130.094> 912 273 1006 367 0.420761 0.907172<0 124.826> 1060 295 1006 367 0.070413 -0.997518<-75.6236 0> 1060 295 1131 350 0.410046 0.912065<0 79.2768>
LayerCount: 2
Fore
SplineSet
1153 492 m 1
 1209 265 1216 265 1232 265 c 0
 1260 265 1273 317 1328 317 c 0
 1353 317 1371 306 1371 306 c 1
 1359 247 l 1
 1359 247 1343 262 1322 262 c 0
 1286 262 1262 204 1212 204 c 0
 1166 204 1164 259 1131 350 c 1
 1024 112 l 1
 1006 367 l 1
 865 63 l 1
 859 372 l 1
 742 69 l 1
 709 69 l 1
 707 441 l 1
 687 402 651 309 638 283 c 0
 536 86 412 37 298 37 c 0
 169 37 70 129 70 268 c 0
 70 424 187 630 391 630 c 0
 524 630 578 554 578 466 c 0
 578 339 473 198 343 198 c 0
 271 198 225 239 225 304 c 0
 225 391 291 429 338 429 c 0
 383 429 409 401 409 360 c 0
 409 307 366 260 348 260 c 1
 348 257 l 1
 443 257 506 372 506 449 c 0
 506 510 469 562 374 562 c 0
 240 562 142 408 142 283 c 0
 142 177 215 107 314 104 c 1
 389 104 496 149 574 303 c 2
 731 611 l 1
 763 611 l 1
 762 270 l 1
 875 554 l 1
 908 554 l 1
 912 273 l 1
 1042 548 l 1
 1060 295 l 1
 1153 492 l 1
307 283 m 0
 340 283 363 320 363 349 c 0
 363 370 351 389 330 389 c 0
 296 389 274 351 274 323 c 0
 274 299 287 283 307 283 c 0
EndSplineSet
Validated: 1
EndChar

StartChar: uni0E38.low
Encoding: 63256 63256 218
Width: 0
Flags: W
HStem: -392 40<-289.581 -246.4> -275 42<-283.59 -215.795>
VStem: -333 41<-349.516 -283.818> -213 72<-344.777 -276.889>
LayerCount: 2
Fore
SplineSet
-333 -333 m 0
 -333 -288 -291 -233 -229 -233 c 0
 -175 -233 -141 -261 -141 -303 c 0
 -141 -309 -142 -315 -143 -321 c 2
 -172 -458 l 1
 -260 -458 l 1
 -246 -392 l 1
 -269 -392 l 2
 -313 -392 -333 -365 -333 -333 c 0
-259 -352 m 0
 -222 -352 -213 -317 -213 -306 c 0
 -213 -289 -227 -275 -242 -275 c 0
 -268 -275 -292 -293 -292 -321 c 0
 -292 -340 -279 -352 -259 -352 c 0
EndSplineSet
Validated: 1
EndChar

StartChar: uni0E39.low
Encoding: 63257 63257 219
Width: 0
Flags: W
HStem: -476 54<-289.104 -249.065> -387 35<-394.536 -352.681> -275 35<-385.955 -320.621>
VStem: -434 37<-349.412 -285.378> -318 48<-344.77 -276.257>
DStem2: -264.163 -476 -175.163 -476 0.207912 0.978148<51.0942 241.272>
LayerCount: 2
Fore
SplineSet
-434 -328 m 0
 -434 -287 -398 -240 -340 -240 c 0
 -290 -240 -270 -263 -270 -300 c 0
 -270 -309 -272 -319 -274 -330 c 2
 -289 -402 l 2
 -292 -415 -285 -422 -273 -422 c 0
 -262 -422 -251 -416 -248 -402 c 2
 -214 -240 l 1
 -125 -240 l 1
 -155 -379 l 2
 -166 -432 -207 -476 -270 -476 c 0
 -325 -476 -355 -450 -355 -410 c 0
 -355 -399 -353 -387 -352 -384 c 1
 -357 -386 -363 -387 -371 -387 c 0
 -414 -387 -434 -359 -434 -328 c 0
-365 -352 m 0
 -335 -352 -318 -327 -318 -305 c 0
 -318 -288 -331 -275 -348 -275 c 0
 -377 -275 -397 -296 -397 -322 c 0
 -397 -340 -386 -352 -365 -352 c 0
EndSplineSet
Validated: 1
EndChar

StartChar: uni0E3A.low
Encoding: 63258 63258 220
Width: 0
Flags: W
HStem: -335 118<-222.422 -145.155>
VStem: -245 122<-313.474 -239.875>
LayerCount: 2
Fore
SplineSet
-123 -262 m 0
 -123 -295 -151 -335 -194 -335 c 0
 -229 -335 -245 -314 -245 -289 c 0
 -245 -254 -215 -217 -169 -217 c 0
 -137 -217 -123 -238 -123 -262 c 0
EndSplineSet
Validated: 1
EndChar

StartChar: multiply
Encoding: 215 215 221
Width: 619
Flags: W
DStem2: 97 118 149 51 0.76925 0.638948<0 264.408 370.289 634.176> 249 521 172 458 0.615008 -0.788521<2.32122 216.286 303.151 515.365>
LayerCount: 2
Fore
SplineSet
569 117 m 1
 491 49 l 1
 356 220 l 1
 149 51 l 1
 97 118 l 1
 304 286 l 1
 172 458 l 1
 249 521 l 1
 384 352 l 1
 589 521 l 1
 639 458 l 1
 436 286 l 1
 569 117 l 1
EndSplineSet
Validated: 1
EndChar

StartChar: divide
Encoding: 247 247 222
Width: 546
Flags: W
HStem: 2 129<249.963 327.352> 212 81<82 572> 375 130<328.322 406.321>
VStem: 222 131<27.244 103.033> 301 132<401.282 477.445>
LayerCount: 2
Fore
SplineSet
433 455 m 0xe8
 433 411 396 375 353 375 c 0xf0
 322 375 301 400 301 428 c 0
 301 461 334 505 380 505 c 0
 411 505 433 486 433 455 c 0xe8
572 212 m 1
 65 212 l 1
 82 293 l 1
 589 293 l 1
 572 212 l 1
353 79 m 0
 353 36 315 2 273 2 c 0
 242 2 222 24 222 53 c 0xf0
 222 90 259 131 301 131 c 0xe8
 333 131 353 108 353 79 c 0
EndSplineSet
Validated: 1
EndChar

StartChar: registered
Encoding: 174 174 223
Width: 774
Flags: W
HStem: -25 70<297.095 505.592> 147 39<264 308.999 404 421 574.495 599> 309 41<425 457.149> 485 39<337 364.125 448.906 527.369> 613 69<409.047 622.074>
VStem: 96 72<170.285 374.319> 533 88<384.775 480.145> 749 69<281.992 487.029>
DStem2: 260.325 -25 344.325 -25 0.207912 0.978148<237.911 362.163 403 516.749>
LayerCount: 2
Fore
SplineSet
621 454 m 0
 621 393 569 331 519 326 c 1
 550 318 553 283 561 253 c 1
 571 221 567 187 608 186 c 1
 599 147 l 1
 526 147 l 2
 495 147 484 190 474 232 c 1
 456 296 468 309 416 309 c 1
 393 204 l 2
 391 192 395 189 404 187 c 2
 429 184 l 1
 421 147 l 1
 255 147 l 1
 264 186 l 1
 286 187 306 187 309 204 c 2
 365 468 l 2
 369 484 367 485 350 485 c 2
 329 485 l 1
 337 524 l 1
 507 524 l 2
 583 524 621 502 621 454 c 0
433 350 m 1
 513 350 533 401 533 442 c 0
 533 470 517 485 486 485 c 2
 461 485 l 2
 453 485 449 467 447 458 c 2
 425 352 l 1
 433 350 l 1
519 613 m 0
 336 613 168 443 168 270 c 0
 168 142 262 45 399 45 c 0
 581 45 749 214 749 387 c 0
 749 516 655 613 519 613 c 0
96 255 m 0
 96 472 305 682 532 682 c 0
 702 682 818 562 818 402 c 0
 818 181 603 -25 382 -25 c 0
 212 -25 96 95 96 255 c 0
EndSplineSet
Validated: 1
EndChar

StartChar: fi
Encoding: 64257 64257 224
Width: 555
Flags: W
HStem: 0 23<20 61.3989 232.845 256 305 340.998 508.194 536> 417 44<113 159 307 431.617> 453 20G<540.5 582.714> 661 30<383.373 482.176>
VStem: 487 114<573.027 656.455>
DStem2: 70.3578 0 208.783 0 0.207912 0.978148<89.7228 426.317 500.127 601.667> 348.783 0 485.783 0 0.207912 0.978148<89.4272 405.442>
LayerCount: 2
Fore
SplineSet
468 582 m 0xd8
 468 609 487 628 487 637 c 0
 487 650 466 661 438 661 c 0
 352 661 334 589 307 461 c 1
 414 461 l 2xd8
 450 461 494 464 587 473 c 1xb8
 503 81 l 2
 501 73 500 65 500 59 c 0
 500 35 513 25 541 23 c 1
 536 0 l 1
 300 0 l 1
 305 23 l 1
 343 28 358 41 366 81 c 2
 430 382 l 2
 431 388 432 393 432 397 c 0
 432 412 423 417 402 417 c 2
 298 417 l 1
 226 81 l 2
 224 72 223 65 223 59 c 0
 223 37 235 28 261 23 c 1
 256 0 l 1
 15 0 l 1
 20 23 l 1
 68 29 79 41 88 83 c 2
 159 417 l 1
 104 417 l 1
 113 461 l 1
 168 461 l 1
 186 533 223 691 441 691 c 0
 542 691 601 662 601 613 c 0
 601 571 564 539 522 539 c 0
 489 539 468 556 468 582 c 0xd8
EndSplineSet
Validated: 1
Ligature2: "'liga' Standard Ligatures in Latin lookup 0 subtable" f i
LCarets2: 1 0 
EndChar

StartChar: fl
Encoding: 64258 64258 225
Width: 555
Flags: W
HStem: 0 23<20 61.3989 232.845 256 305 341.027 529 536> 417 44<113 159 307 438> 658 33<376.415 474.327>
DStem2: 70.3578 0 208.783 0 0.207912 0.978148<89.7228 426.317 500.127 607.708> 348.783 0 485.783 0 0.207912 0.978148<90.6124 426.437 471.347 593.128>
LayerCount: 2
Fore
SplineSet
305 23 m 1
 328 28 355 27 366 81 c 2
 438 417 l 1
 298 417 l 1
 226 81 l 2
 224 72 223 65 223 59 c 0
 223 37 235 28 261 23 c 1
 256 0 l 1
 15 0 l 1
 20 23 l 1
 68 29 79 41 88 83 c 2
 159 417 l 1
 104 417 l 1
 113 461 l 1
 168 461 l 1
 192 552 213 598 254 633 c 1
 295 671 352 691 418 691 c 0
 472 691 511 683 560 661 c 1
 616 690 l 1
 633 690 l 1
 503 81 l 2
 501 73 501 66 501 60 c 0
 501 38 510 26 529 25 c 1
 541 23 l 1
 536 0 l 1
 300 0 l 1
 305 23 l 1
452 585 m 0
 452 607 475 626 475 640 c 0
 475 651 462 658 437 658 c 0
 371 658 342 625 320 523 c 2
 307 461 l 1
 447 461 l 1
 468 560 l 1
 457 562 452 573 452 585 c 0
EndSplineSet
Validated: 1
Ligature2: "'liga' Standard Ligatures in Latin lookup 0 subtable" f l
LCarets2: 1 0 
EndChar

StartChar: ff
Encoding: 64256 64256 226
Width: 609
Flags: W
HStem: 0 23<20 60.7756 233.516 256 305 340.67 509.75 536> 417 44<113 159 307 438 584 663> 661 30<388.295 482.62 638.919 701.025>
VStem: 702 91<584.941 659.38>
DStem2: 70.3578 0 208.783 0 0.207912 0.978148<90.9087 426.317 500.127 600.505> 348.783 0 485.783 0 0.207912 0.978148<90.6124 426.437 499.83 571.96>
LayerCount: 2
Fore
SplineSet
793 609 m 0
 793 561 758 529 715 529 c 0
 688 529 666 546 666 572 c 0
 666 607 702 622 702 646 c 0
 702 658 687 661 676 661 c 0
 632 661 617 617 610 583 c 2
 584 461 l 1
 672 461 l 1
 663 417 l 1
 575 417 l 1
 503 81 l 2
 501 73 501 66 501 60 c 0
 501 38 511 25 541 23 c 1
 536 0 l 1
 300 0 l 1
 305 23 l 1
 344 26 359 45 366 81 c 2
 438 417 l 1
 298 417 l 1
 226 81 l 2
 224 73 224 66 224 60 c 0
 224 39 234 27 261 23 c 1
 256 0 l 1
 15 0 l 1
 20 23 l 1
 62 29 78 37 88 83 c 2
 159 417 l 1
 104 417 l 1
 113 461 l 1
 168 461 l 1
 202 608 280 691 438 691 c 0
 482 691 530 686 565 666 c 1
 602 686 641 691 677 691 c 0
 731 691 793 667 793 609 c 0
473 560 m 1
 470 565 468 574 468 582 c 0
 468 611 487 628 487 636 c 0
 487 656 453 661 438 661 c 0
 358 661 333 582 318 513 c 2
 307 461 l 1
 447 461 l 1
 454 494 461 527 473 560 c 1
EndSplineSet
Validated: 1
Ligature2: "'liga' Standard Ligatures in Latin lookup 0 subtable" f f
LCarets2: 1 0 
EndChar

StartChar: ffi
Encoding: 64259 64259 227
Width: 832
Flags: W
HStem: 0 23<20 60.7756 233.516 256 305 340.67 510.816 535 584 618.655 786.519 813> 417 44<113 159 307 438 584 707.082> 453 20G<836.5 861.714> 661 30<388.295 482.278 663.358 758.126>
VStem: 763 115<573.005 656.581>
DStem2: 70.3578 0 208.783 0 0.207912 0.978148<90.9087 426.317 500.127 600.505> 348.783 0 485.783 0 0.207912 0.978148<91.5898 426.437 499.83 569.821> 624.783 0 764.783 0 0.207912 0.978148<89.1172 406.375>
LayerCount: 2
Fore
SplineSet
745 582 m 0xd8
 745 609 763 628 763 636 c 0
 763 656 729 661 714 661 c 0
 634 661 610 582 595 513 c 2
 584 461 l 1
 691 461 l 2xd8
 748 461 807 469 866 473 c 1xb8
 782 81 l 2
 780 72 779 65 779 58 c 0
 779 36 789 25 818 23 c 1
 813 0 l 1
 579 0 l 1
 584 23 l 1
 623 26 635 47 642 81 c 2
 706 382 l 2
 707 388 708 393 708 398 c 0
 708 412 700 417 679 417 c 2
 575 417 l 1
 503 81 l 2
 501 73 501 67 501 61 c 0
 501 39 511 27 540 23 c 1
 535 0 l 1
 300 0 l 1
 305 23 l 1
 344 26 359 47 366 81 c 2
 438 417 l 1
 298 417 l 1
 226 81 l 2
 224 73 224 66 224 60 c 0
 224 39 234 27 261 23 c 1
 256 0 l 1
 15 0 l 1
 20 23 l 1
 62 29 78 37 88 83 c 2
 159 417 l 1
 104 417 l 1
 113 461 l 1
 168 461 l 1
 202 608 280 691 438 691 c 0
 485 691 540 684 578 661 c 1
 620 684 670 691 715 691 c 0
 770 691 878 680 878 615 c 0
 878 577 848 539 798 539 c 0
 769 539 745 554 745 582 c 0xd8
477 557 m 1
 471 563 468 572 468 582 c 0
 468 612 487 628 487 636 c 0
 487 656 453 661 438 661 c 0
 358 661 333 582 318 513 c 2
 307 461 l 1
 447 461 l 1
 454 494 461 524 477 557 c 1
EndSplineSet
Validated: 1
LCarets2: 2 0 0 
Ligature2: "'liga' Standard Ligatures in Latin lookup 0 subtable" ff i
Ligature2: "'liga' Standard Ligatures in Latin lookup 0 subtable" f f i
EndChar

StartChar: ffl
Encoding: 64260 64260 228
Width: 832
Flags: W
HStem: 0 23<20 60.7756 233.516 256 305 340.67 510.816 535 584 617.784 785.66 813> 417 44<113 159 307 438 584 714> 661 30<388.295 483.026 661.66 751.67>
DStem2: 70.3578 0 208.783 0 0.207912 0.978148<90.9087 426.317 500.127 600.505> 348.783 0 485.783 0 0.207912 0.978148<91.5898 426.437 499.83 569.424> 624.783 0 764.783 0 0.207912 0.978148<87.1623 426.437 471.347 596.06>
LayerCount: 2
Fore
SplineSet
813 0 m 1
 579 0 l 1
 584 23 l 1
 621 26 635 47 642 81 c 2
 714 417 l 1
 575 417 l 1
 503 81 l 2
 501 73 501 67 501 61 c 0
 501 39 511 27 540 23 c 1
 535 0 l 1
 300 0 l 1
 305 23 l 1
 344 26 359 47 366 81 c 2
 438 417 l 1
 298 417 l 1
 226 81 l 2
 224 73 224 66 224 60 c 0
 224 39 234 27 261 23 c 1
 256 0 l 1
 15 0 l 1
 20 23 l 1
 62 29 78 37 88 83 c 2
 159 417 l 1
 104 417 l 1
 113 461 l 1
 168 461 l 1
 202 608 280 691 438 691 c 0
 484 691 539 686 572 662 c 1
 615 686 660 691 702 691 c 0
 748 691 803 680 840 661 c 1
 893 690 l 1
 912 690 l 1
 782 81 l 2
 780 72 779 63 779 56 c 0
 779 36 788 24 818 23 c 1
 813 0 l 1
728 588 m 0
 728 611 753 623 753 641 c 0
 753 658 726 658 710 658 c 0
 632 658 611 589 598 529 c 2
 584 461 l 1
 723 461 l 1
 744 560 l 1
 733 562 728 576 728 588 c 0
475 557 m 1
 470 562 467 570 467 579 c 0
 467 609 487 628 487 636 c 0
 487 656 453 661 438 661 c 0
 358 661 333 582 318 513 c 2
 307 461 l 1
 447 461 l 1
 454 494 461 524 475 557 c 1
EndSplineSet
Validated: 1
LCarets2: 2 0 0 
Ligature2: "'liga' Standard Ligatures in Latin lookup 0 subtable" ff l
Ligature2: "'liga' Standard Ligatures in Latin lookup 0 subtable" f f l
EndChar

StartChar: zerowidthspace
Encoding: 8203 8203 229
Width: 0
Flags: W
LayerCount: 2
Back
SplineSet
710 -187 m 5
 642 -187 l 5
 670 -54 l 5
 676 -17 659 0 617 0 c 6
 220 0 l 6
 184 0 164 -15 157 -49 c 5
 129 -187 l 5
 61 -187 l 5
 114 61 l 5
 760 61 l 5
 710 -187 l 5
EndSplineSet
EndChar

StartChar: uni0E47.high
Encoding: 63263 63263 232
Width: 0
Flags: W
HStem: 1002 44<-3.909 54.3739> 1063 49<-133.406 -76.1978> 1109 41<0.859207 58.4571> 1179 44<-84.4246 60.2241> 1184 47<-132.35 15.6171>
VStem: -218 64<1085.65 1162.67> 59 44<1050.48 1108.76>
AnchorPoint: "AboveMark" -21 1261 basemark 0
AnchorPoint: "AboveMark" -80 983 mark 0
LayerCount: 2
Fore
SplineSet
-107 1063 m 0xc6
 -123 1063 -136 1046 -136 1027 c 0
 -136 1017 -132 1009 -127 1002 c 1
 -182 1003 l 1
 -207 1030 -218 1063 -218 1095 c 0
 -218 1171 -160 1231 -86 1231 c 0xce
 -73 1231 -11 1223 16 1223 c 0
 31 1223 62 1227 72 1273 c 0
 73 1278 73 1284 73 1289 c 1
 153 1289 l 1
 132 1197 69 1179 18 1179 c 0x96
 -13 1179 -74 1184 -84 1184 c 0
 -121 1184 -154 1152 -154 1106 c 0
 -154 1099 -153 1092 -151 1085 c 1
 -138 1105 -121 1112 -103 1112 c 0xce
 -68 1112 -48 1088 -41 1081 c 1
 -32 1126 4 1150 42 1150 c 0xa6
 74 1150 103 1132 103 1096 c 0
 103 1034 50 1002 12 1002 c 0
 -72 1002 -76 1063 -107 1063 c 0xc6
34 1109 m 0xa6
 11 1109 -5 1090 -5 1069 c 0
 -5 1056 2 1046 20 1046 c 0
 43 1046 59 1065 59 1085 c 0
 59 1098 52 1109 34 1109 c 0xa6
EndSplineSet
Validated: 1
EndChar

StartChar: dotlessi
Encoding: 305 305 237
Width: 278
Flags: W
HStem: 0 38<19 87.3174 218.267 272> 386 39<101 123>
VStem: 11 288
DStem2: 86.4448 0 195.445 0 0.207912 0.978148<99.9035 380.35>
LayerCount: 2
Fore
SplineSet
272 0 m 1
 11 0 l 1
 19 38 l 1
 81 41 98 57 106 92 c 2
 157 335 l 2
 161 351 163 364 163 373 c 0
 163 389 157 395 141 395 c 0
 130 395 114 392 93 386 c 1
 101 425 l 1
 299 488 l 1
 215 92 l 2
 214 86 213 80 213 75 c 0
 213 52 229 40 280 38 c 1
 272 0 l 1
EndSplineSet
Validated: 1
EndChar

StartChar: dotlessj
Encoding: 567 567 238
Width: 278
Flags: W
HStem: -217 56<-23.5 72.7013> 389 36<125 146.889>
DStem2: 62.4177 -217 172.148 -217 0.207912 0.978148<129.904 605.713>
LayerCount: 2
Fore
SplineSet
-99 -158 m 0
 -99 -122 -69 -94 -33 -94 c 0
 -17 -94 -4 -101 2 -112 c 1
 16 -146 39 -161 50 -161 c 0
 74 -161 86 -110 92 -81 c 2
 184 355 l 2
 186 364 187 371 187 376 c 0
 187 389 180 394 164 394 c 0
 153 394 137 392 118 389 c 1
 125 425 l 1
 322 488 l 1
 223 25 l 2
 189 -137 108 -217 -11 -217 c 0
 -36 -217 -99 -206 -99 -158 c 0
EndSplineSet
Validated: 1
EndChar

StartChar: ae
Encoding: 230 230 239
Width: 720
Flags: W
HStem: -15 63<116.5 247.781> -9 71<447.5 592.344> 248 38<494 631.26> 441 32<254.423 364.539 551.429 635.841>
VStem: 50 151<52.5368 138.784> 123 116<312.471 411> 645 106<287.045 411.733>
LayerCount: 2
Fore
SplineSet
123 333 m 0x76
 123 398 205 473 333 473 c 0
 398 473 434 458 463 422 c 1
 510 458 551 473 602 473 c 0
 692 473 751 421 751 328 c 0
 751 306 749 283 741 248 c 1
 486 248 l 1
 481 219 473 178 473 152 c 0
 473 89 502 62 562 62 c 0
 611 62 650 81 699 127 c 1
 716 113 l 1
 639 23 577 -9 482 -9 c 0x76
 413 -9 378 13 353 75 c 1
 281 13 212 -15 148 -15 c 0xb6
 85 -15 50 12 50 62 c 0x7a
 50 197 199 232 356 280 c 1
 372 360 l 2
 375 372 376 382 376 393 c 0
 376 426 356 441 312 441 c 0
 263 441 239 419 239 403 c 0
 239 390 256 383 256 359 c 0
 256 309 222 284 179 284 c 0
 144 284 123 302 123 333 c 0x76
349 248 m 1
 274 222 201 186 201 94 c 0
 201 64 215 48 245 48 c 0xba
 267 48 284 56 313 81 c 1
 349 248 l 1
494 286 m 1
 627 286 l 1
 634 315 645 366 645 390 c 0
 645 428 630 442 598 442 c 0
 546 442 519 403 494 286 c 1
EndSplineSet
Validated: 1
EndChar

StartChar: AE
Encoding: 198 198 240
Width: 998
Flags: W
HStem: 0 34<611.438 793.191> 0 25<10 45.5364 154.337 209 350 411.98> 303 40<337 497> 331 32<669 743.545> 475 21G<986 1015.16> 642 35<727.143 915.898> 653 24<419 483.154>
VStem: 784 23<174 206.958> 855 24<489.848 513> 986 25<475 508.667>
DStem2: 146 152 167 116 0.605161 0.796103<-76.3511 217.037 267.641 585.78> 431.706 0 592.295 0 0.207912 0.978148<102.466 309.954 350.743 374.459 404.404 647.297>
LayerCount: 2
Fore
SplineSet
986 475 m 1x6bc0
 986 578 976 642 797 642 c 0
 743 642 727 636 722 611 c 2
 669 363 l 1
 788 374 800 382 855 513 c 1
 879 513 l 1
 807 174 l 1
 784 174 l 1
 785 190 785 207 785 220 c 0
 785 305 759 325 662 331 c 1
 611 88 l 2
 609 81 608 73 608 67 c 0
 608 41 625 34 675 34 c 0x9dc0
 760 34 823 53 873 95 c 0
 914 130 958 182 974 211 c 1
 996 211 l 1
 910 0 l 1
 344 0 l 1
 350 25 l 1
 423 29 442 45 457 119 c 1
 497 303 l 1
 306 303 l 1
 167 116 l 2
 151 95 141 78 141 59 c 0
 141 32 173 31 215 25 c 1
 209 0 l 1
 4 0 l 1
 10 25 l 1
 48 31 60 40 146 152 c 2
 453 555 l 2
 473 581 494 609 494 624 c 0
 494 643 472 650 415 653 c 1
 419 677 l 1
 1053 677 l 1
 1011 475 l 1
 986 475 l 1x6bc0
337 343 m 1x29c0
 505 343 l 1
 567 633 l 1
 560 633 l 1
 337 343 l 1x29c0
EndSplineSet
Validated: 1
EndChar

